<?xml version="1.0" encoding="utf-8" standalone="no"?>
<!DOCTYPE svg PUBLIC "-//W3C//DTD SVG 1.1//EN"
  "http://www.w3.org/Graphics/SVG/1.1/DTD/svg11.dtd">
<svg xmlns:xlink="http://www.w3.org/1999/xlink" width="792pt" height="432pt" viewBox="0 0 792 432" xmlns="http://www.w3.org/2000/svg" version="1.1">
 <metadata>
  <rdf:RDF xmlns:dc="http://purl.org/dc/elements/1.1/" xmlns:cc="http://creativecommons.org/ns#" xmlns:rdf="http://www.w3.org/1999/02/22-rdf-syntax-ns#">
   <cc:Work>
    <dc:type rdf:resource="http://purl.org/dc/dcmitype/StillImage"/>
    <dc:date>2022-06-02T11:06:17.706217</dc:date>
    <dc:format>image/svg+xml</dc:format>
    <dc:creator>
     <cc:Agent>
      <dc:title>Matplotlib v3.5.1, https://matplotlib.org/</dc:title>
     </cc:Agent>
    </dc:creator>
   </cc:Work>
  </rdf:RDF>
 </metadata>
 <defs>
  <style type="text/css">*{stroke-linejoin: round; stroke-linecap: butt}</style>
 </defs>
 <g id="figure_1">
  <g id="patch_1">
   <path d="M 0 432 
L 792 432 
L 792 0 
L 0 0 
L 0 432 
z
" style="fill: none"/>
  </g>
  <g id="axes_1">
   <g id="patch_2">
    <path d="M 99 378 
L 712.8 378 
L 712.8 51.84 
L 99 51.84 
z
" style="fill: #ffffff"/>
   </g>
   <g id="PathCollection_1">
    <defs>
     <path id="m9bd7ee5ff4" d="M 0 3 
C 0.795609 3 1.55874 2.683901 2.12132 2.12132 
C 2.683901 1.55874 3 0.795609 3 0 
C 3 -0.795609 2.683901 -1.55874 2.12132 -2.12132 
C 1.55874 -2.683901 0.795609 -3 0 -3 
C -0.795609 -3 -1.55874 -2.683901 -2.12132 -2.12132 
C -2.683901 -1.55874 -3 -0.795609 -3 0 
C -3 0.795609 -2.683901 1.55874 -2.12132 2.12132 
C -1.55874 2.683901 -0.795609 3 0 3 
z
" style="stroke: #1f77b4"/>
    </defs>
    <g clip-path="url(#p3a21dcdc89)">
     <use xlink:href="#m9bd7ee5ff4" x="126.9" y="288.768579" style="fill: #1f77b4; stroke: #1f77b4"/>
     <use xlink:href="#m9bd7ee5ff4" x="129.608738" y="363.489147" style="fill: #1f77b4; stroke: #1f77b4"/>
     <use xlink:href="#m9bd7ee5ff4" x="132.317476" y="368.025402" style="fill: #1f77b4; stroke: #1f77b4"/>
     <use xlink:href="#m9bd7ee5ff4" x="135.026214" y="367.781854" style="fill: #1f77b4; stroke: #1f77b4"/>
     <use xlink:href="#m9bd7ee5ff4" x="137.734951" y="356.917251" style="fill: #1f77b4; stroke: #1f77b4"/>
     <use xlink:href="#m9bd7ee5ff4" x="140.443689" y="356.793699" style="fill: #1f77b4; stroke: #1f77b4"/>
     <use xlink:href="#m9bd7ee5ff4" x="143.152427" y="359.546094" style="fill: #1f77b4; stroke: #1f77b4"/>
     <use xlink:href="#m9bd7ee5ff4" x="145.861165" y="362.382537" style="fill: #1f77b4; stroke: #1f77b4"/>
     <use xlink:href="#m9bd7ee5ff4" x="148.569903" y="360.703677" style="fill: #1f77b4; stroke: #1f77b4"/>
     <use xlink:href="#m9bd7ee5ff4" x="151.278641" y="358.374514" style="fill: #1f77b4; stroke: #1f77b4"/>
     <use xlink:href="#m9bd7ee5ff4" x="153.987379" y="360.605125" style="fill: #1f77b4; stroke: #1f77b4"/>
     <use xlink:href="#m9bd7ee5ff4" x="156.696117" y="371.696911" style="fill: #1f77b4; stroke: #1f77b4"/>
     <use xlink:href="#m9bd7ee5ff4" x="159.404854" y="355.418168" style="fill: #1f77b4; stroke: #1f77b4"/>
     <use xlink:href="#m9bd7ee5ff4" x="162.113592" y="364.859871" style="fill: #1f77b4; stroke: #1f77b4"/>
     <use xlink:href="#m9bd7ee5ff4" x="164.82233" y="341.905536" style="fill: #1f77b4; stroke: #1f77b4"/>
     <use xlink:href="#m9bd7ee5ff4" x="167.531068" y="331.807637" style="fill: #1f77b4; stroke: #1f77b4"/>
     <use xlink:href="#m9bd7ee5ff4" x="170.239806" y="333.068972" style="fill: #1f77b4; stroke: #1f77b4"/>
     <use xlink:href="#m9bd7ee5ff4" x="172.948544" y="334.152793" style="fill: #1f77b4; stroke: #1f77b4"/>
     <use xlink:href="#m9bd7ee5ff4" x="175.657282" y="345.405289" style="fill: #1f77b4; stroke: #1f77b4"/>
     <use xlink:href="#m9bd7ee5ff4" x="178.366019" y="342.153821" style="fill: #1f77b4; stroke: #1f77b4"/>
     <use xlink:href="#m9bd7ee5ff4" x="181.074757" y="290.749485" style="fill: #1f77b4; stroke: #1f77b4"/>
     <use xlink:href="#m9bd7ee5ff4" x="183.783495" y="293.510969" style="fill: #1f77b4; stroke: #1f77b4"/>
     <use xlink:href="#m9bd7ee5ff4" x="186.492233" y="282.231851" style="fill: #1f77b4; stroke: #1f77b4"/>
     <use xlink:href="#m9bd7ee5ff4" x="189.200971" y="318.97498" style="fill: #1f77b4; stroke: #1f77b4"/>
     <use xlink:href="#m9bd7ee5ff4" x="191.909709" y="337.543161" style="fill: #1f77b4; stroke: #1f77b4"/>
     <use xlink:href="#m9bd7ee5ff4" x="194.618447" y="352.787986" style="fill: #1f77b4; stroke: #1f77b4"/>
     <use xlink:href="#m9bd7ee5ff4" x="197.327184" y="359.546413" style="fill: #1f77b4; stroke: #1f77b4"/>
     <use xlink:href="#m9bd7ee5ff4" x="200.035922" y="367.637272" style="fill: #1f77b4; stroke: #1f77b4"/>
     <use xlink:href="#m9bd7ee5ff4" x="202.74466" y="360.768993" style="fill: #1f77b4; stroke: #1f77b4"/>
     <use xlink:href="#m9bd7ee5ff4" x="205.453398" y="362.133965" style="fill: #1f77b4; stroke: #1f77b4"/>
     <use xlink:href="#m9bd7ee5ff4" x="208.162136" y="356.146094" style="fill: #1f77b4; stroke: #1f77b4"/>
     <use xlink:href="#m9bd7ee5ff4" x="210.870874" y="363.65879" style="fill: #1f77b4; stroke: #1f77b4"/>
     <use xlink:href="#m9bd7ee5ff4" x="213.579612" y="362.384255" style="fill: #1f77b4; stroke: #1f77b4"/>
     <use xlink:href="#m9bd7ee5ff4" x="216.28835" y="358.082811" style="fill: #1f77b4; stroke: #1f77b4"/>
     <use xlink:href="#m9bd7ee5ff4" x="218.997087" y="366.455203" style="fill: #1f77b4; stroke: #1f77b4"/>
     <use xlink:href="#m9bd7ee5ff4" x="221.705825" y="368.883254" style="fill: #1f77b4; stroke: #1f77b4"/>
     <use xlink:href="#m9bd7ee5ff4" x="224.414563" y="369.767477" style="fill: #1f77b4; stroke: #1f77b4"/>
     <use xlink:href="#m9bd7ee5ff4" x="227.123301" y="366.479696" style="fill: #1f77b4; stroke: #1f77b4"/>
     <use xlink:href="#m9bd7ee5ff4" x="229.832039" y="361.971264" style="fill: #1f77b4; stroke: #1f77b4"/>
     <use xlink:href="#m9bd7ee5ff4" x="232.540777" y="355.457301" style="fill: #1f77b4; stroke: #1f77b4"/>
     <use xlink:href="#m9bd7ee5ff4" x="235.249515" y="367.198707" style="fill: #1f77b4; stroke: #1f77b4"/>
     <use xlink:href="#m9bd7ee5ff4" x="237.958252" y="332.185065" style="fill: #1f77b4; stroke: #1f77b4"/>
     <use xlink:href="#m9bd7ee5ff4" x="240.66699" y="352.698084" style="fill: #1f77b4; stroke: #1f77b4"/>
     <use xlink:href="#m9bd7ee5ff4" x="243.375728" y="338.233824" style="fill: #1f77b4; stroke: #1f77b4"/>
     <use xlink:href="#m9bd7ee5ff4" x="246.084466" y="324.504737" style="fill: #1f77b4; stroke: #1f77b4"/>
     <use xlink:href="#m9bd7ee5ff4" x="248.793204" y="304.524169" style="fill: #1f77b4; stroke: #1f77b4"/>
     <use xlink:href="#m9bd7ee5ff4" x="251.501942" y="352.421444" style="fill: #1f77b4; stroke: #1f77b4"/>
     <use xlink:href="#m9bd7ee5ff4" x="254.21068" y="360.795979" style="fill: #1f77b4; stroke: #1f77b4"/>
     <use xlink:href="#m9bd7ee5ff4" x="256.919417" y="357.876227" style="fill: #1f77b4; stroke: #1f77b4"/>
     <use xlink:href="#m9bd7ee5ff4" x="259.628155" y="361.167679" style="fill: #1f77b4; stroke: #1f77b4"/>
     <use xlink:href="#m9bd7ee5ff4" x="262.336893" y="368.024345" style="fill: #1f77b4; stroke: #1f77b4"/>
     <use xlink:href="#m9bd7ee5ff4" x="265.045631" y="361.649834" style="fill: #1f77b4; stroke: #1f77b4"/>
     <use xlink:href="#m9bd7ee5ff4" x="267.754369" y="351.456288" style="fill: #1f77b4; stroke: #1f77b4"/>
     <use xlink:href="#m9bd7ee5ff4" x="270.463107" y="362.232612" style="fill: #1f77b4; stroke: #1f77b4"/>
     <use xlink:href="#m9bd7ee5ff4" x="273.171845" y="357.842566" style="fill: #1f77b4; stroke: #1f77b4"/>
     <use xlink:href="#m9bd7ee5ff4" x="275.880583" y="353.318208" style="fill: #1f77b4; stroke: #1f77b4"/>
     <use xlink:href="#m9bd7ee5ff4" x="278.58932" y="358.988201" style="fill: #1f77b4; stroke: #1f77b4"/>
     <use xlink:href="#m9bd7ee5ff4" x="281.298058" y="369.009726" style="fill: #1f77b4; stroke: #1f77b4"/>
     <use xlink:href="#m9bd7ee5ff4" x="284.006796" y="352.690884" style="fill: #1f77b4; stroke: #1f77b4"/>
     <use xlink:href="#m9bd7ee5ff4" x="286.715534" y="349.281824" style="fill: #1f77b4; stroke: #1f77b4"/>
     <use xlink:href="#m9bd7ee5ff4" x="289.424272" y="364.17035" style="fill: #1f77b4; stroke: #1f77b4"/>
     <use xlink:href="#m9bd7ee5ff4" x="292.13301" y="358.494116" style="fill: #1f77b4; stroke: #1f77b4"/>
     <use xlink:href="#m9bd7ee5ff4" x="294.841748" y="366.528245" style="fill: #1f77b4; stroke: #1f77b4"/>
     <use xlink:href="#m9bd7ee5ff4" x="297.550485" y="373.758871" style="fill: #1f77b4; stroke: #1f77b4"/>
     <use xlink:href="#m9bd7ee5ff4" x="300.259223" y="370.46872" style="fill: #1f77b4; stroke: #1f77b4"/>
     <use xlink:href="#m9bd7ee5ff4" x="302.967961" y="373.735063" style="fill: #1f77b4; stroke: #1f77b4"/>
     <use xlink:href="#m9bd7ee5ff4" x="305.676699" y="373.476108" style="fill: #1f77b4; stroke: #1f77b4"/>
     <use xlink:href="#m9bd7ee5ff4" x="308.385437" y="368.237485" style="fill: #1f77b4; stroke: #1f77b4"/>
     <use xlink:href="#m9bd7ee5ff4" x="311.094175" y="372.486517" style="fill: #1f77b4; stroke: #1f77b4"/>
     <use xlink:href="#m9bd7ee5ff4" x="313.802913" y="370.485261" style="fill: #1f77b4; stroke: #1f77b4"/>
     <use xlink:href="#m9bd7ee5ff4" x="316.51165" y="364.001192" style="fill: #1f77b4; stroke: #1f77b4"/>
     <use xlink:href="#m9bd7ee5ff4" x="319.220388" y="371.246224" style="fill: #1f77b4; stroke: #1f77b4"/>
     <use xlink:href="#m9bd7ee5ff4" x="321.929126" y="359.231944" style="fill: #1f77b4; stroke: #1f77b4"/>
     <use xlink:href="#m9bd7ee5ff4" x="324.637864" y="359.709495" style="fill: #1f77b4; stroke: #1f77b4"/>
     <use xlink:href="#m9bd7ee5ff4" x="327.346602" y="360.325385" style="fill: #1f77b4; stroke: #1f77b4"/>
     <use xlink:href="#m9bd7ee5ff4" x="330.05534" y="360.424425" style="fill: #1f77b4; stroke: #1f77b4"/>
     <use xlink:href="#m9bd7ee5ff4" x="332.764078" y="359.742577" style="fill: #1f77b4; stroke: #1f77b4"/>
     <use xlink:href="#m9bd7ee5ff4" x="335.472816" y="360.623795" style="fill: #1f77b4; stroke: #1f77b4"/>
     <use xlink:href="#m9bd7ee5ff4" x="338.181553" y="345.93419" style="fill: #1f77b4; stroke: #1f77b4"/>
     <use xlink:href="#m9bd7ee5ff4" x="340.890291" y="309.853294" style="fill: #1f77b4; stroke: #1f77b4"/>
     <use xlink:href="#m9bd7ee5ff4" x="343.599029" y="272.877943" style="fill: #1f77b4; stroke: #1f77b4"/>
     <use xlink:href="#m9bd7ee5ff4" x="346.307767" y="236.98968" style="fill: #1f77b4; stroke: #1f77b4"/>
     <use xlink:href="#m9bd7ee5ff4" x="349.016505" y="177.397989" style="fill: #1f77b4; stroke: #1f77b4"/>
     <use xlink:href="#m9bd7ee5ff4" x="351.725243" y="123.726892" style="fill: #1f77b4; stroke: #1f77b4"/>
     <use xlink:href="#m9bd7ee5ff4" x="354.433981" y="97.231485" style="fill: #1f77b4; stroke: #1f77b4"/>
     <use xlink:href="#m9bd7ee5ff4" x="357.142718" y="161.60281" style="fill: #1f77b4; stroke: #1f77b4"/>
     <use xlink:href="#m9bd7ee5ff4" x="359.851456" y="155.552739" style="fill: #1f77b4; stroke: #1f77b4"/>
     <use xlink:href="#m9bd7ee5ff4" x="362.560194" y="218.611032" style="fill: #1f77b4; stroke: #1f77b4"/>
     <use xlink:href="#m9bd7ee5ff4" x="365.268932" y="264.248959" style="fill: #1f77b4; stroke: #1f77b4"/>
     <use xlink:href="#m9bd7ee5ff4" x="367.97767" y="311.540498" style="fill: #1f77b4; stroke: #1f77b4"/>
     <use xlink:href="#m9bd7ee5ff4" x="370.686408" y="327.403093" style="fill: #1f77b4; stroke: #1f77b4"/>
     <use xlink:href="#m9bd7ee5ff4" x="373.395146" y="353.077847" style="fill: #1f77b4; stroke: #1f77b4"/>
     <use xlink:href="#m9bd7ee5ff4" x="376.103883" y="367.441286" style="fill: #1f77b4; stroke: #1f77b4"/>
     <use xlink:href="#m9bd7ee5ff4" x="378.812621" y="361.004426" style="fill: #1f77b4; stroke: #1f77b4"/>
     <use xlink:href="#m9bd7ee5ff4" x="381.521359" y="360.701451" style="fill: #1f77b4; stroke: #1f77b4"/>
     <use xlink:href="#m9bd7ee5ff4" x="384.230097" y="363.229389" style="fill: #1f77b4; stroke: #1f77b4"/>
     <use xlink:href="#m9bd7ee5ff4" x="386.938835" y="359.144878" style="fill: #1f77b4; stroke: #1f77b4"/>
     <use xlink:href="#m9bd7ee5ff4" x="389.647573" y="356.174563" style="fill: #1f77b4; stroke: #1f77b4"/>
     <use xlink:href="#m9bd7ee5ff4" x="392.356311" y="351.430834" style="fill: #1f77b4; stroke: #1f77b4"/>
     <use xlink:href="#m9bd7ee5ff4" x="395.065049" y="361.685021" style="fill: #1f77b4; stroke: #1f77b4"/>
     <use xlink:href="#m9bd7ee5ff4" x="397.773786" y="372.242619" style="fill: #1f77b4; stroke: #1f77b4"/>
     <use xlink:href="#m9bd7ee5ff4" x="400.482524" y="373.129823" style="fill: #1f77b4; stroke: #1f77b4"/>
     <use xlink:href="#m9bd7ee5ff4" x="403.191262" y="366.417261" style="fill: #1f77b4; stroke: #1f77b4"/>
     <use xlink:href="#m9bd7ee5ff4" x="405.9" y="366.351159" style="fill: #1f77b4; stroke: #1f77b4"/>
     <use xlink:href="#m9bd7ee5ff4" x="408.608738" y="332.036071" style="fill: #1f77b4; stroke: #1f77b4"/>
     <use xlink:href="#m9bd7ee5ff4" x="411.317476" y="342.523539" style="fill: #1f77b4; stroke: #1f77b4"/>
     <use xlink:href="#m9bd7ee5ff4" x="414.026214" y="369.518076" style="fill: #1f77b4; stroke: #1f77b4"/>
     <use xlink:href="#m9bd7ee5ff4" x="416.734951" y="368.084311" style="fill: #1f77b4; stroke: #1f77b4"/>
     <use xlink:href="#m9bd7ee5ff4" x="419.443689" y="367.367947" style="fill: #1f77b4; stroke: #1f77b4"/>
     <use xlink:href="#m9bd7ee5ff4" x="422.152427" y="366.550722" style="fill: #1f77b4; stroke: #1f77b4"/>
     <use xlink:href="#m9bd7ee5ff4" x="424.861165" y="359.512408" style="fill: #1f77b4; stroke: #1f77b4"/>
     <use xlink:href="#m9bd7ee5ff4" x="427.569903" y="357.178308" style="fill: #1f77b4; stroke: #1f77b4"/>
     <use xlink:href="#m9bd7ee5ff4" x="430.278641" y="362.05162" style="fill: #1f77b4; stroke: #1f77b4"/>
     <use xlink:href="#m9bd7ee5ff4" x="432.987379" y="362.987905" style="fill: #1f77b4; stroke: #1f77b4"/>
     <use xlink:href="#m9bd7ee5ff4" x="435.696117" y="364.171146" style="fill: #1f77b4; stroke: #1f77b4"/>
     <use xlink:href="#m9bd7ee5ff4" x="438.404854" y="364.41794" style="fill: #1f77b4; stroke: #1f77b4"/>
     <use xlink:href="#m9bd7ee5ff4" x="441.113592" y="364.295875" style="fill: #1f77b4; stroke: #1f77b4"/>
     <use xlink:href="#m9bd7ee5ff4" x="443.82233" y="351.40472" style="fill: #1f77b4; stroke: #1f77b4"/>
     <use xlink:href="#m9bd7ee5ff4" x="446.531068" y="354.15145" style="fill: #1f77b4; stroke: #1f77b4"/>
     <use xlink:href="#m9bd7ee5ff4" x="449.239806" y="358.74201" style="fill: #1f77b4; stroke: #1f77b4"/>
     <use xlink:href="#m9bd7ee5ff4" x="451.948544" y="368.734928" style="fill: #1f77b4; stroke: #1f77b4"/>
     <use xlink:href="#m9bd7ee5ff4" x="454.657282" y="349.538853" style="fill: #1f77b4; stroke: #1f77b4"/>
     <use xlink:href="#m9bd7ee5ff4" x="457.366019" y="350.860611" style="fill: #1f77b4; stroke: #1f77b4"/>
     <use xlink:href="#m9bd7ee5ff4" x="460.074757" y="340.62441" style="fill: #1f77b4; stroke: #1f77b4"/>
     <use xlink:href="#m9bd7ee5ff4" x="462.783495" y="344.727136" style="fill: #1f77b4; stroke: #1f77b4"/>
     <use xlink:href="#m9bd7ee5ff4" x="465.492233" y="353.592092" style="fill: #1f77b4; stroke: #1f77b4"/>
     <use xlink:href="#m9bd7ee5ff4" x="468.200971" y="373.126925" style="fill: #1f77b4; stroke: #1f77b4"/>
     <use xlink:href="#m9bd7ee5ff4" x="470.909709" y="371.658855" style="fill: #1f77b4; stroke: #1f77b4"/>
     <use xlink:href="#m9bd7ee5ff4" x="473.618447" y="357.314163" style="fill: #1f77b4; stroke: #1f77b4"/>
     <use xlink:href="#m9bd7ee5ff4" x="476.327184" y="363.620994" style="fill: #1f77b4; stroke: #1f77b4"/>
     <use xlink:href="#m9bd7ee5ff4" x="479.035922" y="371.416002" style="fill: #1f77b4; stroke: #1f77b4"/>
     <use xlink:href="#m9bd7ee5ff4" x="481.74466" y="366.559621" style="fill: #1f77b4; stroke: #1f77b4"/>
     <use xlink:href="#m9bd7ee5ff4" x="484.453398" y="368.916299" style="fill: #1f77b4; stroke: #1f77b4"/>
     <use xlink:href="#m9bd7ee5ff4" x="487.162136" y="349.816942" style="fill: #1f77b4; stroke: #1f77b4"/>
     <use xlink:href="#m9bd7ee5ff4" x="489.870874" y="369.587779" style="fill: #1f77b4; stroke: #1f77b4"/>
     <use xlink:href="#m9bd7ee5ff4" x="492.579612" y="371.443325" style="fill: #1f77b4; stroke: #1f77b4"/>
     <use xlink:href="#m9bd7ee5ff4" x="495.28835" y="366.779009" style="fill: #1f77b4; stroke: #1f77b4"/>
     <use xlink:href="#m9bd7ee5ff4" x="497.997087" y="350.126172" style="fill: #1f77b4; stroke: #1f77b4"/>
     <use xlink:href="#m9bd7ee5ff4" x="500.705825" y="349.129929" style="fill: #1f77b4; stroke: #1f77b4"/>
     <use xlink:href="#m9bd7ee5ff4" x="503.414563" y="362.026263" style="fill: #1f77b4; stroke: #1f77b4"/>
     <use xlink:href="#m9bd7ee5ff4" x="506.123301" y="334.695063" style="fill: #1f77b4; stroke: #1f77b4"/>
     <use xlink:href="#m9bd7ee5ff4" x="508.832039" y="331.110012" style="fill: #1f77b4; stroke: #1f77b4"/>
     <use xlink:href="#m9bd7ee5ff4" x="511.540777" y="323.250869" style="fill: #1f77b4; stroke: #1f77b4"/>
     <use xlink:href="#m9bd7ee5ff4" x="514.249515" y="318.256425" style="fill: #1f77b4; stroke: #1f77b4"/>
     <use xlink:href="#m9bd7ee5ff4" x="516.958252" y="297.716314" style="fill: #1f77b4; stroke: #1f77b4"/>
     <use xlink:href="#m9bd7ee5ff4" x="519.66699" y="308.880257" style="fill: #1f77b4; stroke: #1f77b4"/>
     <use xlink:href="#m9bd7ee5ff4" x="522.375728" y="363.382208" style="fill: #1f77b4; stroke: #1f77b4"/>
     <use xlink:href="#m9bd7ee5ff4" x="525.084466" y="343.822284" style="fill: #1f77b4; stroke: #1f77b4"/>
     <use xlink:href="#m9bd7ee5ff4" x="527.793204" y="315.513594" style="fill: #1f77b4; stroke: #1f77b4"/>
     <use xlink:href="#m9bd7ee5ff4" x="530.501942" y="348.360032" style="fill: #1f77b4; stroke: #1f77b4"/>
     <use xlink:href="#m9bd7ee5ff4" x="533.21068" y="369.834135" style="fill: #1f77b4; stroke: #1f77b4"/>
     <use xlink:href="#m9bd7ee5ff4" x="535.919417" y="369.032164" style="fill: #1f77b4; stroke: #1f77b4"/>
     <use xlink:href="#m9bd7ee5ff4" x="538.628155" y="368.543901" style="fill: #1f77b4; stroke: #1f77b4"/>
     <use xlink:href="#m9bd7ee5ff4" x="541.336893" y="367.015791" style="fill: #1f77b4; stroke: #1f77b4"/>
     <use xlink:href="#m9bd7ee5ff4" x="544.045631" y="365.580678" style="fill: #1f77b4; stroke: #1f77b4"/>
     <use xlink:href="#m9bd7ee5ff4" x="546.754369" y="360.572662" style="fill: #1f77b4; stroke: #1f77b4"/>
     <use xlink:href="#m9bd7ee5ff4" x="549.463107" y="367.941887" style="fill: #1f77b4; stroke: #1f77b4"/>
     <use xlink:href="#m9bd7ee5ff4" x="552.171845" y="367.976" style="fill: #1f77b4; stroke: #1f77b4"/>
     <use xlink:href="#m9bd7ee5ff4" x="554.880583" y="361.397141" style="fill: #1f77b4; stroke: #1f77b4"/>
     <use xlink:href="#m9bd7ee5ff4" x="557.58932" y="363.077132" style="fill: #1f77b4; stroke: #1f77b4"/>
     <use xlink:href="#m9bd7ee5ff4" x="560.298058" y="359.396469" style="fill: #1f77b4; stroke: #1f77b4"/>
     <use xlink:href="#m9bd7ee5ff4" x="563.006796" y="358.941371" style="fill: #1f77b4; stroke: #1f77b4"/>
     <use xlink:href="#m9bd7ee5ff4" x="565.715534" y="353.485448" style="fill: #1f77b4; stroke: #1f77b4"/>
     <use xlink:href="#m9bd7ee5ff4" x="568.424272" y="358.109212" style="fill: #1f77b4; stroke: #1f77b4"/>
     <use xlink:href="#m9bd7ee5ff4" x="571.13301" y="357.008968" style="fill: #1f77b4; stroke: #1f77b4"/>
     <use xlink:href="#m9bd7ee5ff4" x="573.841748" y="358.2058" style="fill: #1f77b4; stroke: #1f77b4"/>
     <use xlink:href="#m9bd7ee5ff4" x="576.550485" y="366.964669" style="fill: #1f77b4; stroke: #1f77b4"/>
     <use xlink:href="#m9bd7ee5ff4" x="579.259223" y="369.435294" style="fill: #1f77b4; stroke: #1f77b4"/>
     <use xlink:href="#m9bd7ee5ff4" x="581.967961" y="362.097088" style="fill: #1f77b4; stroke: #1f77b4"/>
     <use xlink:href="#m9bd7ee5ff4" x="584.676699" y="364.012843" style="fill: #1f77b4; stroke: #1f77b4"/>
     <use xlink:href="#m9bd7ee5ff4" x="587.385437" y="364.167022" style="fill: #1f77b4; stroke: #1f77b4"/>
     <use xlink:href="#m9bd7ee5ff4" x="590.094175" y="361.778562" style="fill: #1f77b4; stroke: #1f77b4"/>
     <use xlink:href="#m9bd7ee5ff4" x="592.802913" y="363.331322" style="fill: #1f77b4; stroke: #1f77b4"/>
     <use xlink:href="#m9bd7ee5ff4" x="595.51165" y="366.177769" style="fill: #1f77b4; stroke: #1f77b4"/>
     <use xlink:href="#m9bd7ee5ff4" x="598.220388" y="359.671673" style="fill: #1f77b4; stroke: #1f77b4"/>
     <use xlink:href="#m9bd7ee5ff4" x="600.929126" y="360.435671" style="fill: #1f77b4; stroke: #1f77b4"/>
     <use xlink:href="#m9bd7ee5ff4" x="603.637864" y="360.046723" style="fill: #1f77b4; stroke: #1f77b4"/>
     <use xlink:href="#m9bd7ee5ff4" x="606.346602" y="352.179187" style="fill: #1f77b4; stroke: #1f77b4"/>
     <use xlink:href="#m9bd7ee5ff4" x="609.05534" y="356.735934" style="fill: #1f77b4; stroke: #1f77b4"/>
     <use xlink:href="#m9bd7ee5ff4" x="611.764078" y="354.566656" style="fill: #1f77b4; stroke: #1f77b4"/>
     <use xlink:href="#m9bd7ee5ff4" x="614.472816" y="361.520069" style="fill: #1f77b4; stroke: #1f77b4"/>
     <use xlink:href="#m9bd7ee5ff4" x="617.181553" y="342.441461" style="fill: #1f77b4; stroke: #1f77b4"/>
     <use xlink:href="#m9bd7ee5ff4" x="619.890291" y="368.553524" style="fill: #1f77b4; stroke: #1f77b4"/>
     <use xlink:href="#m9bd7ee5ff4" x="622.599029" y="336.250201" style="fill: #1f77b4; stroke: #1f77b4"/>
     <use xlink:href="#m9bd7ee5ff4" x="625.307767" y="308.87583" style="fill: #1f77b4; stroke: #1f77b4"/>
     <use xlink:href="#m9bd7ee5ff4" x="628.016505" y="309.658138" style="fill: #1f77b4; stroke: #1f77b4"/>
     <use xlink:href="#m9bd7ee5ff4" x="630.725243" y="319.05633" style="fill: #1f77b4; stroke: #1f77b4"/>
     <use xlink:href="#m9bd7ee5ff4" x="633.433981" y="316.025862" style="fill: #1f77b4; stroke: #1f77b4"/>
     <use xlink:href="#m9bd7ee5ff4" x="636.142718" y="310.695054" style="fill: #1f77b4; stroke: #1f77b4"/>
     <use xlink:href="#m9bd7ee5ff4" x="638.851456" y="314.636121" style="fill: #1f77b4; stroke: #1f77b4"/>
     <use xlink:href="#m9bd7ee5ff4" x="641.560194" y="330.895712" style="fill: #1f77b4; stroke: #1f77b4"/>
     <use xlink:href="#m9bd7ee5ff4" x="644.268932" y="364.419903" style="fill: #1f77b4; stroke: #1f77b4"/>
     <use xlink:href="#m9bd7ee5ff4" x="646.97767" y="360.077032" style="fill: #1f77b4; stroke: #1f77b4"/>
     <use xlink:href="#m9bd7ee5ff4" x="649.686408" y="352.72272" style="fill: #1f77b4; stroke: #1f77b4"/>
     <use xlink:href="#m9bd7ee5ff4" x="652.395146" y="353.49018" style="fill: #1f77b4; stroke: #1f77b4"/>
     <use xlink:href="#m9bd7ee5ff4" x="655.103883" y="347.787666" style="fill: #1f77b4; stroke: #1f77b4"/>
     <use xlink:href="#m9bd7ee5ff4" x="657.812621" y="354.386838" style="fill: #1f77b4; stroke: #1f77b4"/>
     <use xlink:href="#m9bd7ee5ff4" x="660.521359" y="359.93275" style="fill: #1f77b4; stroke: #1f77b4"/>
     <use xlink:href="#m9bd7ee5ff4" x="663.230097" y="361.881938" style="fill: #1f77b4; stroke: #1f77b4"/>
     <use xlink:href="#m9bd7ee5ff4" x="665.938835" y="349.373991" style="fill: #1f77b4; stroke: #1f77b4"/>
     <use xlink:href="#m9bd7ee5ff4" x="668.647573" y="352.488152" style="fill: #1f77b4; stroke: #1f77b4"/>
     <use xlink:href="#m9bd7ee5ff4" x="671.356311" y="343.222838" style="fill: #1f77b4; stroke: #1f77b4"/>
     <use xlink:href="#m9bd7ee5ff4" x="674.065049" y="352.990804" style="fill: #1f77b4; stroke: #1f77b4"/>
     <use xlink:href="#m9bd7ee5ff4" x="676.773786" y="360.949635" style="fill: #1f77b4; stroke: #1f77b4"/>
     <use xlink:href="#m9bd7ee5ff4" x="679.482524" y="357.319196" style="fill: #1f77b4; stroke: #1f77b4"/>
     <use xlink:href="#m9bd7ee5ff4" x="682.191262" y="361.32248" style="fill: #1f77b4; stroke: #1f77b4"/>
     <use xlink:href="#m9bd7ee5ff4" x="684.9" y="364.527978" style="fill: #1f77b4; stroke: #1f77b4"/>
    </g>
   </g>
   <g id="matplotlib.axis_1">
    <g id="xtick_1">
     <g id="line2d_1">
      <path d="M 126.9 378 
L 126.9 51.84 
" clip-path="url(#p3a21dcdc89)" style="fill: none; stroke: #b0b0b0; stroke-width: 0.8; stroke-linecap: square"/>
     </g>
     <g id="line2d_2">
      <defs>
       <path id="m30dbe2f788" d="M 0 0 
L 0 3.5 
" style="stroke: #000000; stroke-width: 0.8"/>
      </defs>
      <g>
       <use xlink:href="#m30dbe2f788" x="126.9" y="378" style="stroke: #000000; stroke-width: 0.8"/>
      </g>
     </g>
     <g id="text_1">
      <!-- 0 -->
      <g transform="translate(123.71875 392.598437)scale(0.1 -0.1)">
       <defs>
        <path id="DejaVuSans-30" d="M 2034 4250 
Q 1547 4250 1301 3770 
Q 1056 3291 1056 2328 
Q 1056 1369 1301 889 
Q 1547 409 2034 409 
Q 2525 409 2770 889 
Q 3016 1369 3016 2328 
Q 3016 3291 2770 3770 
Q 2525 4250 2034 4250 
z
M 2034 4750 
Q 2819 4750 3233 4129 
Q 3647 3509 3647 2328 
Q 3647 1150 3233 529 
Q 2819 -91 2034 -91 
Q 1250 -91 836 529 
Q 422 1150 422 2328 
Q 422 3509 836 4129 
Q 1250 4750 2034 4750 
z
" transform="scale(0.015625)"/>
       </defs>
       <use xlink:href="#DejaVuSans-30"/>
      </g>
     </g>
    </g>
    <g id="xtick_2">
     <g id="line2d_3">
      <path d="M 181.074757 378 
L 181.074757 51.84 
" clip-path="url(#p3a21dcdc89)" style="fill: none; stroke: #b0b0b0; stroke-width: 0.8; stroke-linecap: square"/>
     </g>
     <g id="line2d_4">
      <g>
       <use xlink:href="#m30dbe2f788" x="181.074757" y="378" style="stroke: #000000; stroke-width: 0.8"/>
      </g>
     </g>
     <g id="text_2">
      <!-- 20 -->
      <g transform="translate(174.712257 392.598437)scale(0.1 -0.1)">
       <defs>
        <path id="DejaVuSans-32" d="M 1228 531 
L 3431 531 
L 3431 0 
L 469 0 
L 469 531 
Q 828 903 1448 1529 
Q 2069 2156 2228 2338 
Q 2531 2678 2651 2914 
Q 2772 3150 2772 3378 
Q 2772 3750 2511 3984 
Q 2250 4219 1831 4219 
Q 1534 4219 1204 4116 
Q 875 4013 500 3803 
L 500 4441 
Q 881 4594 1212 4672 
Q 1544 4750 1819 4750 
Q 2544 4750 2975 4387 
Q 3406 4025 3406 3419 
Q 3406 3131 3298 2873 
Q 3191 2616 2906 2266 
Q 2828 2175 2409 1742 
Q 1991 1309 1228 531 
z
" transform="scale(0.015625)"/>
       </defs>
       <use xlink:href="#DejaVuSans-32"/>
       <use xlink:href="#DejaVuSans-30" x="63.623047"/>
      </g>
     </g>
    </g>
    <g id="xtick_3">
     <g id="line2d_5">
      <path d="M 235.249515 378 
L 235.249515 51.84 
" clip-path="url(#p3a21dcdc89)" style="fill: none; stroke: #b0b0b0; stroke-width: 0.8; stroke-linecap: square"/>
     </g>
     <g id="line2d_6">
      <g>
       <use xlink:href="#m30dbe2f788" x="235.249515" y="378" style="stroke: #000000; stroke-width: 0.8"/>
      </g>
     </g>
     <g id="text_3">
      <!-- 40 -->
      <g transform="translate(228.887015 392.598437)scale(0.1 -0.1)">
       <defs>
        <path id="DejaVuSans-34" d="M 2419 4116 
L 825 1625 
L 2419 1625 
L 2419 4116 
z
M 2253 4666 
L 3047 4666 
L 3047 1625 
L 3713 1625 
L 3713 1100 
L 3047 1100 
L 3047 0 
L 2419 0 
L 2419 1100 
L 313 1100 
L 313 1709 
L 2253 4666 
z
" transform="scale(0.015625)"/>
       </defs>
       <use xlink:href="#DejaVuSans-34"/>
       <use xlink:href="#DejaVuSans-30" x="63.623047"/>
      </g>
     </g>
    </g>
    <g id="xtick_4">
     <g id="line2d_7">
      <path d="M 289.424272 378 
L 289.424272 51.84 
" clip-path="url(#p3a21dcdc89)" style="fill: none; stroke: #b0b0b0; stroke-width: 0.8; stroke-linecap: square"/>
     </g>
     <g id="line2d_8">
      <g>
       <use xlink:href="#m30dbe2f788" x="289.424272" y="378" style="stroke: #000000; stroke-width: 0.8"/>
      </g>
     </g>
     <g id="text_4">
      <!-- 60 -->
      <g transform="translate(283.061772 392.598437)scale(0.1 -0.1)">
       <defs>
        <path id="DejaVuSans-36" d="M 2113 2584 
Q 1688 2584 1439 2293 
Q 1191 2003 1191 1497 
Q 1191 994 1439 701 
Q 1688 409 2113 409 
Q 2538 409 2786 701 
Q 3034 994 3034 1497 
Q 3034 2003 2786 2293 
Q 2538 2584 2113 2584 
z
M 3366 4563 
L 3366 3988 
Q 3128 4100 2886 4159 
Q 2644 4219 2406 4219 
Q 1781 4219 1451 3797 
Q 1122 3375 1075 2522 
Q 1259 2794 1537 2939 
Q 1816 3084 2150 3084 
Q 2853 3084 3261 2657 
Q 3669 2231 3669 1497 
Q 3669 778 3244 343 
Q 2819 -91 2113 -91 
Q 1303 -91 875 529 
Q 447 1150 447 2328 
Q 447 3434 972 4092 
Q 1497 4750 2381 4750 
Q 2619 4750 2861 4703 
Q 3103 4656 3366 4563 
z
" transform="scale(0.015625)"/>
       </defs>
       <use xlink:href="#DejaVuSans-36"/>
       <use xlink:href="#DejaVuSans-30" x="63.623047"/>
      </g>
     </g>
    </g>
    <g id="xtick_5">
     <g id="line2d_9">
      <path d="M 343.599029 378 
L 343.599029 51.84 
" clip-path="url(#p3a21dcdc89)" style="fill: none; stroke: #b0b0b0; stroke-width: 0.8; stroke-linecap: square"/>
     </g>
     <g id="line2d_10">
      <g>
       <use xlink:href="#m30dbe2f788" x="343.599029" y="378" style="stroke: #000000; stroke-width: 0.8"/>
      </g>
     </g>
     <g id="text_5">
      <!-- 80 -->
      <g transform="translate(337.236529 392.598437)scale(0.1 -0.1)">
       <defs>
        <path id="DejaVuSans-38" d="M 2034 2216 
Q 1584 2216 1326 1975 
Q 1069 1734 1069 1313 
Q 1069 891 1326 650 
Q 1584 409 2034 409 
Q 2484 409 2743 651 
Q 3003 894 3003 1313 
Q 3003 1734 2745 1975 
Q 2488 2216 2034 2216 
z
M 1403 2484 
Q 997 2584 770 2862 
Q 544 3141 544 3541 
Q 544 4100 942 4425 
Q 1341 4750 2034 4750 
Q 2731 4750 3128 4425 
Q 3525 4100 3525 3541 
Q 3525 3141 3298 2862 
Q 3072 2584 2669 2484 
Q 3125 2378 3379 2068 
Q 3634 1759 3634 1313 
Q 3634 634 3220 271 
Q 2806 -91 2034 -91 
Q 1263 -91 848 271 
Q 434 634 434 1313 
Q 434 1759 690 2068 
Q 947 2378 1403 2484 
z
M 1172 3481 
Q 1172 3119 1398 2916 
Q 1625 2713 2034 2713 
Q 2441 2713 2670 2916 
Q 2900 3119 2900 3481 
Q 2900 3844 2670 4047 
Q 2441 4250 2034 4250 
Q 1625 4250 1398 4047 
Q 1172 3844 1172 3481 
z
" transform="scale(0.015625)"/>
       </defs>
       <use xlink:href="#DejaVuSans-38"/>
       <use xlink:href="#DejaVuSans-30" x="63.623047"/>
      </g>
     </g>
    </g>
    <g id="xtick_6">
     <g id="line2d_11">
      <path d="M 397.773786 378 
L 397.773786 51.84 
" clip-path="url(#p3a21dcdc89)" style="fill: none; stroke: #b0b0b0; stroke-width: 0.8; stroke-linecap: square"/>
     </g>
     <g id="line2d_12">
      <g>
       <use xlink:href="#m30dbe2f788" x="397.773786" y="378" style="stroke: #000000; stroke-width: 0.8"/>
      </g>
     </g>
     <g id="text_6">
      <!-- 100 -->
      <g transform="translate(388.230036 392.598437)scale(0.1 -0.1)">
       <defs>
        <path id="DejaVuSans-31" d="M 794 531 
L 1825 531 
L 1825 4091 
L 703 3866 
L 703 4441 
L 1819 4666 
L 2450 4666 
L 2450 531 
L 3481 531 
L 3481 0 
L 794 0 
L 794 531 
z
" transform="scale(0.015625)"/>
       </defs>
       <use xlink:href="#DejaVuSans-31"/>
       <use xlink:href="#DejaVuSans-30" x="63.623047"/>
       <use xlink:href="#DejaVuSans-30" x="127.246094"/>
      </g>
     </g>
    </g>
    <g id="xtick_7">
     <g id="line2d_13">
      <path d="M 451.948544 378 
L 451.948544 51.84 
" clip-path="url(#p3a21dcdc89)" style="fill: none; stroke: #b0b0b0; stroke-width: 0.8; stroke-linecap: square"/>
     </g>
     <g id="line2d_14">
      <g>
       <use xlink:href="#m30dbe2f788" x="451.948544" y="378" style="stroke: #000000; stroke-width: 0.8"/>
      </g>
     </g>
     <g id="text_7">
      <!-- 120 -->
      <g transform="translate(442.404794 392.598437)scale(0.1 -0.1)">
       <use xlink:href="#DejaVuSans-31"/>
       <use xlink:href="#DejaVuSans-32" x="63.623047"/>
       <use xlink:href="#DejaVuSans-30" x="127.246094"/>
      </g>
     </g>
    </g>
    <g id="xtick_8">
     <g id="line2d_15">
      <path d="M 506.123301 378 
L 506.123301 51.84 
" clip-path="url(#p3a21dcdc89)" style="fill: none; stroke: #b0b0b0; stroke-width: 0.8; stroke-linecap: square"/>
     </g>
     <g id="line2d_16">
      <g>
       <use xlink:href="#m30dbe2f788" x="506.123301" y="378" style="stroke: #000000; stroke-width: 0.8"/>
      </g>
     </g>
     <g id="text_8">
      <!-- 140 -->
      <g transform="translate(496.579551 392.598437)scale(0.1 -0.1)">
       <use xlink:href="#DejaVuSans-31"/>
       <use xlink:href="#DejaVuSans-34" x="63.623047"/>
       <use xlink:href="#DejaVuSans-30" x="127.246094"/>
      </g>
     </g>
    </g>
    <g id="xtick_9">
     <g id="line2d_17">
      <path d="M 560.298058 378 
L 560.298058 51.84 
" clip-path="url(#p3a21dcdc89)" style="fill: none; stroke: #b0b0b0; stroke-width: 0.8; stroke-linecap: square"/>
     </g>
     <g id="line2d_18">
      <g>
       <use xlink:href="#m30dbe2f788" x="560.298058" y="378" style="stroke: #000000; stroke-width: 0.8"/>
      </g>
     </g>
     <g id="text_9">
      <!-- 160 -->
      <g transform="translate(550.754308 392.598437)scale(0.1 -0.1)">
       <use xlink:href="#DejaVuSans-31"/>
       <use xlink:href="#DejaVuSans-36" x="63.623047"/>
       <use xlink:href="#DejaVuSans-30" x="127.246094"/>
      </g>
     </g>
    </g>
    <g id="xtick_10">
     <g id="line2d_19">
      <path d="M 614.472816 378 
L 614.472816 51.84 
" clip-path="url(#p3a21dcdc89)" style="fill: none; stroke: #b0b0b0; stroke-width: 0.8; stroke-linecap: square"/>
     </g>
     <g id="line2d_20">
      <g>
       <use xlink:href="#m30dbe2f788" x="614.472816" y="378" style="stroke: #000000; stroke-width: 0.8"/>
      </g>
     </g>
     <g id="text_10">
      <!-- 180 -->
      <g transform="translate(604.929066 392.598437)scale(0.1 -0.1)">
       <use xlink:href="#DejaVuSans-31"/>
       <use xlink:href="#DejaVuSans-38" x="63.623047"/>
       <use xlink:href="#DejaVuSans-30" x="127.246094"/>
      </g>
     </g>
    </g>
    <g id="xtick_11">
     <g id="line2d_21">
      <path d="M 668.647573 378 
L 668.647573 51.84 
" clip-path="url(#p3a21dcdc89)" style="fill: none; stroke: #b0b0b0; stroke-width: 0.8; stroke-linecap: square"/>
     </g>
     <g id="line2d_22">
      <g>
       <use xlink:href="#m30dbe2f788" x="668.647573" y="378" style="stroke: #000000; stroke-width: 0.8"/>
      </g>
     </g>
     <g id="text_11">
      <!-- 200 -->
      <g transform="translate(659.103823 392.598437)scale(0.1 -0.1)">
       <use xlink:href="#DejaVuSans-32"/>
       <use xlink:href="#DejaVuSans-30" x="63.623047"/>
       <use xlink:href="#DejaVuSans-30" x="127.246094"/>
      </g>
     </g>
    </g>
    <g id="text_12">
     <!-- Residue no. -->
     <g transform="translate(376.842188 406.276563)scale(0.1 -0.1)">
      <defs>
       <path id="DejaVuSans-52" d="M 2841 2188 
Q 3044 2119 3236 1894 
Q 3428 1669 3622 1275 
L 4263 0 
L 3584 0 
L 2988 1197 
Q 2756 1666 2539 1819 
Q 2322 1972 1947 1972 
L 1259 1972 
L 1259 0 
L 628 0 
L 628 4666 
L 2053 4666 
Q 2853 4666 3247 4331 
Q 3641 3997 3641 3322 
Q 3641 2881 3436 2590 
Q 3231 2300 2841 2188 
z
M 1259 4147 
L 1259 2491 
L 2053 2491 
Q 2509 2491 2742 2702 
Q 2975 2913 2975 3322 
Q 2975 3731 2742 3939 
Q 2509 4147 2053 4147 
L 1259 4147 
z
" transform="scale(0.015625)"/>
       <path id="DejaVuSans-65" d="M 3597 1894 
L 3597 1613 
L 953 1613 
Q 991 1019 1311 708 
Q 1631 397 2203 397 
Q 2534 397 2845 478 
Q 3156 559 3463 722 
L 3463 178 
Q 3153 47 2828 -22 
Q 2503 -91 2169 -91 
Q 1331 -91 842 396 
Q 353 884 353 1716 
Q 353 2575 817 3079 
Q 1281 3584 2069 3584 
Q 2775 3584 3186 3129 
Q 3597 2675 3597 1894 
z
M 3022 2063 
Q 3016 2534 2758 2815 
Q 2500 3097 2075 3097 
Q 1594 3097 1305 2825 
Q 1016 2553 972 2059 
L 3022 2063 
z
" transform="scale(0.015625)"/>
       <path id="DejaVuSans-73" d="M 2834 3397 
L 2834 2853 
Q 2591 2978 2328 3040 
Q 2066 3103 1784 3103 
Q 1356 3103 1142 2972 
Q 928 2841 928 2578 
Q 928 2378 1081 2264 
Q 1234 2150 1697 2047 
L 1894 2003 
Q 2506 1872 2764 1633 
Q 3022 1394 3022 966 
Q 3022 478 2636 193 
Q 2250 -91 1575 -91 
Q 1294 -91 989 -36 
Q 684 19 347 128 
L 347 722 
Q 666 556 975 473 
Q 1284 391 1588 391 
Q 1994 391 2212 530 
Q 2431 669 2431 922 
Q 2431 1156 2273 1281 
Q 2116 1406 1581 1522 
L 1381 1569 
Q 847 1681 609 1914 
Q 372 2147 372 2553 
Q 372 3047 722 3315 
Q 1072 3584 1716 3584 
Q 2034 3584 2315 3537 
Q 2597 3491 2834 3397 
z
" transform="scale(0.015625)"/>
       <path id="DejaVuSans-69" d="M 603 3500 
L 1178 3500 
L 1178 0 
L 603 0 
L 603 3500 
z
M 603 4863 
L 1178 4863 
L 1178 4134 
L 603 4134 
L 603 4863 
z
" transform="scale(0.015625)"/>
       <path id="DejaVuSans-64" d="M 2906 2969 
L 2906 4863 
L 3481 4863 
L 3481 0 
L 2906 0 
L 2906 525 
Q 2725 213 2448 61 
Q 2172 -91 1784 -91 
Q 1150 -91 751 415 
Q 353 922 353 1747 
Q 353 2572 751 3078 
Q 1150 3584 1784 3584 
Q 2172 3584 2448 3432 
Q 2725 3281 2906 2969 
z
M 947 1747 
Q 947 1113 1208 752 
Q 1469 391 1925 391 
Q 2381 391 2643 752 
Q 2906 1113 2906 1747 
Q 2906 2381 2643 2742 
Q 2381 3103 1925 3103 
Q 1469 3103 1208 2742 
Q 947 2381 947 1747 
z
" transform="scale(0.015625)"/>
       <path id="DejaVuSans-75" d="M 544 1381 
L 544 3500 
L 1119 3500 
L 1119 1403 
Q 1119 906 1312 657 
Q 1506 409 1894 409 
Q 2359 409 2629 706 
Q 2900 1003 2900 1516 
L 2900 3500 
L 3475 3500 
L 3475 0 
L 2900 0 
L 2900 538 
Q 2691 219 2414 64 
Q 2138 -91 1772 -91 
Q 1169 -91 856 284 
Q 544 659 544 1381 
z
M 1991 3584 
L 1991 3584 
z
" transform="scale(0.015625)"/>
       <path id="DejaVuSans-20" transform="scale(0.015625)"/>
       <path id="DejaVuSans-6e" d="M 3513 2113 
L 3513 0 
L 2938 0 
L 2938 2094 
Q 2938 2591 2744 2837 
Q 2550 3084 2163 3084 
Q 1697 3084 1428 2787 
Q 1159 2491 1159 1978 
L 1159 0 
L 581 0 
L 581 3500 
L 1159 3500 
L 1159 2956 
Q 1366 3272 1645 3428 
Q 1925 3584 2291 3584 
Q 2894 3584 3203 3211 
Q 3513 2838 3513 2113 
z
" transform="scale(0.015625)"/>
       <path id="DejaVuSans-6f" d="M 1959 3097 
Q 1497 3097 1228 2736 
Q 959 2375 959 1747 
Q 959 1119 1226 758 
Q 1494 397 1959 397 
Q 2419 397 2687 759 
Q 2956 1122 2956 1747 
Q 2956 2369 2687 2733 
Q 2419 3097 1959 3097 
z
M 1959 3584 
Q 2709 3584 3137 3096 
Q 3566 2609 3566 1747 
Q 3566 888 3137 398 
Q 2709 -91 1959 -91 
Q 1206 -91 779 398 
Q 353 888 353 1747 
Q 353 2609 779 3096 
Q 1206 3584 1959 3584 
z
" transform="scale(0.015625)"/>
       <path id="DejaVuSans-2e" d="M 684 794 
L 1344 794 
L 1344 0 
L 684 0 
L 684 794 
z
" transform="scale(0.015625)"/>
      </defs>
      <use xlink:href="#DejaVuSans-52"/>
      <use xlink:href="#DejaVuSans-65" x="64.982422"/>
      <use xlink:href="#DejaVuSans-73" x="126.505859"/>
      <use xlink:href="#DejaVuSans-69" x="178.605469"/>
      <use xlink:href="#DejaVuSans-64" x="206.388672"/>
      <use xlink:href="#DejaVuSans-75" x="269.865234"/>
      <use xlink:href="#DejaVuSans-65" x="333.244141"/>
      <use xlink:href="#DejaVuSans-20" x="394.767578"/>
      <use xlink:href="#DejaVuSans-6e" x="426.554688"/>
      <use xlink:href="#DejaVuSans-6f" x="489.933594"/>
      <use xlink:href="#DejaVuSans-2e" x="549.365234"/>
     </g>
    </g>
   </g>
   <g id="matplotlib.axis_2">
    <g id="ytick_1">
     <g id="line2d_23">
      <path d="M 99 378 
L 712.8 378 
" clip-path="url(#p3a21dcdc89)" style="fill: none; stroke: #b0b0b0; stroke-width: 0.8; stroke-linecap: square"/>
     </g>
     <g id="line2d_24">
      <defs>
       <path id="m8100d4c755" d="M 0 0 
L -3.5 0 
" style="stroke: #000000; stroke-width: 0.8"/>
      </defs>
      <g>
       <use xlink:href="#m8100d4c755" x="99" y="378" style="stroke: #000000; stroke-width: 0.8"/>
      </g>
     </g>
     <g id="text_13">
      <!-- 0 -->
      <g transform="translate(85.6375 381.799219)scale(0.1 -0.1)">
       <use xlink:href="#DejaVuSans-30"/>
      </g>
     </g>
    </g>
    <g id="ytick_2">
     <g id="line2d_25">
      <path d="M 99 332.608515 
L 712.8 332.608515 
" clip-path="url(#p3a21dcdc89)" style="fill: none; stroke: #b0b0b0; stroke-width: 0.8; stroke-linecap: square"/>
     </g>
     <g id="line2d_26">
      <g>
       <use xlink:href="#m8100d4c755" x="99" y="332.608515" style="stroke: #000000; stroke-width: 0.8"/>
      </g>
     </g>
     <g id="text_14">
      <!-- 1 -->
      <g transform="translate(85.6375 336.407734)scale(0.1 -0.1)">
       <use xlink:href="#DejaVuSans-31"/>
      </g>
     </g>
    </g>
    <g id="ytick_3">
     <g id="line2d_27">
      <path d="M 99 287.217031 
L 712.8 287.217031 
" clip-path="url(#p3a21dcdc89)" style="fill: none; stroke: #b0b0b0; stroke-width: 0.8; stroke-linecap: square"/>
     </g>
     <g id="line2d_28">
      <g>
       <use xlink:href="#m8100d4c755" x="99" y="287.217031" style="stroke: #000000; stroke-width: 0.8"/>
      </g>
     </g>
     <g id="text_15">
      <!-- 2 -->
      <g transform="translate(85.6375 291.016249)scale(0.1 -0.1)">
       <use xlink:href="#DejaVuSans-32"/>
      </g>
     </g>
    </g>
    <g id="ytick_4">
     <g id="line2d_29">
      <path d="M 99 241.825546 
L 712.8 241.825546 
" clip-path="url(#p3a21dcdc89)" style="fill: none; stroke: #b0b0b0; stroke-width: 0.8; stroke-linecap: square"/>
     </g>
     <g id="line2d_30">
      <g>
       <use xlink:href="#m8100d4c755" x="99" y="241.825546" style="stroke: #000000; stroke-width: 0.8"/>
      </g>
     </g>
     <g id="text_16">
      <!-- 3 -->
      <g transform="translate(85.6375 245.624765)scale(0.1 -0.1)">
       <defs>
        <path id="DejaVuSans-33" d="M 2597 2516 
Q 3050 2419 3304 2112 
Q 3559 1806 3559 1356 
Q 3559 666 3084 287 
Q 2609 -91 1734 -91 
Q 1441 -91 1130 -33 
Q 819 25 488 141 
L 488 750 
Q 750 597 1062 519 
Q 1375 441 1716 441 
Q 2309 441 2620 675 
Q 2931 909 2931 1356 
Q 2931 1769 2642 2001 
Q 2353 2234 1838 2234 
L 1294 2234 
L 1294 2753 
L 1863 2753 
Q 2328 2753 2575 2939 
Q 2822 3125 2822 3475 
Q 2822 3834 2567 4026 
Q 2313 4219 1838 4219 
Q 1578 4219 1281 4162 
Q 984 4106 628 3988 
L 628 4550 
Q 988 4650 1302 4700 
Q 1616 4750 1894 4750 
Q 2613 4750 3031 4423 
Q 3450 4097 3450 3541 
Q 3450 3153 3228 2886 
Q 3006 2619 2597 2516 
z
" transform="scale(0.015625)"/>
       </defs>
       <use xlink:href="#DejaVuSans-33"/>
      </g>
     </g>
    </g>
    <g id="ytick_5">
     <g id="line2d_31">
      <path d="M 99 196.434061 
L 712.8 196.434061 
" clip-path="url(#p3a21dcdc89)" style="fill: none; stroke: #b0b0b0; stroke-width: 0.8; stroke-linecap: square"/>
     </g>
     <g id="line2d_32">
      <g>
       <use xlink:href="#m8100d4c755" x="99" y="196.434061" style="stroke: #000000; stroke-width: 0.8"/>
      </g>
     </g>
     <g id="text_17">
      <!-- 4 -->
      <g transform="translate(85.6375 200.23328)scale(0.1 -0.1)">
       <use xlink:href="#DejaVuSans-34"/>
      </g>
     </g>
    </g>
    <g id="ytick_6">
     <g id="line2d_33">
      <path d="M 99 151.042577 
L 712.8 151.042577 
" clip-path="url(#p3a21dcdc89)" style="fill: none; stroke: #b0b0b0; stroke-width: 0.8; stroke-linecap: square"/>
     </g>
     <g id="line2d_34">
      <g>
       <use xlink:href="#m8100d4c755" x="99" y="151.042577" style="stroke: #000000; stroke-width: 0.8"/>
      </g>
     </g>
     <g id="text_18">
      <!-- 5 -->
      <g transform="translate(85.6375 154.841796)scale(0.1 -0.1)">
       <defs>
        <path id="DejaVuSans-35" d="M 691 4666 
L 3169 4666 
L 3169 4134 
L 1269 4134 
L 1269 2991 
Q 1406 3038 1543 3061 
Q 1681 3084 1819 3084 
Q 2600 3084 3056 2656 
Q 3513 2228 3513 1497 
Q 3513 744 3044 326 
Q 2575 -91 1722 -91 
Q 1428 -91 1123 -41 
Q 819 9 494 109 
L 494 744 
Q 775 591 1075 516 
Q 1375 441 1709 441 
Q 2250 441 2565 725 
Q 2881 1009 2881 1497 
Q 2881 1984 2565 2268 
Q 2250 2553 1709 2553 
Q 1456 2553 1204 2497 
Q 953 2441 691 2322 
L 691 4666 
z
" transform="scale(0.015625)"/>
       </defs>
       <use xlink:href="#DejaVuSans-35"/>
      </g>
     </g>
    </g>
    <g id="ytick_7">
     <g id="line2d_35">
      <path d="M 99 105.651092 
L 712.8 105.651092 
" clip-path="url(#p3a21dcdc89)" style="fill: none; stroke: #b0b0b0; stroke-width: 0.8; stroke-linecap: square"/>
     </g>
     <g id="line2d_36">
      <g>
       <use xlink:href="#m8100d4c755" x="99" y="105.651092" style="stroke: #000000; stroke-width: 0.8"/>
      </g>
     </g>
     <g id="text_19">
      <!-- 6 -->
      <g transform="translate(85.6375 109.450311)scale(0.1 -0.1)">
       <use xlink:href="#DejaVuSans-36"/>
      </g>
     </g>
    </g>
    <g id="ytick_8">
     <g id="line2d_37">
      <path d="M 99 60.259608 
L 712.8 60.259608 
" clip-path="url(#p3a21dcdc89)" style="fill: none; stroke: #b0b0b0; stroke-width: 0.8; stroke-linecap: square"/>
     </g>
     <g id="line2d_38">
      <g>
       <use xlink:href="#m8100d4c755" x="99" y="60.259608" style="stroke: #000000; stroke-width: 0.8"/>
      </g>
     </g>
     <g id="text_20">
      <!-- 7 -->
      <g transform="translate(85.6375 64.058826)scale(0.1 -0.1)">
       <defs>
        <path id="DejaVuSans-37" d="M 525 4666 
L 3525 4666 
L 3525 4397 
L 1831 0 
L 1172 0 
L 2766 4134 
L 525 4134 
L 525 4666 
z
" transform="scale(0.015625)"/>
       </defs>
       <use xlink:href="#DejaVuSans-37"/>
      </g>
     </g>
    </g>
    <g id="text_21">
     <!-- Distance [$\mathring{A}$ngstrom] -->
     <g transform="translate(79.5375 266.62)rotate(-90)scale(0.1 -0.1)">
      <defs>
       <path id="DejaVuSans-44" d="M 1259 4147 
L 1259 519 
L 2022 519 
Q 2988 519 3436 956 
Q 3884 1394 3884 2338 
Q 3884 3275 3436 3711 
Q 2988 4147 2022 4147 
L 1259 4147 
z
M 628 4666 
L 1925 4666 
Q 3281 4666 3915 4102 
Q 4550 3538 4550 2338 
Q 4550 1131 3912 565 
Q 3275 0 1925 0 
L 628 0 
L 628 4666 
z
" transform="scale(0.015625)"/>
       <path id="DejaVuSans-74" d="M 1172 4494 
L 1172 3500 
L 2356 3500 
L 2356 3053 
L 1172 3053 
L 1172 1153 
Q 1172 725 1289 603 
Q 1406 481 1766 481 
L 2356 481 
L 2356 0 
L 1766 0 
Q 1100 0 847 248 
Q 594 497 594 1153 
L 594 3053 
L 172 3053 
L 172 3500 
L 594 3500 
L 594 4494 
L 1172 4494 
z
" transform="scale(0.015625)"/>
       <path id="DejaVuSans-61" d="M 2194 1759 
Q 1497 1759 1228 1600 
Q 959 1441 959 1056 
Q 959 750 1161 570 
Q 1363 391 1709 391 
Q 2188 391 2477 730 
Q 2766 1069 2766 1631 
L 2766 1759 
L 2194 1759 
z
M 3341 1997 
L 3341 0 
L 2766 0 
L 2766 531 
Q 2569 213 2275 61 
Q 1981 -91 1556 -91 
Q 1019 -91 701 211 
Q 384 513 384 1019 
Q 384 1609 779 1909 
Q 1175 2209 1959 2209 
L 2766 2209 
L 2766 2266 
Q 2766 2663 2505 2880 
Q 2244 3097 1772 3097 
Q 1472 3097 1187 3025 
Q 903 2953 641 2809 
L 641 3341 
Q 956 3463 1253 3523 
Q 1550 3584 1831 3584 
Q 2591 3584 2966 3190 
Q 3341 2797 3341 1997 
z
" transform="scale(0.015625)"/>
       <path id="DejaVuSans-63" d="M 3122 3366 
L 3122 2828 
Q 2878 2963 2633 3030 
Q 2388 3097 2138 3097 
Q 1578 3097 1268 2742 
Q 959 2388 959 1747 
Q 959 1106 1268 751 
Q 1578 397 2138 397 
Q 2388 397 2633 464 
Q 2878 531 3122 666 
L 3122 134 
Q 2881 22 2623 -34 
Q 2366 -91 2075 -91 
Q 1284 -91 818 406 
Q 353 903 353 1747 
Q 353 2603 823 3093 
Q 1294 3584 2113 3584 
Q 2378 3584 2631 3529 
Q 2884 3475 3122 3366 
z
" transform="scale(0.015625)"/>
       <path id="DejaVuSans-5b" d="M 550 4863 
L 1875 4863 
L 1875 4416 
L 1125 4416 
L 1125 -397 
L 1875 -397 
L 1875 -844 
L 550 -844 
L 550 4863 
z
" transform="scale(0.015625)"/>
       <path id="DejaVuSans-2218" d="M 2003 2603 
Q 1753 2603 1581 2429 
Q 1409 2256 1409 2006 
Q 1409 1759 1581 1589 
Q 1753 1419 2003 1419 
Q 2253 1419 2425 1589 
Q 2597 1759 2597 2006 
Q 2597 2253 2423 2428 
Q 2250 2603 2003 2603 
z
M 2003 3006 
Q 2203 3006 2387 2929 
Q 2572 2853 2706 2709 
Q 2850 2569 2922 2390 
Q 2994 2212 2994 2006 
Q 2994 1594 2705 1308 
Q 2416 1022 1997 1022 
Q 1575 1022 1294 1303 
Q 1013 1584 1013 2006 
Q 1013 2425 1300 2715 
Q 1588 3006 2003 3006 
z
" transform="scale(0.015625)"/>
       <path id="DejaVuSans-Oblique-41" d="M 2356 4666 
L 3072 4666 
L 3938 0 
L 3278 0 
L 3084 1197 
L 984 1197 
L 325 0 
L -341 0 
L 2356 4666 
z
M 2584 4044 
L 1275 1722 
L 2988 1722 
L 2584 4044 
z
" transform="scale(0.015625)"/>
       <path id="DejaVuSans-67" d="M 2906 1791 
Q 2906 2416 2648 2759 
Q 2391 3103 1925 3103 
Q 1463 3103 1205 2759 
Q 947 2416 947 1791 
Q 947 1169 1205 825 
Q 1463 481 1925 481 
Q 2391 481 2648 825 
Q 2906 1169 2906 1791 
z
M 3481 434 
Q 3481 -459 3084 -895 
Q 2688 -1331 1869 -1331 
Q 1566 -1331 1297 -1286 
Q 1028 -1241 775 -1147 
L 775 -588 
Q 1028 -725 1275 -790 
Q 1522 -856 1778 -856 
Q 2344 -856 2625 -561 
Q 2906 -266 2906 331 
L 2906 616 
Q 2728 306 2450 153 
Q 2172 0 1784 0 
Q 1141 0 747 490 
Q 353 981 353 1791 
Q 353 2603 747 3093 
Q 1141 3584 1784 3584 
Q 2172 3584 2450 3431 
Q 2728 3278 2906 2969 
L 2906 3500 
L 3481 3500 
L 3481 434 
z
" transform="scale(0.015625)"/>
       <path id="DejaVuSans-72" d="M 2631 2963 
Q 2534 3019 2420 3045 
Q 2306 3072 2169 3072 
Q 1681 3072 1420 2755 
Q 1159 2438 1159 1844 
L 1159 0 
L 581 0 
L 581 3500 
L 1159 3500 
L 1159 2956 
Q 1341 3275 1631 3429 
Q 1922 3584 2338 3584 
Q 2397 3584 2469 3576 
Q 2541 3569 2628 3553 
L 2631 2963 
z
" transform="scale(0.015625)"/>
       <path id="DejaVuSans-6d" d="M 3328 2828 
Q 3544 3216 3844 3400 
Q 4144 3584 4550 3584 
Q 5097 3584 5394 3201 
Q 5691 2819 5691 2113 
L 5691 0 
L 5113 0 
L 5113 2094 
Q 5113 2597 4934 2840 
Q 4756 3084 4391 3084 
Q 3944 3084 3684 2787 
Q 3425 2491 3425 1978 
L 3425 0 
L 2847 0 
L 2847 2094 
Q 2847 2600 2669 2842 
Q 2491 3084 2119 3084 
Q 1678 3084 1418 2786 
Q 1159 2488 1159 1978 
L 1159 0 
L 581 0 
L 581 3500 
L 1159 3500 
L 1159 2956 
Q 1356 3278 1631 3431 
Q 1906 3584 2284 3584 
Q 2666 3584 2933 3390 
Q 3200 3197 3328 2828 
z
" transform="scale(0.015625)"/>
       <path id="DejaVuSans-5d" d="M 1947 4863 
L 1947 -844 
L 622 -844 
L 622 -397 
L 1369 -397 
L 1369 4416 
L 622 4416 
L 622 4863 
L 1947 4863 
z
" transform="scale(0.015625)"/>
      </defs>
      <use xlink:href="#DejaVuSans-44" transform="translate(0 0.390625)"/>
      <use xlink:href="#DejaVuSans-69" transform="translate(77.001953 0.390625)"/>
      <use xlink:href="#DejaVuSans-73" transform="translate(104.785156 0.390625)"/>
      <use xlink:href="#DejaVuSans-74" transform="translate(156.884766 0.390625)"/>
      <use xlink:href="#DejaVuSans-61" transform="translate(196.09375 0.390625)"/>
      <use xlink:href="#DejaVuSans-6e" transform="translate(257.373047 0.390625)"/>
      <use xlink:href="#DejaVuSans-63" transform="translate(320.751953 0.390625)"/>
      <use xlink:href="#DejaVuSans-65" transform="translate(375.732422 0.390625)"/>
      <use xlink:href="#DejaVuSans-20" transform="translate(437.255859 0.390625)"/>
      <use xlink:href="#DejaVuSans-5b" transform="translate(469.042969 0.390625)"/>
      <use xlink:href="#DejaVuSans-2218" transform="translate(535.408691 77.96875)scale(0.49)"/>
      <use xlink:href="#DejaVuSans-Oblique-41" transform="translate(508.056641 0.390625)"/>
      <use xlink:href="#DejaVuSans-6e" transform="translate(576.464844 0.390625)"/>
      <use xlink:href="#DejaVuSans-67" transform="translate(639.84375 0.390625)"/>
      <use xlink:href="#DejaVuSans-73" transform="translate(703.320312 0.390625)"/>
      <use xlink:href="#DejaVuSans-74" transform="translate(755.419922 0.390625)"/>
      <use xlink:href="#DejaVuSans-72" transform="translate(794.628906 0.390625)"/>
      <use xlink:href="#DejaVuSans-6f" transform="translate(835.742188 0.390625)"/>
      <use xlink:href="#DejaVuSans-6d" transform="translate(896.923828 0.390625)"/>
      <use xlink:href="#DejaVuSans-5d" transform="translate(994.335938 0.390625)"/>
     </g>
    </g>
   </g>
   <g id="line2d_39">
    <path d="M 126.9 288.768579 
L 129.608738 363.489147 
L 132.317476 368.025402 
L 135.026214 367.781854 
L 137.734951 356.917251 
L 140.443689 356.793699 
L 145.861165 362.382537 
L 148.569903 360.703677 
L 151.278641 358.374514 
L 153.987379 360.605125 
L 156.696117 371.696911 
L 159.404854 355.418168 
L 162.113592 364.859871 
L 164.82233 341.905536 
L 167.531068 331.807637 
L 170.239806 333.068972 
L 172.948544 334.152793 
L 175.657282 345.405289 
L 178.366019 342.153821 
L 181.074757 290.749485 
L 183.783495 293.510969 
L 186.492233 282.231851 
L 189.200971 318.97498 
L 191.909709 337.543161 
L 194.618447 352.787986 
L 197.327184 359.546413 
L 200.035922 367.637272 
L 202.74466 360.768993 
L 205.453398 362.133965 
L 208.162136 356.146094 
L 210.870874 363.65879 
L 213.579612 362.384255 
L 216.28835 358.082811 
L 218.997087 366.455203 
L 221.705825 368.883254 
L 224.414563 369.767477 
L 227.123301 366.479696 
L 229.832039 361.971264 
L 232.540777 355.457301 
L 235.249515 367.198707 
L 237.958252 332.185065 
L 240.66699 352.698084 
L 243.375728 338.233824 
L 246.084466 324.504737 
L 248.793204 304.524169 
L 251.501942 352.421444 
L 254.21068 360.795979 
L 256.919417 357.876227 
L 259.628155 361.167679 
L 262.336893 368.024345 
L 265.045631 361.649834 
L 267.754369 351.456288 
L 270.463107 362.232612 
L 275.880583 353.318208 
L 278.58932 358.988201 
L 281.298058 369.009726 
L 284.006796 352.690884 
L 286.715534 349.281824 
L 289.424272 364.17035 
L 292.13301 358.494116 
L 294.841748 366.528245 
L 297.550485 373.758871 
L 300.259223 370.46872 
L 302.967961 373.735063 
L 305.676699 373.476108 
L 308.385437 368.237485 
L 311.094175 372.486517 
L 313.802913 370.485261 
L 316.51165 364.001192 
L 319.220388 371.246224 
L 321.929126 359.231944 
L 324.637864 359.709495 
L 327.346602 360.325385 
L 330.05534 360.424425 
L 332.764078 359.742577 
L 335.472816 360.623795 
L 338.181553 345.93419 
L 346.307767 236.98968 
L 349.016505 177.397989 
L 351.725243 123.726892 
L 354.433981 97.231485 
L 357.142718 161.60281 
L 359.851456 155.552739 
L 362.560194 218.611032 
L 367.97767 311.540498 
L 370.686408 327.403093 
L 373.395146 353.077847 
L 376.103883 367.441286 
L 378.812621 361.004426 
L 381.521359 360.701451 
L 384.230097 363.229389 
L 386.938835 359.144878 
L 389.647573 356.174563 
L 392.356311 351.430834 
L 397.773786 372.242619 
L 400.482524 373.129823 
L 403.191262 366.417261 
L 405.9 366.351159 
L 408.608738 332.036071 
L 411.317476 342.523539 
L 414.026214 369.518076 
L 416.734951 368.084311 
L 422.152427 366.550722 
L 424.861165 359.512408 
L 427.569903 357.178308 
L 430.278641 362.05162 
L 432.987379 362.987905 
L 435.696117 364.171146 
L 438.404854 364.41794 
L 441.113592 364.295875 
L 443.82233 351.40472 
L 446.531068 354.15145 
L 449.239806 358.74201 
L 451.948544 368.734928 
L 454.657282 349.538853 
L 457.366019 350.860611 
L 460.074757 340.62441 
L 462.783495 344.727136 
L 465.492233 353.592092 
L 468.200971 373.126925 
L 470.909709 371.658855 
L 473.618447 357.314163 
L 476.327184 363.620994 
L 479.035922 371.416002 
L 481.74466 366.559621 
L 484.453398 368.916299 
L 487.162136 349.816942 
L 489.870874 369.587779 
L 492.579612 371.443325 
L 495.28835 366.779009 
L 497.997087 350.126172 
L 500.705825 349.129929 
L 503.414563 362.026263 
L 506.123301 334.695063 
L 508.832039 331.110012 
L 511.540777 323.250869 
L 514.249515 318.256425 
L 516.958252 297.716314 
L 519.66699 308.880257 
L 522.375728 363.382208 
L 525.084466 343.822284 
L 527.793204 315.513594 
L 530.501942 348.360032 
L 533.21068 369.834135 
L 535.919417 369.032164 
L 538.628155 368.543901 
L 544.045631 365.580678 
L 546.754369 360.572662 
L 549.463107 367.941887 
L 552.171845 367.976 
L 554.880583 361.397141 
L 557.58932 363.077132 
L 560.298058 359.396469 
L 563.006796 358.941371 
L 565.715534 353.485448 
L 568.424272 358.109212 
L 571.13301 357.008968 
L 573.841748 358.2058 
L 576.550485 366.964669 
L 579.259223 369.435294 
L 581.967961 362.097088 
L 584.676699 364.012843 
L 587.385437 364.167022 
L 590.094175 361.778562 
L 592.802913 363.331322 
L 595.51165 366.177769 
L 598.220388 359.671673 
L 600.929126 360.435671 
L 603.637864 360.046723 
L 606.346602 352.179187 
L 609.05534 356.735934 
L 611.764078 354.566656 
L 614.472816 361.520069 
L 617.181553 342.441461 
L 619.890291 368.553524 
L 622.599029 336.250201 
L 625.307767 308.87583 
L 628.016505 309.658138 
L 630.725243 319.05633 
L 633.433981 316.025862 
L 636.142718 310.695054 
L 638.851456 314.636121 
L 641.560194 330.895712 
L 644.268932 364.419903 
L 646.97767 360.077032 
L 649.686408 352.72272 
L 652.395146 353.49018 
L 655.103883 347.787666 
L 657.812621 354.386838 
L 660.521359 359.93275 
L 663.230097 361.881938 
L 665.938835 349.373991 
L 668.647573 352.488152 
L 671.356311 343.222838 
L 674.065049 352.990804 
L 676.773786 360.949635 
L 679.482524 357.319196 
L 682.191262 361.32248 
L 684.9 364.527978 
L 684.9 364.527978 
" clip-path="url(#p3a21dcdc89)" style="fill: none; stroke: #1f77b4; stroke-width: 2; stroke-linecap: square"/>
   </g>
   <g id="line2d_40">
    <path d="M 126.9 332.608515 
L 684.9 332.608515 
L 684.9 332.608515 
" clip-path="url(#p3a21dcdc89)" style="fill: none; stroke: #ff0000; stroke-width: 1.5; stroke-linecap: square"/>
   </g>
   <g id="patch_3">
    <path d="M 99 378 
L 99 51.84 
" style="fill: none; stroke: #000000; stroke-width: 0.8; stroke-linejoin: miter; stroke-linecap: square"/>
   </g>
   <g id="patch_4">
    <path d="M 712.8 378 
L 712.8 51.84 
" style="fill: none; stroke: #000000; stroke-width: 0.8; stroke-linejoin: miter; stroke-linecap: square"/>
   </g>
   <g id="patch_5">
    <path d="M 99 378 
L 712.8 378 
" style="fill: none; stroke: #000000; stroke-width: 0.8; stroke-linejoin: miter; stroke-linecap: square"/>
   </g>
   <g id="patch_6">
    <path d="M 99 51.84 
L 712.8 51.84 
" style="fill: none; stroke: #000000; stroke-width: 0.8; stroke-linejoin: miter; stroke-linecap: square"/>
   </g>
   <g id="legend_1">
    <g id="patch_7">
     <path d="M 587.1 89.84 
L 705.8 89.84 
Q 707.8 89.84 707.8 87.84 
L 707.8 58.84 
Q 707.8 56.84 705.8 56.84 
L 587.1 56.84 
Q 585.1 56.84 585.1 58.84 
L 585.1 87.84 
Q 585.1 89.84 587.1 89.84 
z
" style="fill: #ffffff; opacity: 0.8; stroke: #cccccc; stroke-linejoin: miter"/>
    </g>
    <g id="PathCollection_2">
     <g>
      <use xlink:href="#m9bd7ee5ff4" x="599.1" y="65.815" style="fill: #1f77b4; stroke: #1f77b4"/>
     </g>
    </g>
    <g id="text_22">
     <!-- Distance $\alpha$-C pair -->
     <g transform="translate(617.1 68.44)scale(0.1 -0.1)">
      <defs>
       <path id="DejaVuSans-Oblique-3b1" d="M 2619 1628 
L 2622 2350 
Q 2625 3088 2069 3091 
Q 1653 3094 1394 2747 
Q 1069 2319 959 1747 
Q 825 1059 994 731 
Q 1169 397 1547 397 
Q 1966 397 2319 1063 
L 2619 1628 
z
M 2166 3578 
Q 3141 3594 3128 2584 
Q 3128 2584 3616 3500 
L 4128 3500 
L 3119 1603 
L 3109 919 
Q 3109 766 3194 638 
Q 3291 488 3391 488 
L 3669 488 
L 3575 0 
L 3228 0 
Q 2934 0 2722 263 
Q 2622 394 2619 669 
Q 2416 334 2066 50 
Q 1900 -81 1453 -78 
Q 722 -72 456 397 
Q 184 884 353 1747 
Q 534 2675 1009 3097 
Q 1544 3569 2166 3578 
z
" transform="scale(0.015625)"/>
       <path id="DejaVuSans-2d" d="M 313 2009 
L 1997 2009 
L 1997 1497 
L 313 1497 
L 313 2009 
z
" transform="scale(0.015625)"/>
       <path id="DejaVuSans-43" d="M 4122 4306 
L 4122 3641 
Q 3803 3938 3442 4084 
Q 3081 4231 2675 4231 
Q 1875 4231 1450 3742 
Q 1025 3253 1025 2328 
Q 1025 1406 1450 917 
Q 1875 428 2675 428 
Q 3081 428 3442 575 
Q 3803 722 4122 1019 
L 4122 359 
Q 3791 134 3420 21 
Q 3050 -91 2638 -91 
Q 1578 -91 968 557 
Q 359 1206 359 2328 
Q 359 3453 968 4101 
Q 1578 4750 2638 4750 
Q 3056 4750 3426 4639 
Q 3797 4528 4122 4306 
z
" transform="scale(0.015625)"/>
       <path id="DejaVuSans-70" d="M 1159 525 
L 1159 -1331 
L 581 -1331 
L 581 3500 
L 1159 3500 
L 1159 2969 
Q 1341 3281 1617 3432 
Q 1894 3584 2278 3584 
Q 2916 3584 3314 3078 
Q 3713 2572 3713 1747 
Q 3713 922 3314 415 
Q 2916 -91 2278 -91 
Q 1894 -91 1617 61 
Q 1341 213 1159 525 
z
M 3116 1747 
Q 3116 2381 2855 2742 
Q 2594 3103 2138 3103 
Q 1681 3103 1420 2742 
Q 1159 2381 1159 1747 
Q 1159 1113 1420 752 
Q 1681 391 2138 391 
Q 2594 391 2855 752 
Q 3116 1113 3116 1747 
z
" transform="scale(0.015625)"/>
      </defs>
      <use xlink:href="#DejaVuSans-44" transform="translate(0 0.015625)"/>
      <use xlink:href="#DejaVuSans-69" transform="translate(77.001953 0.015625)"/>
      <use xlink:href="#DejaVuSans-73" transform="translate(104.785156 0.015625)"/>
      <use xlink:href="#DejaVuSans-74" transform="translate(156.884766 0.015625)"/>
      <use xlink:href="#DejaVuSans-61" transform="translate(196.09375 0.015625)"/>
      <use xlink:href="#DejaVuSans-6e" transform="translate(257.373047 0.015625)"/>
      <use xlink:href="#DejaVuSans-63" transform="translate(320.751953 0.015625)"/>
      <use xlink:href="#DejaVuSans-65" transform="translate(375.732422 0.015625)"/>
      <use xlink:href="#DejaVuSans-20" transform="translate(437.255859 0.015625)"/>
      <use xlink:href="#DejaVuSans-Oblique-3b1" transform="translate(469.042969 0.015625)"/>
      <use xlink:href="#DejaVuSans-2d" transform="translate(534.960938 0.015625)"/>
      <use xlink:href="#DejaVuSans-43" transform="translate(571.044922 0.015625)"/>
      <use xlink:href="#DejaVuSans-20" transform="translate(640.869141 0.015625)"/>
      <use xlink:href="#DejaVuSans-70" transform="translate(672.65625 0.015625)"/>
      <use xlink:href="#DejaVuSans-61" transform="translate(736.132812 0.015625)"/>
      <use xlink:href="#DejaVuSans-69" transform="translate(797.412109 0.015625)"/>
      <use xlink:href="#DejaVuSans-72" transform="translate(825.195312 0.015625)"/>
     </g>
    </g>
    <g id="line2d_41">
     <path d="M 589.1 80.260312 
L 599.1 80.260312 
L 609.1 80.260312 
" style="fill: none; stroke: #ff0000; stroke-width: 1.5; stroke-linecap: square"/>
    </g>
    <g id="text_23">
     <!-- Cutoff = 1.0 $\mathring{A}$ -->
     <g transform="translate(617.1 83.760312)scale(0.1 -0.1)">
      <defs>
       <path id="DejaVuSans-66" d="M 2375 4863 
L 2375 4384 
L 1825 4384 
Q 1516 4384 1395 4259 
Q 1275 4134 1275 3809 
L 1275 3500 
L 2222 3500 
L 2222 3053 
L 1275 3053 
L 1275 0 
L 697 0 
L 697 3053 
L 147 3053 
L 147 3500 
L 697 3500 
L 697 3744 
Q 697 4328 969 4595 
Q 1241 4863 1831 4863 
L 2375 4863 
z
" transform="scale(0.015625)"/>
       <path id="DejaVuSans-3d" d="M 678 2906 
L 4684 2906 
L 4684 2381 
L 678 2381 
L 678 2906 
z
M 678 1631 
L 4684 1631 
L 4684 1100 
L 678 1100 
L 678 1631 
z
" transform="scale(0.015625)"/>
      </defs>
      <use xlink:href="#DejaVuSans-43" transform="translate(0 0.390625)"/>
      <use xlink:href="#DejaVuSans-75" transform="translate(69.824219 0.390625)"/>
      <use xlink:href="#DejaVuSans-74" transform="translate(133.203125 0.390625)"/>
      <use xlink:href="#DejaVuSans-6f" transform="translate(172.412109 0.390625)"/>
      <use xlink:href="#DejaVuSans-66" transform="translate(233.59375 0.390625)"/>
      <use xlink:href="#DejaVuSans-66" transform="translate(268.798828 0.390625)"/>
      <use xlink:href="#DejaVuSans-20" transform="translate(304.003906 0.390625)"/>
      <use xlink:href="#DejaVuSans-3d" transform="translate(335.791016 0.390625)"/>
      <use xlink:href="#DejaVuSans-20" transform="translate(419.580078 0.390625)"/>
      <use xlink:href="#DejaVuSans-31" transform="translate(451.367188 0.390625)"/>
      <use xlink:href="#DejaVuSans-2e" transform="translate(514.990234 0.390625)"/>
      <use xlink:href="#DejaVuSans-30" transform="translate(546.777344 0.390625)"/>
      <use xlink:href="#DejaVuSans-20" transform="translate(610.400391 0.390625)"/>
      <use xlink:href="#DejaVuSans-2218" transform="translate(669.539551 77.96875)scale(0.49)"/>
      <use xlink:href="#DejaVuSans-Oblique-41" transform="translate(642.1875 0.390625)"/>
     </g>
    </g>
   </g>
  </g>
 </g>
 <defs>
  <clipPath id="p3a21dcdc89">
   <rect x="99" y="51.84" width="613.8" height="326.16"/>
  </clipPath>
 </defs>
</svg>
