<?xml version="1.0" encoding="utf-8" standalone="no"?>
<!DOCTYPE svg PUBLIC "-//W3C//DTD SVG 1.1//EN"
  "http://www.w3.org/Graphics/SVG/1.1/DTD/svg11.dtd">
<svg xmlns:xlink="http://www.w3.org/1999/xlink" width="792pt" height="432pt" viewBox="0 0 792 432" xmlns="http://www.w3.org/2000/svg" version="1.1">
 <metadata>
  <rdf:RDF xmlns:dc="http://purl.org/dc/elements/1.1/" xmlns:cc="http://creativecommons.org/ns#" xmlns:rdf="http://www.w3.org/1999/02/22-rdf-syntax-ns#">
   <cc:Work>
    <dc:type rdf:resource="http://purl.org/dc/dcmitype/StillImage"/>
    <dc:date>2022-06-09T15:50:47.979982</dc:date>
    <dc:format>image/svg+xml</dc:format>
    <dc:creator>
     <cc:Agent>
      <dc:title>Matplotlib v3.5.1, https://matplotlib.org/</dc:title>
     </cc:Agent>
    </dc:creator>
   </cc:Work>
  </rdf:RDF>
 </metadata>
 <defs>
  <style type="text/css">*{stroke-linejoin: round; stroke-linecap: butt}</style>
 </defs>
 <g id="figure_1">
  <g id="patch_1">
   <path d="M 0 432 
L 792 432 
L 792 0 
L 0 0 
z
" style="fill: #ffffff"/>
  </g>
  <g id="axes_1">
   <g id="patch_2">
    <path d="M 99 384.48 
L 712.8 384.48 
L 712.8 51.84 
L 99 51.84 
z
" style="fill: #ffffff"/>
   </g>
   <g id="PathCollection_1">
    <defs>
     <path id="m1da4dafdb8" d="M 0 3 
C 0.795609 3 1.55874 2.683901 2.12132 2.12132 
C 2.683901 1.55874 3 0.795609 3 0 
C 3 -0.795609 2.683901 -1.55874 2.12132 -2.12132 
C 1.55874 -2.683901 0.795609 -3 0 -3 
C -0.795609 -3 -1.55874 -2.683901 -2.12132 -2.12132 
C -2.683901 -1.55874 -3 -0.795609 -3 0 
C -3 0.795609 -2.683901 1.55874 -2.12132 2.12132 
C -1.55874 2.683901 -0.795609 3 0 3 
z
" style="stroke: #1f77b4"/>
    </defs>
    <g clip-path="url(#pb8465ecae1)">
     <use xlink:href="#m1da4dafdb8" x="126.9" y="293.475769" style="fill: #1f77b4; stroke: #1f77b4"/>
     <use xlink:href="#m1da4dafdb8" x="129.608738" y="369.680852" style="fill: #1f77b4; stroke: #1f77b4"/>
     <use xlink:href="#m1da4dafdb8" x="132.317476" y="374.307232" style="fill: #1f77b4; stroke: #1f77b4"/>
     <use xlink:href="#m1da4dafdb8" x="135.026214" y="374.058845" style="fill: #1f77b4; stroke: #1f77b4"/>
     <use xlink:href="#m1da4dafdb8" x="137.734951" y="362.978389" style="fill: #1f77b4; stroke: #1f77b4"/>
     <use xlink:href="#m1da4dafdb8" x="140.443689" y="362.852381" style="fill: #1f77b4; stroke: #1f77b4"/>
     <use xlink:href="#m1da4dafdb8" x="143.152427" y="365.65946" style="fill: #1f77b4; stroke: #1f77b4"/>
     <use xlink:href="#m1da4dafdb8" x="145.861165" y="368.552256" style="fill: #1f77b4; stroke: #1f77b4"/>
     <use xlink:href="#m1da4dafdb8" x="148.569903" y="366.840041" style="fill: #1f77b4; stroke: #1f77b4"/>
     <use xlink:href="#m1da4dafdb8" x="151.278641" y="364.464603" style="fill: #1f77b4; stroke: #1f77b4"/>
     <use xlink:href="#m1da4dafdb8" x="153.987379" y="366.739531" style="fill: #1f77b4; stroke: #1f77b4"/>
     <use xlink:href="#m1da4dafdb8" x="156.696117" y="378.051684" style="fill: #1f77b4; stroke: #1f77b4"/>
     <use xlink:href="#m1da4dafdb8" x="159.404854" y="361.449522" style="fill: #1f77b4; stroke: #1f77b4"/>
     <use xlink:href="#m1da4dafdb8" x="162.113592" y="371.078809" style="fill: #1f77b4; stroke: #1f77b4"/>
     <use xlink:href="#m1da4dafdb8" x="164.82233" y="347.668427" style="fill: #1f77b4; stroke: #1f77b4"/>
     <use xlink:href="#m1da4dafdb8" x="167.531068" y="337.369908" style="fill: #1f77b4; stroke: #1f77b4"/>
     <use xlink:href="#m1da4dafdb8" x="170.239806" y="338.656302" style="fill: #1f77b4; stroke: #1f77b4"/>
     <use xlink:href="#m1da4dafdb8" x="172.948544" y="339.761657" style="fill: #1f77b4; stroke: #1f77b4"/>
     <use xlink:href="#m1da4dafdb8" x="175.657282" y="351.237712" style="fill: #1f77b4; stroke: #1f77b4"/>
     <use xlink:href="#m1da4dafdb8" x="178.366019" y="347.921645" style="fill: #1f77b4; stroke: #1f77b4"/>
     <use xlink:href="#m1da4dafdb8" x="181.074757" y="295.496032" style="fill: #1f77b4; stroke: #1f77b4"/>
     <use xlink:href="#m1da4dafdb8" x="183.783495" y="298.312379" style="fill: #1f77b4; stroke: #1f77b4"/>
     <use xlink:href="#m1da4dafdb8" x="186.492233" y="286.809172" style="fill: #1f77b4; stroke: #1f77b4"/>
     <use xlink:href="#m1da4dafdb8" x="189.200971" y="324.282297" style="fill: #1f77b4; stroke: #1f77b4"/>
     <use xlink:href="#m1da4dafdb8" x="191.909709" y="343.219383" style="fill: #1f77b4; stroke: #1f77b4"/>
     <use xlink:href="#m1da4dafdb8" x="194.618447" y="358.767085" style="fill: #1f77b4; stroke: #1f77b4"/>
     <use xlink:href="#m1da4dafdb8" x="197.327184" y="365.659785" style="fill: #1f77b4; stroke: #1f77b4"/>
     <use xlink:href="#m1da4dafdb8" x="200.035922" y="373.91139" style="fill: #1f77b4; stroke: #1f77b4"/>
     <use xlink:href="#m1da4dafdb8" x="202.74466" y="366.906655" style="fill: #1f77b4; stroke: #1f77b4"/>
     <use xlink:href="#m1da4dafdb8" x="205.453398" y="368.298746" style="fill: #1f77b4; stroke: #1f77b4"/>
     <use xlink:href="#m1da4dafdb8" x="208.162136" y="362.191911" style="fill: #1f77b4; stroke: #1f77b4"/>
     <use xlink:href="#m1da4dafdb8" x="210.870874" y="369.853865" style="fill: #1f77b4; stroke: #1f77b4"/>
     <use xlink:href="#m1da4dafdb8" x="213.579612" y="368.554008" style="fill: #1f77b4; stroke: #1f77b4"/>
     <use xlink:href="#m1da4dafdb8" x="216.28835" y="364.167106" style="fill: #1f77b4; stroke: #1f77b4"/>
     <use xlink:href="#m1da4dafdb8" x="218.997087" y="372.705836" style="fill: #1f77b4; stroke: #1f77b4"/>
     <use xlink:href="#m1da4dafdb8" x="221.705825" y="375.182126" style="fill: #1f77b4; stroke: #1f77b4"/>
     <use xlink:href="#m1da4dafdb8" x="224.414563" y="376.083917" style="fill: #1f77b4; stroke: #1f77b4"/>
     <use xlink:href="#m1da4dafdb8" x="227.123301" y="372.730816" style="fill: #1f77b4; stroke: #1f77b4"/>
     <use xlink:href="#m1da4dafdb8" x="229.832039" y="368.132813" style="fill: #1f77b4; stroke: #1f77b4"/>
     <use xlink:href="#m1da4dafdb8" x="232.540777" y="361.489433" style="fill: #1f77b4; stroke: #1f77b4"/>
     <use xlink:href="#m1da4dafdb8" x="235.249515" y="373.464112" style="fill: #1f77b4; stroke: #1f77b4"/>
     <use xlink:href="#m1da4dafdb8" x="237.958252" y="337.754835" style="fill: #1f77b4; stroke: #1f77b4"/>
     <use xlink:href="#m1da4dafdb8" x="240.66699" y="358.675396" style="fill: #1f77b4; stroke: #1f77b4"/>
     <use xlink:href="#m1da4dafdb8" x="243.375728" y="343.923768" style="fill: #1f77b4; stroke: #1f77b4"/>
     <use xlink:href="#m1da4dafdb8" x="246.084466" y="329.921917" style="fill: #1f77b4; stroke: #1f77b4"/>
     <use xlink:href="#m1da4dafdb8" x="248.793204" y="309.544385" style="fill: #1f77b4; stroke: #1f77b4"/>
     <use xlink:href="#m1da4dafdb8" x="251.501942" y="358.393261" style="fill: #1f77b4; stroke: #1f77b4"/>
     <use xlink:href="#m1da4dafdb8" x="254.21068" y="366.934177" style="fill: #1f77b4; stroke: #1f77b4"/>
     <use xlink:href="#m1da4dafdb8" x="256.919417" y="363.956417" style="fill: #1f77b4; stroke: #1f77b4"/>
     <use xlink:href="#m1da4dafdb8" x="259.628155" y="367.313262" style="fill: #1f77b4; stroke: #1f77b4"/>
     <use xlink:href="#m1da4dafdb8" x="262.336893" y="374.306153" style="fill: #1f77b4; stroke: #1f77b4"/>
     <use xlink:href="#m1da4dafdb8" x="265.045631" y="367.804996" style="fill: #1f77b4; stroke: #1f77b4"/>
     <use xlink:href="#m1da4dafdb8" x="267.754369" y="357.408929" style="fill: #1f77b4; stroke: #1f77b4"/>
     <use xlink:href="#m1da4dafdb8" x="270.463107" y="368.399352" style="fill: #1f77b4; stroke: #1f77b4"/>
     <use xlink:href="#m1da4dafdb8" x="273.171845" y="363.922087" style="fill: #1f77b4; stroke: #1f77b4"/>
     <use xlink:href="#m1da4dafdb8" x="275.880583" y="359.307841" style="fill: #1f77b4; stroke: #1f77b4"/>
     <use xlink:href="#m1da4dafdb8" x="278.58932" y="365.090483" style="fill: #1f77b4; stroke: #1f77b4"/>
     <use xlink:href="#m1da4dafdb8" x="281.298058" y="375.311112" style="fill: #1f77b4; stroke: #1f77b4"/>
     <use xlink:href="#m1da4dafdb8" x="284.006796" y="358.668054" style="fill: #1f77b4; stroke: #1f77b4"/>
     <use xlink:href="#m1da4dafdb8" x="286.715534" y="355.191264" style="fill: #1f77b4; stroke: #1f77b4"/>
     <use xlink:href="#m1da4dafdb8" x="289.424272" y="370.375589" style="fill: #1f77b4; stroke: #1f77b4"/>
     <use xlink:href="#m1da4dafdb8" x="292.13301" y="364.586582" style="fill: #1f77b4; stroke: #1f77b4"/>
     <use xlink:href="#m1da4dafdb8" x="294.841748" y="372.780329" style="fill: #1f77b4; stroke: #1f77b4"/>
     <use xlink:href="#m1da4dafdb8" x="297.550485" y="380.154611" style="fill: #1f77b4; stroke: #1f77b4"/>
     <use xlink:href="#m1da4dafdb8" x="300.259223" y="376.799092" style="fill: #1f77b4; stroke: #1f77b4"/>
     <use xlink:href="#m1da4dafdb8" x="302.967961" y="380.13033" style="fill: #1f77b4; stroke: #1f77b4"/>
     <use xlink:href="#m1da4dafdb8" x="305.676699" y="379.86623" style="fill: #1f77b4; stroke: #1f77b4"/>
     <use xlink:href="#m1da4dafdb8" x="308.385437" y="374.523528" style="fill: #1f77b4; stroke: #1f77b4"/>
     <use xlink:href="#m1da4dafdb8" x="311.094175" y="378.856978" style="fill: #1f77b4; stroke: #1f77b4"/>
     <use xlink:href="#m1da4dafdb8" x="313.802913" y="376.815962" style="fill: #1f77b4; stroke: #1f77b4"/>
     <use xlink:href="#m1da4dafdb8" x="316.51165" y="370.203069" style="fill: #1f77b4; stroke: #1f77b4"/>
     <use xlink:href="#m1da4dafdb8" x="319.220388" y="377.592043" style="fill: #1f77b4; stroke: #1f77b4"/>
     <use xlink:href="#m1da4dafdb8" x="321.929126" y="365.339068" style="fill: #1f77b4; stroke: #1f77b4"/>
     <use xlink:href="#m1da4dafdb8" x="324.637864" y="365.826107" style="fill: #1f77b4; stroke: #1f77b4"/>
     <use xlink:href="#m1da4dafdb8" x="327.346602" y="366.454234" style="fill: #1f77b4; stroke: #1f77b4"/>
     <use xlink:href="#m1da4dafdb8" x="330.05534" y="366.555242" style="fill: #1f77b4; stroke: #1f77b4"/>
     <use xlink:href="#m1da4dafdb8" x="332.764078" y="365.859847" style="fill: #1f77b4; stroke: #1f77b4"/>
     <use xlink:href="#m1da4dafdb8" x="335.472816" y="366.758573" style="fill: #1f77b4; stroke: #1f77b4"/>
     <use xlink:href="#m1da4dafdb8" x="338.181553" y="351.777121" style="fill: #1f77b4; stroke: #1f77b4"/>
     <use xlink:href="#m1da4dafdb8" x="340.890291" y="314.979386" style="fill: #1f77b4; stroke: #1f77b4"/>
     <use xlink:href="#m1da4dafdb8" x="343.599029" y="277.269426" style="fill: #1f77b4; stroke: #1f77b4"/>
     <use xlink:href="#m1da4dafdb8" x="346.307767" y="240.66815" style="fill: #1f77b4; stroke: #1f77b4"/>
     <use xlink:href="#m1da4dafdb8" x="349.016505" y="179.892518" style="fill: #1f77b4; stroke: #1f77b4"/>
     <use xlink:href="#m1da4dafdb8" x="351.725243" y="125.155108" style="fill: #1f77b4; stroke: #1f77b4"/>
     <use xlink:href="#m1da4dafdb8" x="354.433981" y="98.133302" style="fill: #1f77b4; stroke: #1f77b4"/>
     <use xlink:href="#m1da4dafdb8" x="357.142718" y="163.783528" style="fill: #1f77b4; stroke: #1f77b4"/>
     <use xlink:href="#m1da4dafdb8" x="359.851456" y="157.613257" style="fill: #1f77b4; stroke: #1f77b4"/>
     <use xlink:href="#m1da4dafdb8" x="362.560194" y="221.924364" style="fill: #1f77b4; stroke: #1f77b4"/>
     <use xlink:href="#m1da4dafdb8" x="365.268932" y="268.469005" style="fill: #1f77b4; stroke: #1f77b4"/>
     <use xlink:href="#m1da4dafdb8" x="367.97767" y="316.700111" style="fill: #1f77b4; stroke: #1f77b4"/>
     <use xlink:href="#m1da4dafdb8" x="370.686408" y="332.877857" style="fill: #1f77b4; stroke: #1f77b4"/>
     <use xlink:href="#m1da4dafdb8" x="373.395146" y="359.062705" style="fill: #1f77b4; stroke: #1f77b4"/>
     <use xlink:href="#m1da4dafdb8" x="376.103883" y="373.711511" style="fill: #1f77b4; stroke: #1f77b4"/>
     <use xlink:href="#m1da4dafdb8" x="378.812621" y="367.146766" style="fill: #1f77b4; stroke: #1f77b4"/>
     <use xlink:href="#m1da4dafdb8" x="381.521359" y="366.837772" style="fill: #1f77b4; stroke: #1f77b4"/>
     <use xlink:href="#m1da4dafdb8" x="384.230097" y="369.415933" style="fill: #1f77b4; stroke: #1f77b4"/>
     <use xlink:href="#m1da4dafdb8" x="386.938835" y="365.250273" style="fill: #1f77b4; stroke: #1f77b4"/>
     <use xlink:href="#m1da4dafdb8" x="389.647573" y="362.220945" style="fill: #1f77b4; stroke: #1f77b4"/>
     <use xlink:href="#m1da4dafdb8" x="392.356311" y="357.38297" style="fill: #1f77b4; stroke: #1f77b4"/>
     <use xlink:href="#m1da4dafdb8" x="395.065049" y="367.840882" style="fill: #1f77b4; stroke: #1f77b4"/>
     <use xlink:href="#m1da4dafdb8" x="397.773786" y="378.608234" style="fill: #1f77b4; stroke: #1f77b4"/>
     <use xlink:href="#m1da4dafdb8" x="400.482524" y="379.513065" style="fill: #1f77b4; stroke: #1f77b4"/>
     <use xlink:href="#m1da4dafdb8" x="403.191262" y="372.66714" style="fill: #1f77b4; stroke: #1f77b4"/>
     <use xlink:href="#m1da4dafdb8" x="405.9" y="372.599725" style="fill: #1f77b4; stroke: #1f77b4"/>
     <use xlink:href="#m1da4dafdb8" x="408.608738" y="337.60288" style="fill: #1f77b4; stroke: #1f77b4"/>
     <use xlink:href="#m1da4dafdb8" x="411.317476" y="348.298709" style="fill: #1f77b4; stroke: #1f77b4"/>
     <use xlink:href="#m1da4dafdb8" x="414.026214" y="375.829561" style="fill: #1f77b4; stroke: #1f77b4"/>
     <use xlink:href="#m1da4dafdb8" x="416.734951" y="374.36731" style="fill: #1f77b4; stroke: #1f77b4"/>
     <use xlink:href="#m1da4dafdb8" x="419.443689" y="373.636714" style="fill: #1f77b4; stroke: #1f77b4"/>
     <use xlink:href="#m1da4dafdb8" x="422.152427" y="372.803253" style="fill: #1f77b4; stroke: #1f77b4"/>
     <use xlink:href="#m1da4dafdb8" x="424.861165" y="365.625105" style="fill: #1f77b4; stroke: #1f77b4"/>
     <use xlink:href="#m1da4dafdb8" x="427.569903" y="363.244632" style="fill: #1f77b4; stroke: #1f77b4"/>
     <use xlink:href="#m1da4dafdb8" x="430.278641" y="368.214765" style="fill: #1f77b4; stroke: #1f77b4"/>
     <use xlink:href="#m1da4dafdb8" x="432.987379" y="369.169651" style="fill: #1f77b4; stroke: #1f77b4"/>
     <use xlink:href="#m1da4dafdb8" x="435.696117" y="370.3764" style="fill: #1f77b4; stroke: #1f77b4"/>
     <use xlink:href="#m1da4dafdb8" x="438.404854" y="370.628098" style="fill: #1f77b4; stroke: #1f77b4"/>
     <use xlink:href="#m1da4dafdb8" x="441.113592" y="370.503608" style="fill: #1f77b4; stroke: #1f77b4"/>
     <use xlink:href="#m1da4dafdb8" x="443.82233" y="357.356337" style="fill: #1f77b4; stroke: #1f77b4"/>
     <use xlink:href="#m1da4dafdb8" x="446.531068" y="360.157638" style="fill: #1f77b4; stroke: #1f77b4"/>
     <use xlink:href="#m1da4dafdb8" x="449.239806" y="364.839401" style="fill: #1f77b4; stroke: #1f77b4"/>
     <use xlink:href="#m1da4dafdb8" x="451.948544" y="375.030854" style="fill: #1f77b4; stroke: #1f77b4"/>
     <use xlink:href="#m1da4dafdb8" x="454.657282" y="355.4534" style="fill: #1f77b4; stroke: #1f77b4"/>
     <use xlink:href="#m1da4dafdb8" x="457.366019" y="356.801418" style="fill: #1f77b4; stroke: #1f77b4"/>
     <use xlink:href="#m1da4dafdb8" x="460.074757" y="346.361848" style="fill: #1f77b4; stroke: #1f77b4"/>
     <use xlink:href="#m1da4dafdb8" x="462.783495" y="350.546086" style="fill: #1f77b4; stroke: #1f77b4"/>
     <use xlink:href="#m1da4dafdb8" x="465.492233" y="359.587167" style="fill: #1f77b4; stroke: #1f77b4"/>
     <use xlink:href="#m1da4dafdb8" x="468.200971" y="379.510108" style="fill: #1f77b4; stroke: #1f77b4"/>
     <use xlink:href="#m1da4dafdb8" x="470.909709" y="378.012872" style="fill: #1f77b4; stroke: #1f77b4"/>
     <use xlink:href="#m1da4dafdb8" x="473.618447" y="363.383186" style="fill: #1f77b4; stroke: #1f77b4"/>
     <use xlink:href="#m1da4dafdb8" x="476.327184" y="369.815318" style="fill: #1f77b4; stroke: #1f77b4"/>
     <use xlink:href="#m1da4dafdb8" x="479.035922" y="377.765194" style="fill: #1f77b4; stroke: #1f77b4"/>
     <use xlink:href="#m1da4dafdb8" x="481.74466" y="372.812329" style="fill: #1f77b4; stroke: #1f77b4"/>
     <use xlink:href="#m1da4dafdb8" x="484.453398" y="375.215828" style="fill: #1f77b4; stroke: #1f77b4"/>
     <use xlink:href="#m1da4dafdb8" x="487.162136" y="355.737014" style="fill: #1f77b4; stroke: #1f77b4"/>
     <use xlink:href="#m1da4dafdb8" x="489.870874" y="375.900649" style="fill: #1f77b4; stroke: #1f77b4"/>
     <use xlink:href="#m1da4dafdb8" x="492.579612" y="377.79306" style="fill: #1f77b4; stroke: #1f77b4"/>
     <use xlink:href="#m1da4dafdb8" x="495.28835" y="373.036076" style="fill: #1f77b4; stroke: #1f77b4"/>
     <use xlink:href="#m1da4dafdb8" x="497.997087" y="356.052388" style="fill: #1f77b4; stroke: #1f77b4"/>
     <use xlink:href="#m1da4dafdb8" x="500.705825" y="355.036352" style="fill: #1f77b4; stroke: #1f77b4"/>
     <use xlink:href="#m1da4dafdb8" x="503.414563" y="368.188904" style="fill: #1f77b4; stroke: #1f77b4"/>
     <use xlink:href="#m1da4dafdb8" x="506.123301" y="340.3147" style="fill: #1f77b4; stroke: #1f77b4"/>
     <use xlink:href="#m1da4dafdb8" x="508.832039" y="336.658423" style="fill: #1f77b4; stroke: #1f77b4"/>
     <use xlink:href="#m1da4dafdb8" x="511.540777" y="328.643138" style="fill: #1f77b4; stroke: #1f77b4"/>
     <use xlink:href="#m1da4dafdb8" x="514.249515" y="323.549467" style="fill: #1f77b4; stroke: #1f77b4"/>
     <use xlink:href="#m1da4dafdb8" x="516.958252" y="302.601274" style="fill: #1f77b4; stroke: #1f77b4"/>
     <use xlink:href="#m1da4dafdb8" x="519.66699" y="313.987017" style="fill: #1f77b4; stroke: #1f77b4"/>
     <use xlink:href="#m1da4dafdb8" x="522.375728" y="369.571788" style="fill: #1f77b4; stroke: #1f77b4"/>
     <use xlink:href="#m1da4dafdb8" x="525.084466" y="349.623256" style="fill: #1f77b4; stroke: #1f77b4"/>
     <use xlink:href="#m1da4dafdb8" x="527.793204" y="320.752142" style="fill: #1f77b4; stroke: #1f77b4"/>
     <use xlink:href="#m1da4dafdb8" x="530.501942" y="354.251158" style="fill: #1f77b4; stroke: #1f77b4"/>
     <use xlink:href="#m1da4dafdb8" x="533.21068" y="376.151899" style="fill: #1f77b4; stroke: #1f77b4"/>
     <use xlink:href="#m1da4dafdb8" x="535.919417" y="375.333995" style="fill: #1f77b4; stroke: #1f77b4"/>
     <use xlink:href="#m1da4dafdb8" x="538.628155" y="374.836031" style="fill: #1f77b4; stroke: #1f77b4"/>
     <use xlink:href="#m1da4dafdb8" x="541.336893" y="373.277562" style="fill: #1f77b4; stroke: #1f77b4"/>
     <use xlink:href="#m1da4dafdb8" x="544.045631" y="371.813937" style="fill: #1f77b4; stroke: #1f77b4"/>
     <use xlink:href="#m1da4dafdb8" x="546.754369" y="366.706424" style="fill: #1f77b4; stroke: #1f77b4"/>
     <use xlink:href="#m1da4dafdb8" x="549.463107" y="374.222057" style="fill: #1f77b4; stroke: #1f77b4"/>
     <use xlink:href="#m1da4dafdb8" x="552.171845" y="374.256848" style="fill: #1f77b4; stroke: #1f77b4"/>
     <use xlink:href="#m1da4dafdb8" x="554.880583" y="367.547283" style="fill: #1f77b4; stroke: #1f77b4"/>
     <use xlink:href="#m1da4dafdb8" x="557.58932" y="369.260651" style="fill: #1f77b4; stroke: #1f77b4"/>
     <use xlink:href="#m1da4dafdb8" x="560.298058" y="365.506862" style="fill: #1f77b4; stroke: #1f77b4"/>
     <use xlink:href="#m1da4dafdb8" x="563.006796" y="365.042723" style="fill: #1f77b4; stroke: #1f77b4"/>
     <use xlink:href="#m1da4dafdb8" x="565.715534" y="359.478404" style="fill: #1f77b4; stroke: #1f77b4"/>
     <use xlink:href="#m1da4dafdb8" x="568.424272" y="364.194031" style="fill: #1f77b4; stroke: #1f77b4"/>
     <use xlink:href="#m1da4dafdb8" x="571.13301" y="363.071927" style="fill: #1f77b4; stroke: #1f77b4"/>
     <use xlink:href="#m1da4dafdb8" x="573.841748" y="364.292538" style="fill: #1f77b4; stroke: #1f77b4"/>
     <use xlink:href="#m1da4dafdb8" x="576.550485" y="373.225424" style="fill: #1f77b4; stroke: #1f77b4"/>
     <use xlink:href="#m1da4dafdb8" x="579.259223" y="375.745134" style="fill: #1f77b4; stroke: #1f77b4"/>
     <use xlink:href="#m1da4dafdb8" x="581.967961" y="368.261136" style="fill: #1f77b4; stroke: #1f77b4"/>
     <use xlink:href="#m1da4dafdb8" x="584.676699" y="370.214952" style="fill: #1f77b4; stroke: #1f77b4"/>
     <use xlink:href="#m1da4dafdb8" x="587.385437" y="370.372195" style="fill: #1f77b4; stroke: #1f77b4"/>
     <use xlink:href="#m1da4dafdb8" x="590.094175" y="367.936282" style="fill: #1f77b4; stroke: #1f77b4"/>
     <use xlink:href="#m1da4dafdb8" x="592.802913" y="369.519891" style="fill: #1f77b4; stroke: #1f77b4"/>
     <use xlink:href="#m1da4dafdb8" x="595.51165" y="372.42289" style="fill: #1f77b4; stroke: #1f77b4"/>
     <use xlink:href="#m1da4dafdb8" x="598.220388" y="365.787534" style="fill: #1f77b4; stroke: #1f77b4"/>
     <use xlink:href="#m1da4dafdb8" x="600.929126" y="366.566711" style="fill: #1f77b4; stroke: #1f77b4"/>
     <use xlink:href="#m1da4dafdb8" x="603.637864" y="366.170036" style="fill: #1f77b4; stroke: #1f77b4"/>
     <use xlink:href="#m1da4dafdb8" x="606.346602" y="358.146191" style="fill: #1f77b4; stroke: #1f77b4"/>
     <use xlink:href="#m1da4dafdb8" x="609.05534" y="362.793469" style="fill: #1f77b4; stroke: #1f77b4"/>
     <use xlink:href="#m1da4dafdb8" x="611.764078" y="360.581093" style="fill: #1f77b4; stroke: #1f77b4"/>
     <use xlink:href="#m1da4dafdb8" x="614.472816" y="367.672653" style="fill: #1f77b4; stroke: #1f77b4"/>
     <use xlink:href="#m1da4dafdb8" x="617.181553" y="348.215" style="fill: #1f77b4; stroke: #1f77b4"/>
     <use xlink:href="#m1da4dafdb8" x="619.890291" y="374.845846" style="fill: #1f77b4; stroke: #1f77b4"/>
     <use xlink:href="#m1da4dafdb8" x="622.599029" y="341.900735" style="fill: #1f77b4; stroke: #1f77b4"/>
     <use xlink:href="#m1da4dafdb8" x="625.307767" y="313.982502" style="fill: #1f77b4; stroke: #1f77b4"/>
     <use xlink:href="#m1da4dafdb8" x="628.016505" y="314.780353" style="fill: #1f77b4; stroke: #1f77b4"/>
     <use xlink:href="#m1da4dafdb8" x="630.725243" y="324.365264" style="fill: #1f77b4; stroke: #1f77b4"/>
     <use xlink:href="#m1da4dafdb8" x="633.433981" y="321.274587" style="fill: #1f77b4; stroke: #1f77b4"/>
     <use xlink:href="#m1da4dafdb8" x="636.142718" y="315.837869" style="fill: #1f77b4; stroke: #1f77b4"/>
     <use xlink:href="#m1da4dafdb8" x="638.851456" y="319.857236" style="fill: #1f77b4; stroke: #1f77b4"/>
     <use xlink:href="#m1da4dafdb8" x="641.560194" y="336.439865" style="fill: #1f77b4; stroke: #1f77b4"/>
     <use xlink:href="#m1da4dafdb8" x="644.268932" y="370.630099" style="fill: #1f77b4; stroke: #1f77b4"/>
     <use xlink:href="#m1da4dafdb8" x="646.97767" y="366.200947" style="fill: #1f77b4; stroke: #1f77b4"/>
     <use xlink:href="#m1da4dafdb8" x="649.686408" y="358.700523" style="fill: #1f77b4; stroke: #1f77b4"/>
     <use xlink:href="#m1da4dafdb8" x="652.395146" y="359.48323" style="fill: #1f77b4; stroke: #1f77b4"/>
     <use xlink:href="#m1da4dafdb8" x="655.103883" y="353.667421" style="fill: #1f77b4; stroke: #1f77b4"/>
     <use xlink:href="#m1da4dafdb8" x="657.812621" y="360.397702" style="fill: #1f77b4; stroke: #1f77b4"/>
     <use xlink:href="#m1da4dafdb8" x="660.521359" y="366.053798" style="fill: #1f77b4; stroke: #1f77b4"/>
     <use xlink:href="#m1da4dafdb8" x="663.230097" y="368.041712" style="fill: #1f77b4; stroke: #1f77b4"/>
     <use xlink:href="#m1da4dafdb8" x="665.938835" y="355.285262" style="fill: #1f77b4; stroke: #1f77b4"/>
     <use xlink:href="#m1da4dafdb8" x="668.647573" y="358.461294" style="fill: #1f77b4; stroke: #1f77b4"/>
     <use xlink:href="#m1da4dafdb8" x="671.356311" y="349.011901" style="fill: #1f77b4; stroke: #1f77b4"/>
     <use xlink:href="#m1da4dafdb8" x="674.065049" y="358.973933" style="fill: #1f77b4; stroke: #1f77b4"/>
     <use xlink:href="#m1da4dafdb8" x="676.773786" y="367.090886" style="fill: #1f77b4; stroke: #1f77b4"/>
     <use xlink:href="#m1da4dafdb8" x="679.482524" y="363.388319" style="fill: #1f77b4; stroke: #1f77b4"/>
     <use xlink:href="#m1da4dafdb8" x="682.191262" y="367.471139" style="fill: #1f77b4; stroke: #1f77b4"/>
     <use xlink:href="#m1da4dafdb8" x="684.9" y="370.740322" style="fill: #1f77b4; stroke: #1f77b4"/>
    </g>
   </g>
   <g id="matplotlib.axis_1">
    <g id="xtick_1">
     <g id="line2d_1">
      <path d="M 126.9 384.48 
L 126.9 51.84 
" clip-path="url(#pb8465ecae1)" style="fill: none; stroke: #b0b0b0; stroke-width: 0.8; stroke-linecap: square"/>
     </g>
     <g id="line2d_2">
      <defs>
       <path id="m4261dff3f5" d="M 0 0 
L 0 3.5 
" style="stroke: #000000; stroke-width: 0.8"/>
      </defs>
      <g>
       <use xlink:href="#m4261dff3f5" x="126.9" y="384.48" style="stroke: #000000; stroke-width: 0.8"/>
      </g>
     </g>
     <g id="text_1">
      <!-- 0 -->
      <g transform="translate(123.71875 399.078438)scale(0.1 -0.1)">
       <defs>
        <path id="DejaVuSans-30" d="M 2034 4250 
Q 1547 4250 1301 3770 
Q 1056 3291 1056 2328 
Q 1056 1369 1301 889 
Q 1547 409 2034 409 
Q 2525 409 2770 889 
Q 3016 1369 3016 2328 
Q 3016 3291 2770 3770 
Q 2525 4250 2034 4250 
z
M 2034 4750 
Q 2819 4750 3233 4129 
Q 3647 3509 3647 2328 
Q 3647 1150 3233 529 
Q 2819 -91 2034 -91 
Q 1250 -91 836 529 
Q 422 1150 422 2328 
Q 422 3509 836 4129 
Q 1250 4750 2034 4750 
z
" transform="scale(0.015625)"/>
       </defs>
       <use xlink:href="#DejaVuSans-30"/>
      </g>
     </g>
    </g>
    <g id="xtick_2">
     <g id="line2d_3">
      <path d="M 181.074757 384.48 
L 181.074757 51.84 
" clip-path="url(#pb8465ecae1)" style="fill: none; stroke: #b0b0b0; stroke-width: 0.8; stroke-linecap: square"/>
     </g>
     <g id="line2d_4">
      <g>
       <use xlink:href="#m4261dff3f5" x="181.074757" y="384.48" style="stroke: #000000; stroke-width: 0.8"/>
      </g>
     </g>
     <g id="text_2">
      <!-- 20 -->
      <g transform="translate(174.712257 399.078438)scale(0.1 -0.1)">
       <defs>
        <path id="DejaVuSans-32" d="M 1228 531 
L 3431 531 
L 3431 0 
L 469 0 
L 469 531 
Q 828 903 1448 1529 
Q 2069 2156 2228 2338 
Q 2531 2678 2651 2914 
Q 2772 3150 2772 3378 
Q 2772 3750 2511 3984 
Q 2250 4219 1831 4219 
Q 1534 4219 1204 4116 
Q 875 4013 500 3803 
L 500 4441 
Q 881 4594 1212 4672 
Q 1544 4750 1819 4750 
Q 2544 4750 2975 4387 
Q 3406 4025 3406 3419 
Q 3406 3131 3298 2873 
Q 3191 2616 2906 2266 
Q 2828 2175 2409 1742 
Q 1991 1309 1228 531 
z
" transform="scale(0.015625)"/>
       </defs>
       <use xlink:href="#DejaVuSans-32"/>
       <use xlink:href="#DejaVuSans-30" x="63.623047"/>
      </g>
     </g>
    </g>
    <g id="xtick_3">
     <g id="line2d_5">
      <path d="M 235.249515 384.48 
L 235.249515 51.84 
" clip-path="url(#pb8465ecae1)" style="fill: none; stroke: #b0b0b0; stroke-width: 0.8; stroke-linecap: square"/>
     </g>
     <g id="line2d_6">
      <g>
       <use xlink:href="#m4261dff3f5" x="235.249515" y="384.48" style="stroke: #000000; stroke-width: 0.8"/>
      </g>
     </g>
     <g id="text_3">
      <!-- 40 -->
      <g transform="translate(228.887015 399.078438)scale(0.1 -0.1)">
       <defs>
        <path id="DejaVuSans-34" d="M 2419 4116 
L 825 1625 
L 2419 1625 
L 2419 4116 
z
M 2253 4666 
L 3047 4666 
L 3047 1625 
L 3713 1625 
L 3713 1100 
L 3047 1100 
L 3047 0 
L 2419 0 
L 2419 1100 
L 313 1100 
L 313 1709 
L 2253 4666 
z
" transform="scale(0.015625)"/>
       </defs>
       <use xlink:href="#DejaVuSans-34"/>
       <use xlink:href="#DejaVuSans-30" x="63.623047"/>
      </g>
     </g>
    </g>
    <g id="xtick_4">
     <g id="line2d_7">
      <path d="M 289.424272 384.48 
L 289.424272 51.84 
" clip-path="url(#pb8465ecae1)" style="fill: none; stroke: #b0b0b0; stroke-width: 0.8; stroke-linecap: square"/>
     </g>
     <g id="line2d_8">
      <g>
       <use xlink:href="#m4261dff3f5" x="289.424272" y="384.48" style="stroke: #000000; stroke-width: 0.8"/>
      </g>
     </g>
     <g id="text_4">
      <!-- 60 -->
      <g transform="translate(283.061772 399.078438)scale(0.1 -0.1)">
       <defs>
        <path id="DejaVuSans-36" d="M 2113 2584 
Q 1688 2584 1439 2293 
Q 1191 2003 1191 1497 
Q 1191 994 1439 701 
Q 1688 409 2113 409 
Q 2538 409 2786 701 
Q 3034 994 3034 1497 
Q 3034 2003 2786 2293 
Q 2538 2584 2113 2584 
z
M 3366 4563 
L 3366 3988 
Q 3128 4100 2886 4159 
Q 2644 4219 2406 4219 
Q 1781 4219 1451 3797 
Q 1122 3375 1075 2522 
Q 1259 2794 1537 2939 
Q 1816 3084 2150 3084 
Q 2853 3084 3261 2657 
Q 3669 2231 3669 1497 
Q 3669 778 3244 343 
Q 2819 -91 2113 -91 
Q 1303 -91 875 529 
Q 447 1150 447 2328 
Q 447 3434 972 4092 
Q 1497 4750 2381 4750 
Q 2619 4750 2861 4703 
Q 3103 4656 3366 4563 
z
" transform="scale(0.015625)"/>
       </defs>
       <use xlink:href="#DejaVuSans-36"/>
       <use xlink:href="#DejaVuSans-30" x="63.623047"/>
      </g>
     </g>
    </g>
    <g id="xtick_5">
     <g id="line2d_9">
      <path d="M 343.599029 384.48 
L 343.599029 51.84 
" clip-path="url(#pb8465ecae1)" style="fill: none; stroke: #b0b0b0; stroke-width: 0.8; stroke-linecap: square"/>
     </g>
     <g id="line2d_10">
      <g>
       <use xlink:href="#m4261dff3f5" x="343.599029" y="384.48" style="stroke: #000000; stroke-width: 0.8"/>
      </g>
     </g>
     <g id="text_5">
      <!-- 80 -->
      <g transform="translate(337.236529 399.078438)scale(0.1 -0.1)">
       <defs>
        <path id="DejaVuSans-38" d="M 2034 2216 
Q 1584 2216 1326 1975 
Q 1069 1734 1069 1313 
Q 1069 891 1326 650 
Q 1584 409 2034 409 
Q 2484 409 2743 651 
Q 3003 894 3003 1313 
Q 3003 1734 2745 1975 
Q 2488 2216 2034 2216 
z
M 1403 2484 
Q 997 2584 770 2862 
Q 544 3141 544 3541 
Q 544 4100 942 4425 
Q 1341 4750 2034 4750 
Q 2731 4750 3128 4425 
Q 3525 4100 3525 3541 
Q 3525 3141 3298 2862 
Q 3072 2584 2669 2484 
Q 3125 2378 3379 2068 
Q 3634 1759 3634 1313 
Q 3634 634 3220 271 
Q 2806 -91 2034 -91 
Q 1263 -91 848 271 
Q 434 634 434 1313 
Q 434 1759 690 2068 
Q 947 2378 1403 2484 
z
M 1172 3481 
Q 1172 3119 1398 2916 
Q 1625 2713 2034 2713 
Q 2441 2713 2670 2916 
Q 2900 3119 2900 3481 
Q 2900 3844 2670 4047 
Q 2441 4250 2034 4250 
Q 1625 4250 1398 4047 
Q 1172 3844 1172 3481 
z
" transform="scale(0.015625)"/>
       </defs>
       <use xlink:href="#DejaVuSans-38"/>
       <use xlink:href="#DejaVuSans-30" x="63.623047"/>
      </g>
     </g>
    </g>
    <g id="xtick_6">
     <g id="line2d_11">
      <path d="M 397.773786 384.48 
L 397.773786 51.84 
" clip-path="url(#pb8465ecae1)" style="fill: none; stroke: #b0b0b0; stroke-width: 0.8; stroke-linecap: square"/>
     </g>
     <g id="line2d_12">
      <g>
       <use xlink:href="#m4261dff3f5" x="397.773786" y="384.48" style="stroke: #000000; stroke-width: 0.8"/>
      </g>
     </g>
     <g id="text_6">
      <!-- 100 -->
      <g transform="translate(388.230036 399.078438)scale(0.1 -0.1)">
       <defs>
        <path id="DejaVuSans-31" d="M 794 531 
L 1825 531 
L 1825 4091 
L 703 3866 
L 703 4441 
L 1819 4666 
L 2450 4666 
L 2450 531 
L 3481 531 
L 3481 0 
L 794 0 
L 794 531 
z
" transform="scale(0.015625)"/>
       </defs>
       <use xlink:href="#DejaVuSans-31"/>
       <use xlink:href="#DejaVuSans-30" x="63.623047"/>
       <use xlink:href="#DejaVuSans-30" x="127.246094"/>
      </g>
     </g>
    </g>
    <g id="xtick_7">
     <g id="line2d_13">
      <path d="M 451.948544 384.48 
L 451.948544 51.84 
" clip-path="url(#pb8465ecae1)" style="fill: none; stroke: #b0b0b0; stroke-width: 0.8; stroke-linecap: square"/>
     </g>
     <g id="line2d_14">
      <g>
       <use xlink:href="#m4261dff3f5" x="451.948544" y="384.48" style="stroke: #000000; stroke-width: 0.8"/>
      </g>
     </g>
     <g id="text_7">
      <!-- 120 -->
      <g transform="translate(442.404794 399.078438)scale(0.1 -0.1)">
       <use xlink:href="#DejaVuSans-31"/>
       <use xlink:href="#DejaVuSans-32" x="63.623047"/>
       <use xlink:href="#DejaVuSans-30" x="127.246094"/>
      </g>
     </g>
    </g>
    <g id="xtick_8">
     <g id="line2d_15">
      <path d="M 506.123301 384.48 
L 506.123301 51.84 
" clip-path="url(#pb8465ecae1)" style="fill: none; stroke: #b0b0b0; stroke-width: 0.8; stroke-linecap: square"/>
     </g>
     <g id="line2d_16">
      <g>
       <use xlink:href="#m4261dff3f5" x="506.123301" y="384.48" style="stroke: #000000; stroke-width: 0.8"/>
      </g>
     </g>
     <g id="text_8">
      <!-- 140 -->
      <g transform="translate(496.579551 399.078438)scale(0.1 -0.1)">
       <use xlink:href="#DejaVuSans-31"/>
       <use xlink:href="#DejaVuSans-34" x="63.623047"/>
       <use xlink:href="#DejaVuSans-30" x="127.246094"/>
      </g>
     </g>
    </g>
    <g id="xtick_9">
     <g id="line2d_17">
      <path d="M 560.298058 384.48 
L 560.298058 51.84 
" clip-path="url(#pb8465ecae1)" style="fill: none; stroke: #b0b0b0; stroke-width: 0.8; stroke-linecap: square"/>
     </g>
     <g id="line2d_18">
      <g>
       <use xlink:href="#m4261dff3f5" x="560.298058" y="384.48" style="stroke: #000000; stroke-width: 0.8"/>
      </g>
     </g>
     <g id="text_9">
      <!-- 160 -->
      <g transform="translate(550.754308 399.078438)scale(0.1 -0.1)">
       <use xlink:href="#DejaVuSans-31"/>
       <use xlink:href="#DejaVuSans-36" x="63.623047"/>
       <use xlink:href="#DejaVuSans-30" x="127.246094"/>
      </g>
     </g>
    </g>
    <g id="xtick_10">
     <g id="line2d_19">
      <path d="M 614.472816 384.48 
L 614.472816 51.84 
" clip-path="url(#pb8465ecae1)" style="fill: none; stroke: #b0b0b0; stroke-width: 0.8; stroke-linecap: square"/>
     </g>
     <g id="line2d_20">
      <g>
       <use xlink:href="#m4261dff3f5" x="614.472816" y="384.48" style="stroke: #000000; stroke-width: 0.8"/>
      </g>
     </g>
     <g id="text_10">
      <!-- 180 -->
      <g transform="translate(604.929066 399.078438)scale(0.1 -0.1)">
       <use xlink:href="#DejaVuSans-31"/>
       <use xlink:href="#DejaVuSans-38" x="63.623047"/>
       <use xlink:href="#DejaVuSans-30" x="127.246094"/>
      </g>
     </g>
    </g>
    <g id="xtick_11">
     <g id="line2d_21">
      <path d="M 668.647573 384.48 
L 668.647573 51.84 
" clip-path="url(#pb8465ecae1)" style="fill: none; stroke: #b0b0b0; stroke-width: 0.8; stroke-linecap: square"/>
     </g>
     <g id="line2d_22">
      <g>
       <use xlink:href="#m4261dff3f5" x="668.647573" y="384.48" style="stroke: #000000; stroke-width: 0.8"/>
      </g>
     </g>
     <g id="text_11">
      <!-- 200 -->
      <g transform="translate(659.103823 399.078438)scale(0.1 -0.1)">
       <use xlink:href="#DejaVuSans-32"/>
       <use xlink:href="#DejaVuSans-30" x="63.623047"/>
       <use xlink:href="#DejaVuSans-30" x="127.246094"/>
      </g>
     </g>
    </g>
    <g id="text_12">
     <!-- Residue no. -->
     <g transform="translate(376.842188 412.756563)scale(0.1 -0.1)">
      <defs>
       <path id="DejaVuSans-52" d="M 2841 2188 
Q 3044 2119 3236 1894 
Q 3428 1669 3622 1275 
L 4263 0 
L 3584 0 
L 2988 1197 
Q 2756 1666 2539 1819 
Q 2322 1972 1947 1972 
L 1259 1972 
L 1259 0 
L 628 0 
L 628 4666 
L 2053 4666 
Q 2853 4666 3247 4331 
Q 3641 3997 3641 3322 
Q 3641 2881 3436 2590 
Q 3231 2300 2841 2188 
z
M 1259 4147 
L 1259 2491 
L 2053 2491 
Q 2509 2491 2742 2702 
Q 2975 2913 2975 3322 
Q 2975 3731 2742 3939 
Q 2509 4147 2053 4147 
L 1259 4147 
z
" transform="scale(0.015625)"/>
       <path id="DejaVuSans-65" d="M 3597 1894 
L 3597 1613 
L 953 1613 
Q 991 1019 1311 708 
Q 1631 397 2203 397 
Q 2534 397 2845 478 
Q 3156 559 3463 722 
L 3463 178 
Q 3153 47 2828 -22 
Q 2503 -91 2169 -91 
Q 1331 -91 842 396 
Q 353 884 353 1716 
Q 353 2575 817 3079 
Q 1281 3584 2069 3584 
Q 2775 3584 3186 3129 
Q 3597 2675 3597 1894 
z
M 3022 2063 
Q 3016 2534 2758 2815 
Q 2500 3097 2075 3097 
Q 1594 3097 1305 2825 
Q 1016 2553 972 2059 
L 3022 2063 
z
" transform="scale(0.015625)"/>
       <path id="DejaVuSans-73" d="M 2834 3397 
L 2834 2853 
Q 2591 2978 2328 3040 
Q 2066 3103 1784 3103 
Q 1356 3103 1142 2972 
Q 928 2841 928 2578 
Q 928 2378 1081 2264 
Q 1234 2150 1697 2047 
L 1894 2003 
Q 2506 1872 2764 1633 
Q 3022 1394 3022 966 
Q 3022 478 2636 193 
Q 2250 -91 1575 -91 
Q 1294 -91 989 -36 
Q 684 19 347 128 
L 347 722 
Q 666 556 975 473 
Q 1284 391 1588 391 
Q 1994 391 2212 530 
Q 2431 669 2431 922 
Q 2431 1156 2273 1281 
Q 2116 1406 1581 1522 
L 1381 1569 
Q 847 1681 609 1914 
Q 372 2147 372 2553 
Q 372 3047 722 3315 
Q 1072 3584 1716 3584 
Q 2034 3584 2315 3537 
Q 2597 3491 2834 3397 
z
" transform="scale(0.015625)"/>
       <path id="DejaVuSans-69" d="M 603 3500 
L 1178 3500 
L 1178 0 
L 603 0 
L 603 3500 
z
M 603 4863 
L 1178 4863 
L 1178 4134 
L 603 4134 
L 603 4863 
z
" transform="scale(0.015625)"/>
       <path id="DejaVuSans-64" d="M 2906 2969 
L 2906 4863 
L 3481 4863 
L 3481 0 
L 2906 0 
L 2906 525 
Q 2725 213 2448 61 
Q 2172 -91 1784 -91 
Q 1150 -91 751 415 
Q 353 922 353 1747 
Q 353 2572 751 3078 
Q 1150 3584 1784 3584 
Q 2172 3584 2448 3432 
Q 2725 3281 2906 2969 
z
M 947 1747 
Q 947 1113 1208 752 
Q 1469 391 1925 391 
Q 2381 391 2643 752 
Q 2906 1113 2906 1747 
Q 2906 2381 2643 2742 
Q 2381 3103 1925 3103 
Q 1469 3103 1208 2742 
Q 947 2381 947 1747 
z
" transform="scale(0.015625)"/>
       <path id="DejaVuSans-75" d="M 544 1381 
L 544 3500 
L 1119 3500 
L 1119 1403 
Q 1119 906 1312 657 
Q 1506 409 1894 409 
Q 2359 409 2629 706 
Q 2900 1003 2900 1516 
L 2900 3500 
L 3475 3500 
L 3475 0 
L 2900 0 
L 2900 538 
Q 2691 219 2414 64 
Q 2138 -91 1772 -91 
Q 1169 -91 856 284 
Q 544 659 544 1381 
z
M 1991 3584 
L 1991 3584 
z
" transform="scale(0.015625)"/>
       <path id="DejaVuSans-20" transform="scale(0.015625)"/>
       <path id="DejaVuSans-6e" d="M 3513 2113 
L 3513 0 
L 2938 0 
L 2938 2094 
Q 2938 2591 2744 2837 
Q 2550 3084 2163 3084 
Q 1697 3084 1428 2787 
Q 1159 2491 1159 1978 
L 1159 0 
L 581 0 
L 581 3500 
L 1159 3500 
L 1159 2956 
Q 1366 3272 1645 3428 
Q 1925 3584 2291 3584 
Q 2894 3584 3203 3211 
Q 3513 2838 3513 2113 
z
" transform="scale(0.015625)"/>
       <path id="DejaVuSans-6f" d="M 1959 3097 
Q 1497 3097 1228 2736 
Q 959 2375 959 1747 
Q 959 1119 1226 758 
Q 1494 397 1959 397 
Q 2419 397 2687 759 
Q 2956 1122 2956 1747 
Q 2956 2369 2687 2733 
Q 2419 3097 1959 3097 
z
M 1959 3584 
Q 2709 3584 3137 3096 
Q 3566 2609 3566 1747 
Q 3566 888 3137 398 
Q 2709 -91 1959 -91 
Q 1206 -91 779 398 
Q 353 888 353 1747 
Q 353 2609 779 3096 
Q 1206 3584 1959 3584 
z
" transform="scale(0.015625)"/>
       <path id="DejaVuSans-2e" d="M 684 794 
L 1344 794 
L 1344 0 
L 684 0 
L 684 794 
z
" transform="scale(0.015625)"/>
      </defs>
      <use xlink:href="#DejaVuSans-52"/>
      <use xlink:href="#DejaVuSans-65" x="64.982422"/>
      <use xlink:href="#DejaVuSans-73" x="126.505859"/>
      <use xlink:href="#DejaVuSans-69" x="178.605469"/>
      <use xlink:href="#DejaVuSans-64" x="206.388672"/>
      <use xlink:href="#DejaVuSans-75" x="269.865234"/>
      <use xlink:href="#DejaVuSans-65" x="333.244141"/>
      <use xlink:href="#DejaVuSans-20" x="394.767578"/>
      <use xlink:href="#DejaVuSans-6e" x="426.554688"/>
      <use xlink:href="#DejaVuSans-6f" x="489.933594"/>
      <use xlink:href="#DejaVuSans-2e" x="549.365234"/>
     </g>
    </g>
   </g>
   <g id="matplotlib.axis_2">
    <g id="ytick_1">
     <g id="line2d_23">
      <path d="M 99 384.48 
L 712.8 384.48 
" clip-path="url(#pb8465ecae1)" style="fill: none; stroke: #b0b0b0; stroke-width: 0.8; stroke-linecap: square"/>
     </g>
     <g id="line2d_24">
      <defs>
       <path id="m3a1840cf3d" d="M 0 0 
L -3.5 0 
" style="stroke: #000000; stroke-width: 0.8"/>
      </defs>
      <g>
       <use xlink:href="#m3a1840cf3d" x="99" y="384.48" style="stroke: #000000; stroke-width: 0.8"/>
      </g>
     </g>
     <g id="text_13">
      <!-- 0 -->
      <g transform="translate(85.6375 388.279219)scale(0.1 -0.1)">
       <use xlink:href="#DejaVuSans-30"/>
      </g>
     </g>
    </g>
    <g id="ytick_2">
     <g id="line2d_25">
      <path d="M 99 338.186698 
L 712.8 338.186698 
" clip-path="url(#pb8465ecae1)" style="fill: none; stroke: #b0b0b0; stroke-width: 0.8; stroke-linecap: square"/>
     </g>
     <g id="line2d_26">
      <g>
       <use xlink:href="#m3a1840cf3d" x="99" y="338.186698" style="stroke: #000000; stroke-width: 0.8"/>
      </g>
     </g>
     <g id="text_14">
      <!-- 1 -->
      <g transform="translate(85.6375 341.985917)scale(0.1 -0.1)">
       <use xlink:href="#DejaVuSans-31"/>
      </g>
     </g>
    </g>
    <g id="ytick_3">
     <g id="line2d_27">
      <path d="M 99 291.893396 
L 712.8 291.893396 
" clip-path="url(#pb8465ecae1)" style="fill: none; stroke: #b0b0b0; stroke-width: 0.8; stroke-linecap: square"/>
     </g>
     <g id="line2d_28">
      <g>
       <use xlink:href="#m3a1840cf3d" x="99" y="291.893396" style="stroke: #000000; stroke-width: 0.8"/>
      </g>
     </g>
     <g id="text_15">
      <!-- 2 -->
      <g transform="translate(85.6375 295.692614)scale(0.1 -0.1)">
       <use xlink:href="#DejaVuSans-32"/>
      </g>
     </g>
    </g>
    <g id="ytick_4">
     <g id="line2d_29">
      <path d="M 99 245.600093 
L 712.8 245.600093 
" clip-path="url(#pb8465ecae1)" style="fill: none; stroke: #b0b0b0; stroke-width: 0.8; stroke-linecap: square"/>
     </g>
     <g id="line2d_30">
      <g>
       <use xlink:href="#m3a1840cf3d" x="99" y="245.600093" style="stroke: #000000; stroke-width: 0.8"/>
      </g>
     </g>
     <g id="text_16">
      <!-- 3 -->
      <g transform="translate(85.6375 249.399312)scale(0.1 -0.1)">
       <defs>
        <path id="DejaVuSans-33" d="M 2597 2516 
Q 3050 2419 3304 2112 
Q 3559 1806 3559 1356 
Q 3559 666 3084 287 
Q 2609 -91 1734 -91 
Q 1441 -91 1130 -33 
Q 819 25 488 141 
L 488 750 
Q 750 597 1062 519 
Q 1375 441 1716 441 
Q 2309 441 2620 675 
Q 2931 909 2931 1356 
Q 2931 1769 2642 2001 
Q 2353 2234 1838 2234 
L 1294 2234 
L 1294 2753 
L 1863 2753 
Q 2328 2753 2575 2939 
Q 2822 3125 2822 3475 
Q 2822 3834 2567 4026 
Q 2313 4219 1838 4219 
Q 1578 4219 1281 4162 
Q 984 4106 628 3988 
L 628 4550 
Q 988 4650 1302 4700 
Q 1616 4750 1894 4750 
Q 2613 4750 3031 4423 
Q 3450 4097 3450 3541 
Q 3450 3153 3228 2886 
Q 3006 2619 2597 2516 
z
" transform="scale(0.015625)"/>
       </defs>
       <use xlink:href="#DejaVuSans-33"/>
      </g>
     </g>
    </g>
    <g id="ytick_5">
     <g id="line2d_31">
      <path d="M 99 199.306791 
L 712.8 199.306791 
" clip-path="url(#pb8465ecae1)" style="fill: none; stroke: #b0b0b0; stroke-width: 0.8; stroke-linecap: square"/>
     </g>
     <g id="line2d_32">
      <g>
       <use xlink:href="#m3a1840cf3d" x="99" y="199.306791" style="stroke: #000000; stroke-width: 0.8"/>
      </g>
     </g>
     <g id="text_17">
      <!-- 4 -->
      <g transform="translate(85.6375 203.10601)scale(0.1 -0.1)">
       <use xlink:href="#DejaVuSans-34"/>
      </g>
     </g>
    </g>
    <g id="ytick_6">
     <g id="line2d_33">
      <path d="M 99 153.013489 
L 712.8 153.013489 
" clip-path="url(#pb8465ecae1)" style="fill: none; stroke: #b0b0b0; stroke-width: 0.8; stroke-linecap: square"/>
     </g>
     <g id="line2d_34">
      <g>
       <use xlink:href="#m3a1840cf3d" x="99" y="153.013489" style="stroke: #000000; stroke-width: 0.8"/>
      </g>
     </g>
     <g id="text_18">
      <!-- 5 -->
      <g transform="translate(85.6375 156.812708)scale(0.1 -0.1)">
       <defs>
        <path id="DejaVuSans-35" d="M 691 4666 
L 3169 4666 
L 3169 4134 
L 1269 4134 
L 1269 2991 
Q 1406 3038 1543 3061 
Q 1681 3084 1819 3084 
Q 2600 3084 3056 2656 
Q 3513 2228 3513 1497 
Q 3513 744 3044 326 
Q 2575 -91 1722 -91 
Q 1428 -91 1123 -41 
Q 819 9 494 109 
L 494 744 
Q 775 591 1075 516 
Q 1375 441 1709 441 
Q 2250 441 2565 725 
Q 2881 1009 2881 1497 
Q 2881 1984 2565 2268 
Q 2250 2553 1709 2553 
Q 1456 2553 1204 2497 
Q 953 2441 691 2322 
L 691 4666 
z
" transform="scale(0.015625)"/>
       </defs>
       <use xlink:href="#DejaVuSans-35"/>
      </g>
     </g>
    </g>
    <g id="ytick_7">
     <g id="line2d_35">
      <path d="M 99 106.720187 
L 712.8 106.720187 
" clip-path="url(#pb8465ecae1)" style="fill: none; stroke: #b0b0b0; stroke-width: 0.8; stroke-linecap: square"/>
     </g>
     <g id="line2d_36">
      <g>
       <use xlink:href="#m3a1840cf3d" x="99" y="106.720187" style="stroke: #000000; stroke-width: 0.8"/>
      </g>
     </g>
     <g id="text_19">
      <!-- 6 -->
      <g transform="translate(85.6375 110.519405)scale(0.1 -0.1)">
       <use xlink:href="#DejaVuSans-36"/>
      </g>
     </g>
    </g>
    <g id="ytick_8">
     <g id="line2d_37">
      <path d="M 99 60.426884 
L 712.8 60.426884 
" clip-path="url(#pb8465ecae1)" style="fill: none; stroke: #b0b0b0; stroke-width: 0.8; stroke-linecap: square"/>
     </g>
     <g id="line2d_38">
      <g>
       <use xlink:href="#m3a1840cf3d" x="99" y="60.426884" style="stroke: #000000; stroke-width: 0.8"/>
      </g>
     </g>
     <g id="text_20">
      <!-- 7 -->
      <g transform="translate(85.6375 64.226103)scale(0.1 -0.1)">
       <defs>
        <path id="DejaVuSans-37" d="M 525 4666 
L 3525 4666 
L 3525 4397 
L 1831 0 
L 1172 0 
L 2766 4134 
L 525 4134 
L 525 4666 
z
" transform="scale(0.015625)"/>
       </defs>
       <use xlink:href="#DejaVuSans-37"/>
      </g>
     </g>
    </g>
    <g id="text_21">
     <!-- Distance [$\mathring{A}$ngstrom] -->
     <g transform="translate(79.5375 269.86)rotate(-90)scale(0.1 -0.1)">
      <defs>
       <path id="DejaVuSans-44" d="M 1259 4147 
L 1259 519 
L 2022 519 
Q 2988 519 3436 956 
Q 3884 1394 3884 2338 
Q 3884 3275 3436 3711 
Q 2988 4147 2022 4147 
L 1259 4147 
z
M 628 4666 
L 1925 4666 
Q 3281 4666 3915 4102 
Q 4550 3538 4550 2338 
Q 4550 1131 3912 565 
Q 3275 0 1925 0 
L 628 0 
L 628 4666 
z
" transform="scale(0.015625)"/>
       <path id="DejaVuSans-74" d="M 1172 4494 
L 1172 3500 
L 2356 3500 
L 2356 3053 
L 1172 3053 
L 1172 1153 
Q 1172 725 1289 603 
Q 1406 481 1766 481 
L 2356 481 
L 2356 0 
L 1766 0 
Q 1100 0 847 248 
Q 594 497 594 1153 
L 594 3053 
L 172 3053 
L 172 3500 
L 594 3500 
L 594 4494 
L 1172 4494 
z
" transform="scale(0.015625)"/>
       <path id="DejaVuSans-61" d="M 2194 1759 
Q 1497 1759 1228 1600 
Q 959 1441 959 1056 
Q 959 750 1161 570 
Q 1363 391 1709 391 
Q 2188 391 2477 730 
Q 2766 1069 2766 1631 
L 2766 1759 
L 2194 1759 
z
M 3341 1997 
L 3341 0 
L 2766 0 
L 2766 531 
Q 2569 213 2275 61 
Q 1981 -91 1556 -91 
Q 1019 -91 701 211 
Q 384 513 384 1019 
Q 384 1609 779 1909 
Q 1175 2209 1959 2209 
L 2766 2209 
L 2766 2266 
Q 2766 2663 2505 2880 
Q 2244 3097 1772 3097 
Q 1472 3097 1187 3025 
Q 903 2953 641 2809 
L 641 3341 
Q 956 3463 1253 3523 
Q 1550 3584 1831 3584 
Q 2591 3584 2966 3190 
Q 3341 2797 3341 1997 
z
" transform="scale(0.015625)"/>
       <path id="DejaVuSans-63" d="M 3122 3366 
L 3122 2828 
Q 2878 2963 2633 3030 
Q 2388 3097 2138 3097 
Q 1578 3097 1268 2742 
Q 959 2388 959 1747 
Q 959 1106 1268 751 
Q 1578 397 2138 397 
Q 2388 397 2633 464 
Q 2878 531 3122 666 
L 3122 134 
Q 2881 22 2623 -34 
Q 2366 -91 2075 -91 
Q 1284 -91 818 406 
Q 353 903 353 1747 
Q 353 2603 823 3093 
Q 1294 3584 2113 3584 
Q 2378 3584 2631 3529 
Q 2884 3475 3122 3366 
z
" transform="scale(0.015625)"/>
       <path id="DejaVuSans-5b" d="M 550 4863 
L 1875 4863 
L 1875 4416 
L 1125 4416 
L 1125 -397 
L 1875 -397 
L 1875 -844 
L 550 -844 
L 550 4863 
z
" transform="scale(0.015625)"/>
       <path id="DejaVuSans-2218" d="M 2003 2603 
Q 1753 2603 1581 2429 
Q 1409 2256 1409 2006 
Q 1409 1759 1581 1589 
Q 1753 1419 2003 1419 
Q 2253 1419 2425 1589 
Q 2597 1759 2597 2006 
Q 2597 2253 2423 2428 
Q 2250 2603 2003 2603 
z
M 2003 3006 
Q 2203 3006 2387 2929 
Q 2572 2853 2706 2709 
Q 2850 2569 2922 2390 
Q 2994 2212 2994 2006 
Q 2994 1594 2705 1308 
Q 2416 1022 1997 1022 
Q 1575 1022 1294 1303 
Q 1013 1584 1013 2006 
Q 1013 2425 1300 2715 
Q 1588 3006 2003 3006 
z
" transform="scale(0.015625)"/>
       <path id="DejaVuSans-Oblique-41" d="M 2356 4666 
L 3072 4666 
L 3938 0 
L 3278 0 
L 3084 1197 
L 984 1197 
L 325 0 
L -341 0 
L 2356 4666 
z
M 2584 4044 
L 1275 1722 
L 2988 1722 
L 2584 4044 
z
" transform="scale(0.015625)"/>
       <path id="DejaVuSans-67" d="M 2906 1791 
Q 2906 2416 2648 2759 
Q 2391 3103 1925 3103 
Q 1463 3103 1205 2759 
Q 947 2416 947 1791 
Q 947 1169 1205 825 
Q 1463 481 1925 481 
Q 2391 481 2648 825 
Q 2906 1169 2906 1791 
z
M 3481 434 
Q 3481 -459 3084 -895 
Q 2688 -1331 1869 -1331 
Q 1566 -1331 1297 -1286 
Q 1028 -1241 775 -1147 
L 775 -588 
Q 1028 -725 1275 -790 
Q 1522 -856 1778 -856 
Q 2344 -856 2625 -561 
Q 2906 -266 2906 331 
L 2906 616 
Q 2728 306 2450 153 
Q 2172 0 1784 0 
Q 1141 0 747 490 
Q 353 981 353 1791 
Q 353 2603 747 3093 
Q 1141 3584 1784 3584 
Q 2172 3584 2450 3431 
Q 2728 3278 2906 2969 
L 2906 3500 
L 3481 3500 
L 3481 434 
z
" transform="scale(0.015625)"/>
       <path id="DejaVuSans-72" d="M 2631 2963 
Q 2534 3019 2420 3045 
Q 2306 3072 2169 3072 
Q 1681 3072 1420 2755 
Q 1159 2438 1159 1844 
L 1159 0 
L 581 0 
L 581 3500 
L 1159 3500 
L 1159 2956 
Q 1341 3275 1631 3429 
Q 1922 3584 2338 3584 
Q 2397 3584 2469 3576 
Q 2541 3569 2628 3553 
L 2631 2963 
z
" transform="scale(0.015625)"/>
       <path id="DejaVuSans-6d" d="M 3328 2828 
Q 3544 3216 3844 3400 
Q 4144 3584 4550 3584 
Q 5097 3584 5394 3201 
Q 5691 2819 5691 2113 
L 5691 0 
L 5113 0 
L 5113 2094 
Q 5113 2597 4934 2840 
Q 4756 3084 4391 3084 
Q 3944 3084 3684 2787 
Q 3425 2491 3425 1978 
L 3425 0 
L 2847 0 
L 2847 2094 
Q 2847 2600 2669 2842 
Q 2491 3084 2119 3084 
Q 1678 3084 1418 2786 
Q 1159 2488 1159 1978 
L 1159 0 
L 581 0 
L 581 3500 
L 1159 3500 
L 1159 2956 
Q 1356 3278 1631 3431 
Q 1906 3584 2284 3584 
Q 2666 3584 2933 3390 
Q 3200 3197 3328 2828 
z
" transform="scale(0.015625)"/>
       <path id="DejaVuSans-5d" d="M 1947 4863 
L 1947 -844 
L 622 -844 
L 622 -397 
L 1369 -397 
L 1369 4416 
L 622 4416 
L 622 4863 
L 1947 4863 
z
" transform="scale(0.015625)"/>
      </defs>
      <use xlink:href="#DejaVuSans-44" transform="translate(0 0.390625)"/>
      <use xlink:href="#DejaVuSans-69" transform="translate(77.001953 0.390625)"/>
      <use xlink:href="#DejaVuSans-73" transform="translate(104.785156 0.390625)"/>
      <use xlink:href="#DejaVuSans-74" transform="translate(156.884766 0.390625)"/>
      <use xlink:href="#DejaVuSans-61" transform="translate(196.09375 0.390625)"/>
      <use xlink:href="#DejaVuSans-6e" transform="translate(257.373047 0.390625)"/>
      <use xlink:href="#DejaVuSans-63" transform="translate(320.751953 0.390625)"/>
      <use xlink:href="#DejaVuSans-65" transform="translate(375.732422 0.390625)"/>
      <use xlink:href="#DejaVuSans-20" transform="translate(437.255859 0.390625)"/>
      <use xlink:href="#DejaVuSans-5b" transform="translate(469.042969 0.390625)"/>
      <use xlink:href="#DejaVuSans-2218" transform="translate(535.408691 77.96875)scale(0.49)"/>
      <use xlink:href="#DejaVuSans-Oblique-41" transform="translate(508.056641 0.390625)"/>
      <use xlink:href="#DejaVuSans-6e" transform="translate(576.464844 0.390625)"/>
      <use xlink:href="#DejaVuSans-67" transform="translate(639.84375 0.390625)"/>
      <use xlink:href="#DejaVuSans-73" transform="translate(703.320312 0.390625)"/>
      <use xlink:href="#DejaVuSans-74" transform="translate(755.419922 0.390625)"/>
      <use xlink:href="#DejaVuSans-72" transform="translate(794.628906 0.390625)"/>
      <use xlink:href="#DejaVuSans-6f" transform="translate(835.742188 0.390625)"/>
      <use xlink:href="#DejaVuSans-6d" transform="translate(896.923828 0.390625)"/>
      <use xlink:href="#DejaVuSans-5d" transform="translate(994.335938 0.390625)"/>
     </g>
    </g>
   </g>
   <g id="line2d_39">
    <path d="M 126.9 293.475769 
L 129.608738 369.680852 
L 132.317476 374.307232 
L 135.026214 374.058845 
L 137.734951 362.978389 
L 140.443689 362.852381 
L 145.861165 368.552256 
L 148.569903 366.840041 
L 151.278641 364.464603 
L 153.987379 366.739531 
L 156.696117 378.051684 
L 159.404854 361.449522 
L 162.113592 371.078809 
L 164.82233 347.668427 
L 167.531068 337.369908 
L 170.239806 338.656302 
L 172.948544 339.761657 
L 175.657282 351.237712 
L 178.366019 347.921645 
L 181.074757 295.496032 
L 183.783495 298.312379 
L 186.492233 286.809172 
L 189.200971 324.282297 
L 191.909709 343.219383 
L 194.618447 358.767085 
L 197.327184 365.659785 
L 200.035922 373.91139 
L 202.74466 366.906655 
L 205.453398 368.298746 
L 208.162136 362.191911 
L 210.870874 369.853865 
L 213.579612 368.554008 
L 216.28835 364.167106 
L 218.997087 372.705836 
L 221.705825 375.182126 
L 224.414563 376.083917 
L 227.123301 372.730816 
L 229.832039 368.132813 
L 232.540777 361.489433 
L 235.249515 373.464112 
L 237.958252 337.754835 
L 240.66699 358.675396 
L 243.375728 343.923768 
L 246.084466 329.921917 
L 248.793204 309.544385 
L 251.501942 358.393261 
L 254.21068 366.934177 
L 256.919417 363.956417 
L 259.628155 367.313262 
L 262.336893 374.306153 
L 265.045631 367.804996 
L 267.754369 357.408929 
L 270.463107 368.399352 
L 275.880583 359.307841 
L 278.58932 365.090483 
L 281.298058 375.311112 
L 284.006796 358.668054 
L 286.715534 355.191264 
L 289.424272 370.375589 
L 292.13301 364.586582 
L 294.841748 372.780329 
L 297.550485 380.154611 
L 300.259223 376.799092 
L 302.967961 380.13033 
L 305.676699 379.86623 
L 308.385437 374.523528 
L 311.094175 378.856978 
L 313.802913 376.815962 
L 316.51165 370.203069 
L 319.220388 377.592043 
L 321.929126 365.339068 
L 324.637864 365.826107 
L 327.346602 366.454234 
L 330.05534 366.555242 
L 332.764078 365.859847 
L 335.472816 366.758573 
L 338.181553 351.777121 
L 346.307767 240.66815 
L 349.016505 179.892518 
L 351.725243 125.155108 
L 354.433981 98.133302 
L 357.142718 163.783528 
L 359.851456 157.613257 
L 362.560194 221.924364 
L 367.97767 316.700111 
L 370.686408 332.877857 
L 373.395146 359.062705 
L 376.103883 373.711511 
L 378.812621 367.146766 
L 381.521359 366.837772 
L 384.230097 369.415933 
L 386.938835 365.250273 
L 389.647573 362.220945 
L 392.356311 357.38297 
L 397.773786 378.608234 
L 400.482524 379.513065 
L 403.191262 372.66714 
L 405.9 372.599725 
L 408.608738 337.60288 
L 411.317476 348.298709 
L 414.026214 375.829561 
L 416.734951 374.36731 
L 422.152427 372.803253 
L 424.861165 365.625105 
L 427.569903 363.244632 
L 430.278641 368.214765 
L 432.987379 369.169651 
L 435.696117 370.3764 
L 438.404854 370.628098 
L 441.113592 370.503608 
L 443.82233 357.356337 
L 446.531068 360.157638 
L 449.239806 364.839401 
L 451.948544 375.030854 
L 454.657282 355.4534 
L 457.366019 356.801418 
L 460.074757 346.361848 
L 462.783495 350.546086 
L 465.492233 359.587167 
L 468.200971 379.510108 
L 470.909709 378.012872 
L 473.618447 363.383186 
L 476.327184 369.815318 
L 479.035922 377.765194 
L 481.74466 372.812329 
L 484.453398 375.215828 
L 487.162136 355.737014 
L 489.870874 375.900649 
L 492.579612 377.79306 
L 495.28835 373.036076 
L 497.997087 356.052388 
L 500.705825 355.036352 
L 503.414563 368.188904 
L 506.123301 340.3147 
L 508.832039 336.658423 
L 511.540777 328.643138 
L 514.249515 323.549467 
L 516.958252 302.601274 
L 519.66699 313.987017 
L 522.375728 369.571788 
L 525.084466 349.623256 
L 527.793204 320.752142 
L 530.501942 354.251158 
L 533.21068 376.151899 
L 535.919417 375.333995 
L 538.628155 374.836031 
L 544.045631 371.813937 
L 546.754369 366.706424 
L 549.463107 374.222057 
L 552.171845 374.256848 
L 554.880583 367.547283 
L 557.58932 369.260651 
L 560.298058 365.506862 
L 563.006796 365.042723 
L 565.715534 359.478404 
L 568.424272 364.194031 
L 571.13301 363.071927 
L 573.841748 364.292538 
L 576.550485 373.225424 
L 579.259223 375.745134 
L 581.967961 368.261136 
L 584.676699 370.214952 
L 587.385437 370.372195 
L 590.094175 367.936282 
L 592.802913 369.519891 
L 595.51165 372.42289 
L 598.220388 365.787534 
L 600.929126 366.566711 
L 603.637864 366.170036 
L 606.346602 358.146191 
L 609.05534 362.793469 
L 611.764078 360.581093 
L 614.472816 367.672653 
L 617.181553 348.215 
L 619.890291 374.845846 
L 622.599029 341.900735 
L 625.307767 313.982502 
L 628.016505 314.780353 
L 630.725243 324.365264 
L 633.433981 321.274587 
L 636.142718 315.837869 
L 638.851456 319.857236 
L 641.560194 336.439865 
L 644.268932 370.630099 
L 646.97767 366.200947 
L 649.686408 358.700523 
L 652.395146 359.48323 
L 655.103883 353.667421 
L 657.812621 360.397702 
L 660.521359 366.053798 
L 663.230097 368.041712 
L 665.938835 355.285262 
L 668.647573 358.461294 
L 671.356311 349.011901 
L 674.065049 358.973933 
L 676.773786 367.090886 
L 679.482524 363.388319 
L 682.191262 367.471139 
L 684.9 370.740322 
L 684.9 370.740322 
" clip-path="url(#pb8465ecae1)" style="fill: none; stroke: #1f77b4; stroke-width: 2; stroke-linecap: square"/>
   </g>
   <g id="line2d_40">
    <path d="M 126.9 338.186698 
L 684.9 338.186698 
L 684.9 338.186698 
" clip-path="url(#pb8465ecae1)" style="fill: none; stroke: #ff0000; stroke-width: 1.5; stroke-linecap: square"/>
   </g>
   <g id="patch_3">
    <path d="M 99 384.48 
L 99 51.84 
" style="fill: none; stroke: #000000; stroke-width: 0.8; stroke-linejoin: miter; stroke-linecap: square"/>
   </g>
   <g id="patch_4">
    <path d="M 712.8 384.48 
L 712.8 51.84 
" style="fill: none; stroke: #000000; stroke-width: 0.8; stroke-linejoin: miter; stroke-linecap: square"/>
   </g>
   <g id="patch_5">
    <path d="M 99 384.48 
L 712.8 384.48 
" style="fill: none; stroke: #000000; stroke-width: 0.8; stroke-linejoin: miter; stroke-linecap: square"/>
   </g>
   <g id="patch_6">
    <path d="M 99 51.84 
L 712.8 51.84 
" style="fill: none; stroke: #000000; stroke-width: 0.8; stroke-linejoin: miter; stroke-linecap: square"/>
   </g>
   <g id="legend_1">
    <g id="patch_7">
     <path d="M 587.1 89.84 
L 705.8 89.84 
Q 707.8 89.84 707.8 87.84 
L 707.8 58.84 
Q 707.8 56.84 705.8 56.84 
L 587.1 56.84 
Q 585.1 56.84 585.1 58.84 
L 585.1 87.84 
Q 585.1 89.84 587.1 89.84 
z
" style="fill: #ffffff; opacity: 0.8; stroke: #cccccc; stroke-linejoin: miter"/>
    </g>
    <g id="PathCollection_2">
     <g>
      <use xlink:href="#m1da4dafdb8" x="599.1" y="65.815" style="fill: #1f77b4; stroke: #1f77b4"/>
     </g>
    </g>
    <g id="text_22">
     <!-- Distance $\alpha$-C pair -->
     <g transform="translate(617.1 68.44)scale(0.1 -0.1)">
      <defs>
       <path id="DejaVuSans-Oblique-3b1" d="M 2619 1628 
L 2622 2350 
Q 2625 3088 2069 3091 
Q 1653 3094 1394 2747 
Q 1069 2319 959 1747 
Q 825 1059 994 731 
Q 1169 397 1547 397 
Q 1966 397 2319 1063 
L 2619 1628 
z
M 2166 3578 
Q 3141 3594 3128 2584 
Q 3128 2584 3616 3500 
L 4128 3500 
L 3119 1603 
L 3109 919 
Q 3109 766 3194 638 
Q 3291 488 3391 488 
L 3669 488 
L 3575 0 
L 3228 0 
Q 2934 0 2722 263 
Q 2622 394 2619 669 
Q 2416 334 2066 50 
Q 1900 -81 1453 -78 
Q 722 -72 456 397 
Q 184 884 353 1747 
Q 534 2675 1009 3097 
Q 1544 3569 2166 3578 
z
" transform="scale(0.015625)"/>
       <path id="DejaVuSans-2d" d="M 313 2009 
L 1997 2009 
L 1997 1497 
L 313 1497 
L 313 2009 
z
" transform="scale(0.015625)"/>
       <path id="DejaVuSans-43" d="M 4122 4306 
L 4122 3641 
Q 3803 3938 3442 4084 
Q 3081 4231 2675 4231 
Q 1875 4231 1450 3742 
Q 1025 3253 1025 2328 
Q 1025 1406 1450 917 
Q 1875 428 2675 428 
Q 3081 428 3442 575 
Q 3803 722 4122 1019 
L 4122 359 
Q 3791 134 3420 21 
Q 3050 -91 2638 -91 
Q 1578 -91 968 557 
Q 359 1206 359 2328 
Q 359 3453 968 4101 
Q 1578 4750 2638 4750 
Q 3056 4750 3426 4639 
Q 3797 4528 4122 4306 
z
" transform="scale(0.015625)"/>
       <path id="DejaVuSans-70" d="M 1159 525 
L 1159 -1331 
L 581 -1331 
L 581 3500 
L 1159 3500 
L 1159 2969 
Q 1341 3281 1617 3432 
Q 1894 3584 2278 3584 
Q 2916 3584 3314 3078 
Q 3713 2572 3713 1747 
Q 3713 922 3314 415 
Q 2916 -91 2278 -91 
Q 1894 -91 1617 61 
Q 1341 213 1159 525 
z
M 3116 1747 
Q 3116 2381 2855 2742 
Q 2594 3103 2138 3103 
Q 1681 3103 1420 2742 
Q 1159 2381 1159 1747 
Q 1159 1113 1420 752 
Q 1681 391 2138 391 
Q 2594 391 2855 752 
Q 3116 1113 3116 1747 
z
" transform="scale(0.015625)"/>
      </defs>
      <use xlink:href="#DejaVuSans-44" transform="translate(0 0.015625)"/>
      <use xlink:href="#DejaVuSans-69" transform="translate(77.001953 0.015625)"/>
      <use xlink:href="#DejaVuSans-73" transform="translate(104.785156 0.015625)"/>
      <use xlink:href="#DejaVuSans-74" transform="translate(156.884766 0.015625)"/>
      <use xlink:href="#DejaVuSans-61" transform="translate(196.09375 0.015625)"/>
      <use xlink:href="#DejaVuSans-6e" transform="translate(257.373047 0.015625)"/>
      <use xlink:href="#DejaVuSans-63" transform="translate(320.751953 0.015625)"/>
      <use xlink:href="#DejaVuSans-65" transform="translate(375.732422 0.015625)"/>
      <use xlink:href="#DejaVuSans-20" transform="translate(437.255859 0.015625)"/>
      <use xlink:href="#DejaVuSans-Oblique-3b1" transform="translate(469.042969 0.015625)"/>
      <use xlink:href="#DejaVuSans-2d" transform="translate(534.960938 0.015625)"/>
      <use xlink:href="#DejaVuSans-43" transform="translate(571.044922 0.015625)"/>
      <use xlink:href="#DejaVuSans-20" transform="translate(640.869141 0.015625)"/>
      <use xlink:href="#DejaVuSans-70" transform="translate(672.65625 0.015625)"/>
      <use xlink:href="#DejaVuSans-61" transform="translate(736.132812 0.015625)"/>
      <use xlink:href="#DejaVuSans-69" transform="translate(797.412109 0.015625)"/>
      <use xlink:href="#DejaVuSans-72" transform="translate(825.195312 0.015625)"/>
     </g>
    </g>
    <g id="line2d_41">
     <path d="M 589.1 80.260312 
L 599.1 80.260312 
L 609.1 80.260312 
" style="fill: none; stroke: #ff0000; stroke-width: 1.5; stroke-linecap: square"/>
    </g>
    <g id="text_23">
     <!-- Cutoff = 1.0 $\mathring{A}$ -->
     <g transform="translate(617.1 83.760312)scale(0.1 -0.1)">
      <defs>
       <path id="DejaVuSans-66" d="M 2375 4863 
L 2375 4384 
L 1825 4384 
Q 1516 4384 1395 4259 
Q 1275 4134 1275 3809 
L 1275 3500 
L 2222 3500 
L 2222 3053 
L 1275 3053 
L 1275 0 
L 697 0 
L 697 3053 
L 147 3053 
L 147 3500 
L 697 3500 
L 697 3744 
Q 697 4328 969 4595 
Q 1241 4863 1831 4863 
L 2375 4863 
z
" transform="scale(0.015625)"/>
       <path id="DejaVuSans-3d" d="M 678 2906 
L 4684 2906 
L 4684 2381 
L 678 2381 
L 678 2906 
z
M 678 1631 
L 4684 1631 
L 4684 1100 
L 678 1100 
L 678 1631 
z
" transform="scale(0.015625)"/>
      </defs>
      <use xlink:href="#DejaVuSans-43" transform="translate(0 0.390625)"/>
      <use xlink:href="#DejaVuSans-75" transform="translate(69.824219 0.390625)"/>
      <use xlink:href="#DejaVuSans-74" transform="translate(133.203125 0.390625)"/>
      <use xlink:href="#DejaVuSans-6f" transform="translate(172.412109 0.390625)"/>
      <use xlink:href="#DejaVuSans-66" transform="translate(233.59375 0.390625)"/>
      <use xlink:href="#DejaVuSans-66" transform="translate(268.798828 0.390625)"/>
      <use xlink:href="#DejaVuSans-20" transform="translate(304.003906 0.390625)"/>
      <use xlink:href="#DejaVuSans-3d" transform="translate(335.791016 0.390625)"/>
      <use xlink:href="#DejaVuSans-20" transform="translate(419.580078 0.390625)"/>
      <use xlink:href="#DejaVuSans-31" transform="translate(451.367188 0.390625)"/>
      <use xlink:href="#DejaVuSans-2e" transform="translate(514.990234 0.390625)"/>
      <use xlink:href="#DejaVuSans-30" transform="translate(546.777344 0.390625)"/>
      <use xlink:href="#DejaVuSans-20" transform="translate(610.400391 0.390625)"/>
      <use xlink:href="#DejaVuSans-2218" transform="translate(669.539551 77.96875)scale(0.49)"/>
      <use xlink:href="#DejaVuSans-Oblique-41" transform="translate(642.1875 0.390625)"/>
     </g>
    </g>
   </g>
  </g>
 </g>
 <defs>
  <clipPath id="pb8465ecae1">
   <rect x="99" y="51.84" width="613.8" height="332.64"/>
  </clipPath>
 </defs>
</svg>
