<?xml version="1.0" encoding="utf-8" standalone="no"?>
<!DOCTYPE svg PUBLIC "-//W3C//DTD SVG 1.1//EN"
  "http://www.w3.org/Graphics/SVG/1.1/DTD/svg11.dtd">
<svg xmlns:xlink="http://www.w3.org/1999/xlink" width="792pt" height="1500pt" viewBox="0 0 792 1500" xmlns="http://www.w3.org/2000/svg" version="1.1">
 <metadata>
  <rdf:RDF xmlns:dc="http://purl.org/dc/elements/1.1/" xmlns:cc="http://creativecommons.org/ns#" xmlns:rdf="http://www.w3.org/1999/02/22-rdf-syntax-ns#">
   <cc:Work>
    <dc:type rdf:resource="http://purl.org/dc/dcmitype/StillImage"/>
    <dc:date>2022-06-09T15:50:48.239626</dc:date>
    <dc:format>image/svg+xml</dc:format>
    <dc:creator>
     <cc:Agent>
      <dc:title>Matplotlib v3.5.1, https://matplotlib.org/</dc:title>
     </cc:Agent>
    </dc:creator>
   </cc:Work>
  </rdf:RDF>
 </metadata>
 <defs>
  <style type="text/css">*{stroke-linejoin: round; stroke-linecap: butt}</style>
 </defs>
 <g id="figure_1">
  <g id="patch_1">
   <path d="M 0 1500
L 792 1500
L 792 0
L 0 0
z
" style="fill: #ffffff"/>
  </g>
  <g id="axes_1">
   <g id="patch_2">
    <path d="M 99 1335
L 712.8 1335
L 712.8 180
L 99 180
z
" style="fill: #ffffff"/>
   </g>
   <g id="patch_3">
    <path d="M 99 1282.5
L 364.714286 1282.5
L 364.714286 1238.75
L 99 1238.75
z
" clip-path="url(#p2ebc430987)" style="fill: #1f77b4"/>
   </g>
   <g id="patch_4">
    <path d="M 99 1238.75
L 683.571429 1238.75
L 683.571429 1195
L 99 1195
z
" clip-path="url(#p2ebc430987)" style="fill: #1f77b4"/>
   </g>
   <g id="patch_5">
    <path d="M 99 1195
L 304.928571 1195
L 304.928571 1151.25
L 99 1151.25
z
" clip-path="url(#p2ebc430987)" style="fill: #1f77b4"/>
   </g>
   <g id="patch_6">
    <path d="M 99 1151.25
L 185.357143 1151.25
L 185.357143 1107.5
L 99 1107.5
z
" clip-path="url(#p2ebc430987)" style="fill: #1f77b4"/>
   </g>
   <g id="patch_7">
    <path d="M 99 1107.5
L 152.142857 1107.5
L 152.142857 1063.75
L 99 1063.75
z
" clip-path="url(#p2ebc430987)" style="fill: #1f77b4"/>
   </g>
   <g id="patch_8">
    <path d="M 99 1063.75
L 152.142857 1063.75
L 152.142857 1020
L 99 1020
z
" clip-path="url(#p2ebc430987)" style="fill: #1f77b4"/>
   </g>
   <g id="patch_9">
    <path d="M 99 1020
L 132.214286 1020
L 132.214286 976.25
L 99 976.25
z
" clip-path="url(#p2ebc430987)" style="fill: #1f77b4"/>
   </g>
   <g id="patch_10">
    <path d="M 99 976.25
L 125.571429 976.25
L 125.571429 932.5
L 99 932.5
z
" clip-path="url(#p2ebc430987)" style="fill: #1f77b4"/>
   </g>
   <g id="patch_11">
    <path d="M 99 932.5
L 105.642857 932.5
L 105.642857 888.75
L 99 888.75
z
" clip-path="url(#p2ebc430987)" style="fill: #1f77b4"/>
   </g>
   <g id="patch_12">
    <path d="M 99 888.75
L 105.642857 888.75
L 105.642857 845
L 99 845
z
" clip-path="url(#p2ebc430987)" style="fill: #1f77b4"/>
   </g>
   <g id="patch_13">
    <path d="M 99 845
L 105.642857 845
L 105.642857 801.25
L 99 801.25
z
" clip-path="url(#p2ebc430987)" style="fill: #1f77b4"/>
   </g>
   <g id="patch_14">
    <path d="M 99 801.25
L 99 801.25
L 99 757.5
L 99 757.5
z
" clip-path="url(#p2ebc430987)" style="fill: #1f77b4"/>
   </g>
   <g id="patch_15">
    <path d="M 99 757.5
L 105.642857 757.5
L 105.642857 713.75
L 99 713.75
z
" clip-path="url(#p2ebc430987)" style="fill: #1f77b4"/>
   </g>
   <g id="patch_16">
    <path d="M 99 713.75
L 99 713.75
L 99 670
L 99 670
z
" clip-path="url(#p2ebc430987)" style="fill: #1f77b4"/>
   </g>
   <g id="patch_17">
    <path d="M 99 670
L 105.642857 670
L 105.642857 626.25
L 99 626.25
z
" clip-path="url(#p2ebc430987)" style="fill: #1f77b4"/>
   </g>
   <g id="patch_18">
    <path d="M 99 626.25
L 99 626.25
L 99 582.5
L 99 582.5
z
" clip-path="url(#p2ebc430987)" style="fill: #1f77b4"/>
   </g>
   <g id="patch_19">
    <path d="M 99 582.5
L 99 582.5
L 99 538.75
L 99 538.75
z
" clip-path="url(#p2ebc430987)" style="fill: #1f77b4"/>
   </g>
   <g id="patch_20">
    <path d="M 99 538.75
L 105.642857 538.75
L 105.642857 495
L 99 495
z
" clip-path="url(#p2ebc430987)" style="fill: #1f77b4"/>
   </g>
   <g id="patch_21">
    <path d="M 99 495
L 99 495
L 99 451.25
L 99 451.25
z
" clip-path="url(#p2ebc430987)" style="fill: #1f77b4"/>
   </g>
   <g id="patch_22">
    <path d="M 99 451.25
L 112.285714 451.25
L 112.285714 407.5
L 99 407.5
z
" clip-path="url(#p2ebc430987)" style="fill: #1f77b4"/>
   </g>
   <g id="patch_23">
    <path d="M 99 407.5
L 99 407.5
L 99 363.75
L 99 363.75
z
" clip-path="url(#p2ebc430987)" style="fill: #1f77b4"/>
   </g>
   <g id="patch_24">
    <path d="M 99 363.75
L 99 363.75
L 99 320
L 99 320
z
" clip-path="url(#p2ebc430987)" style="fill: #1f77b4"/>
   </g>
   <g id="patch_25">
    <path d="M 99 320
L 105.642857 320
L 105.642857 276.25
L 99 276.25
z
" clip-path="url(#p2ebc430987)" style="fill: #1f77b4"/>
   </g>
   <g id="patch_26">
    <path d="M 99 276.25
L 99 276.25
L 99 232.5
L 99 232.5
z
" clip-path="url(#p2ebc430987)" style="fill: #1f77b4"/>
   </g>
   <g id="matplotlib.axis_1">
    <g id="xtick_1">
     <g id="line2d_1">
      <path d="M 99 1335
L 99 180
" clip-path="url(#p2ebc430987)" style="fill: none; stroke: #b0b0b0; stroke-width: 0.8; stroke-linecap: square"/>
     </g>
     <g id="line2d_2">
      <defs>
       <path id="m71e4bf2ee8" d="M 0 0
L 0 3.5
" style="stroke: #000000; stroke-width: 0.8"/>
      </defs>
      <g>
       <use xlink:href="#m71e4bf2ee8" x="99" y="1335" style="stroke: #000000; stroke-width: 0.8"/>
      </g>
     </g>
     <g id="text_1">
      <!-- 0 -->
      <g transform="translate(95.81875 1349.598438)scale(0.1 -0.1)">
       <defs>
        <path id="DejaVuSans-30" d="M 2034 4250
Q 1547 4250 1301 3770
Q 1056 3291 1056 2328
Q 1056 1369 1301 889
Q 1547 409 2034 409
Q 2525 409 2770 889
Q 3016 1369 3016 2328
Q 3016 3291 2770 3770
Q 2525 4250 2034 4250
z
M 2034 4750
Q 2819 4750 3233 4129
Q 3647 3509 3647 2328
Q 3647 1150 3233 529
Q 2819 -91 2034 -91
Q 1250 -91 836 529
Q 422 1150 422 2328
Q 422 3509 836 4129
Q 1250 4750 2034 4750
z
" transform="scale(0.015625)"/>
       </defs>
       <use xlink:href="#DejaVuSans-30"/>
      </g>
     </g>
    </g>
    <g id="xtick_2">
     <g id="line2d_3">
      <path d="M 231.857143 1335
L 231.857143 180
" clip-path="url(#p2ebc430987)" style="fill: none; stroke: #b0b0b0; stroke-width: 0.8; stroke-linecap: square"/>
     </g>
     <g id="line2d_4">
      <g>
       <use xlink:href="#m71e4bf2ee8" x="231.857143" y="1335" style="stroke: #000000; stroke-width: 0.8"/>
      </g>
     </g>
     <g id="text_2">
      <!-- 20 -->
      <g transform="translate(225.494643 1349.598438)scale(0.1 -0.1)">
       <defs>
        <path id="DejaVuSans-32" d="M 1228 531
L 3431 531
L 3431 0
L 469 0
L 469 531
Q 828 903 1448 1529
Q 2069 2156 2228 2338
Q 2531 2678 2651 2914
Q 2772 3150 2772 3378
Q 2772 3750 2511 3984
Q 2250 4219 1831 4219
Q 1534 4219 1204 4116
Q 875 4013 500 3803
L 500 4441
Q 881 4594 1212 4672
Q 1544 4750 1819 4750
Q 2544 4750 2975 4387
Q 3406 4025 3406 3419
Q 3406 3131 3298 2873
Q 3191 2616 2906 2266
Q 2828 2175 2409 1742
Q 1991 1309 1228 531
z
" transform="scale(0.015625)"/>
       </defs>
       <use xlink:href="#DejaVuSans-32"/>
       <use xlink:href="#DejaVuSans-30" x="63.623047"/>
      </g>
     </g>
    </g>
    <g id="xtick_3">
     <g id="line2d_5">
      <path d="M 364.714286 1335
L 364.714286 180
" clip-path="url(#p2ebc430987)" style="fill: none; stroke: #b0b0b0; stroke-width: 0.8; stroke-linecap: square"/>
     </g>
     <g id="line2d_6">
      <g>
       <use xlink:href="#m71e4bf2ee8" x="364.714286" y="1335" style="stroke: #000000; stroke-width: 0.8"/>
      </g>
     </g>
     <g id="text_3">
      <!-- 40 -->
      <g transform="translate(358.351786 1349.598438)scale(0.1 -0.1)">
       <defs>
        <path id="DejaVuSans-34" d="M 2419 4116
L 825 1625
L 2419 1625
L 2419 4116
z
M 2253 4666
L 3047 4666
L 3047 1625
L 3713 1625
L 3713 1100
L 3047 1100
L 3047 0
L 2419 0
L 2419 1100
L 313 1100
L 313 1709
L 2253 4666
z
" transform="scale(0.015625)"/>
       </defs>
       <use xlink:href="#DejaVuSans-34"/>
       <use xlink:href="#DejaVuSans-30" x="63.623047"/>
      </g>
     </g>
    </g>
    <g id="xtick_4">
     <g id="line2d_7">
      <path d="M 497.571429 1335
L 497.571429 180
" clip-path="url(#p2ebc430987)" style="fill: none; stroke: #b0b0b0; stroke-width: 0.8; stroke-linecap: square"/>
     </g>
     <g id="line2d_8">
      <g>
       <use xlink:href="#m71e4bf2ee8" x="497.571429" y="1335" style="stroke: #000000; stroke-width: 0.8"/>
      </g>
     </g>
     <g id="text_4">
      <!-- 60 -->
      <g transform="translate(491.208929 1349.598438)scale(0.1 -0.1)">
       <defs>
        <path id="DejaVuSans-36" d="M 2113 2584
Q 1688 2584 1439 2293
Q 1191 2003 1191 1497
Q 1191 994 1439 701
Q 1688 409 2113 409
Q 2538 409 2786 701
Q 3034 994 3034 1497
Q 3034 2003 2786 2293
Q 2538 2584 2113 2584
z
M 3366 4563
L 3366 3988
Q 3128 4100 2886 4159
Q 2644 4219 2406 4219
Q 1781 4219 1451 3797
Q 1122 3375 1075 2522
Q 1259 2794 1537 2939
Q 1816 3084 2150 3084
Q 2853 3084 3261 2657
Q 3669 2231 3669 1497
Q 3669 778 3244 343
Q 2819 -91 2113 -91
Q 1303 -91 875 529
Q 447 1150 447 2328
Q 447 3434 972 4092
Q 1497 4750 2381 4750
Q 2619 4750 2861 4703
Q 3103 4656 3366 4563
z
" transform="scale(0.015625)"/>
       </defs>
       <use xlink:href="#DejaVuSans-36"/>
       <use xlink:href="#DejaVuSans-30" x="63.623047"/>
      </g>
     </g>
    </g>
    <g id="xtick_5">
     <g id="line2d_9">
      <path d="M 630.428571 1335
L 630.428571 180
" clip-path="url(#p2ebc430987)" style="fill: none; stroke: #b0b0b0; stroke-width: 0.8; stroke-linecap: square"/>
     </g>
     <g id="line2d_10">
      <g>
       <use xlink:href="#m71e4bf2ee8" x="630.428571" y="1335" style="stroke: #000000; stroke-width: 0.8"/>
      </g>
     </g>
     <g id="text_5">
      <!-- 80 -->
      <g transform="translate(624.066071 1349.598438)scale(0.1 -0.1)">
       <defs>
        <path id="DejaVuSans-38" d="M 2034 2216
Q 1584 2216 1326 1975
Q 1069 1734 1069 1313
Q 1069 891 1326 650
Q 1584 409 2034 409
Q 2484 409 2743 651
Q 3003 894 3003 1313
Q 3003 1734 2745 1975
Q 2488 2216 2034 2216
z
M 1403 2484
Q 997 2584 770 2862
Q 544 3141 544 3541
Q 544 4100 942 4425
Q 1341 4750 2034 4750
Q 2731 4750 3128 4425
Q 3525 4100 3525 3541
Q 3525 3141 3298 2862
Q 3072 2584 2669 2484
Q 3125 2378 3379 2068
Q 3634 1759 3634 1313
Q 3634 634 3220 271
Q 2806 -91 2034 -91
Q 1263 -91 848 271
Q 434 634 434 1313
Q 434 1759 690 2068
Q 947 2378 1403 2484
z
M 1172 3481
Q 1172 3119 1398 2916
Q 1625 2713 2034 2713
Q 2441 2713 2670 2916
Q 2900 3119 2900 3481
Q 2900 3844 2670 4047
Q 2441 4250 2034 4250
Q 1625 4250 1398 4047
Q 1172 3844 1172 3481
z
" transform="scale(0.015625)"/>
       </defs>
       <use xlink:href="#DejaVuSans-38"/>
       <use xlink:href="#DejaVuSans-30" x="63.623047"/>
      </g>
     </g>
    </g>
    <g id="text_6">
     <!-- Frequency of $\alpha$-C atoms distance -->
     <g transform="translate(323.05 1363.278125)scale(0.1 -0.1)">
      <defs>
       <path id="DejaVuSans-46" d="M 628 4666
L 3309 4666
L 3309 4134
L 1259 4134
L 1259 2759
L 3109 2759
L 3109 2228
L 1259 2228
L 1259 0
L 628 0
L 628 4666
z
" transform="scale(0.015625)"/>
       <path id="DejaVuSans-72" d="M 2631 2963
Q 2534 3019 2420 3045
Q 2306 3072 2169 3072
Q 1681 3072 1420 2755
Q 1159 2438 1159 1844
L 1159 0
L 581 0
L 581 3500
L 1159 3500
L 1159 2956
Q 1341 3275 1631 3429
Q 1922 3584 2338 3584
Q 2397 3584 2469 3576
Q 2541 3569 2628 3553
L 2631 2963
z
" transform="scale(0.015625)"/>
       <path id="DejaVuSans-65" d="M 3597 1894
L 3597 1613
L 953 1613
Q 991 1019 1311 708
Q 1631 397 2203 397
Q 2534 397 2845 478
Q 3156 559 3463 722
L 3463 178
Q 3153 47 2828 -22
Q 2503 -91 2169 -91
Q 1331 -91 842 396
Q 353 884 353 1716
Q 353 2575 817 3079
Q 1281 3584 2069 3584
Q 2775 3584 3186 3129
Q 3597 2675 3597 1894
z
M 3022 2063
Q 3016 2534 2758 2815
Q 2500 3097 2075 3097
Q 1594 3097 1305 2825
Q 1016 2553 972 2059
L 3022 2063
z
" transform="scale(0.015625)"/>
       <path id="DejaVuSans-71" d="M 947 1747
Q 947 1113 1208 752
Q 1469 391 1925 391
Q 2381 391 2643 752
Q 2906 1113 2906 1747
Q 2906 2381 2643 2742
Q 2381 3103 1925 3103
Q 1469 3103 1208 2742
Q 947 2381 947 1747
z
M 2906 525
Q 2725 213 2448 61
Q 2172 -91 1784 -91
Q 1150 -91 751 415
Q 353 922 353 1747
Q 353 2572 751 3078
Q 1150 3584 1784 3584
Q 2172 3584 2448 3432
Q 2725 3281 2906 2969
L 2906 3500
L 3481 3500
L 3481 -1331
L 2906 -1331
L 2906 525
z
" transform="scale(0.015625)"/>
       <path id="DejaVuSans-75" d="M 544 1381
L 544 3500
L 1119 3500
L 1119 1403
Q 1119 906 1312 657
Q 1506 409 1894 409
Q 2359 409 2629 706
Q 2900 1003 2900 1516
L 2900 3500
L 3475 3500
L 3475 0
L 2900 0
L 2900 538
Q 2691 219 2414 64
Q 2138 -91 1772 -91
Q 1169 -91 856 284
Q 544 659 544 1381
z
M 1991 3584
L 1991 3584
z
" transform="scale(0.015625)"/>
       <path id="DejaVuSans-6e" d="M 3513 2113
L 3513 0
L 2938 0
L 2938 2094
Q 2938 2591 2744 2837
Q 2550 3084 2163 3084
Q 1697 3084 1428 2787
Q 1159 2491 1159 1978
L 1159 0
L 581 0
L 581 3500
L 1159 3500
L 1159 2956
Q 1366 3272 1645 3428
Q 1925 3584 2291 3584
Q 2894 3584 3203 3211
Q 3513 2838 3513 2113
z
" transform="scale(0.015625)"/>
       <path id="DejaVuSans-63" d="M 3122 3366
L 3122 2828
Q 2878 2963 2633 3030
Q 2388 3097 2138 3097
Q 1578 3097 1268 2742
Q 959 2388 959 1747
Q 959 1106 1268 751
Q 1578 397 2138 397
Q 2388 397 2633 464
Q 2878 531 3122 666
L 3122 134
Q 2881 22 2623 -34
Q 2366 -91 2075 -91
Q 1284 -91 818 406
Q 353 903 353 1747
Q 353 2603 823 3093
Q 1294 3584 2113 3584
Q 2378 3584 2631 3529
Q 2884 3475 3122 3366
z
" transform="scale(0.015625)"/>
       <path id="DejaVuSans-79" d="M 2059 -325
Q 1816 -950 1584 -1140
Q 1353 -1331 966 -1331
L 506 -1331
L 506 -850
L 844 -850
Q 1081 -850 1212 -737
Q 1344 -625 1503 -206
L 1606 56
L 191 3500
L 800 3500
L 1894 763
L 2988 3500
L 3597 3500
L 2059 -325
z
" transform="scale(0.015625)"/>
       <path id="DejaVuSans-20" transform="scale(0.015625)"/>
       <path id="DejaVuSans-6f" d="M 1959 3097
Q 1497 3097 1228 2736
Q 959 2375 959 1747
Q 959 1119 1226 758
Q 1494 397 1959 397
Q 2419 397 2687 759
Q 2956 1122 2956 1747
Q 2956 2369 2687 2733
Q 2419 3097 1959 3097
z
M 1959 3584
Q 2709 3584 3137 3096
Q 3566 2609 3566 1747
Q 3566 888 3137 398
Q 2709 -91 1959 -91
Q 1206 -91 779 398
Q 353 888 353 1747
Q 353 2609 779 3096
Q 1206 3584 1959 3584
z
" transform="scale(0.015625)"/>
       <path id="DejaVuSans-66" d="M 2375 4863
L 2375 4384
L 1825 4384
Q 1516 4384 1395 4259
Q 1275 4134 1275 3809
L 1275 3500
L 2222 3500
L 2222 3053
L 1275 3053
L 1275 0
L 697 0
L 697 3053
L 147 3053
L 147 3500
L 697 3500
L 697 3744
Q 697 4328 969 4595
Q 1241 4863 1831 4863
L 2375 4863
z
" transform="scale(0.015625)"/>
       <path id="DejaVuSans-Oblique-3b1" d="M 2619 1628
L 2622 2350
Q 2625 3088 2069 3091
Q 1653 3094 1394 2747
Q 1069 2319 959 1747
Q 825 1059 994 731
Q 1169 397 1547 397
Q 1966 397 2319 1063
L 2619 1628
z
M 2166 3578
Q 3141 3594 3128 2584
Q 3128 2584 3616 3500
L 4128 3500
L 3119 1603
L 3109 919
Q 3109 766 3194 638
Q 3291 488 3391 488
L 3669 488
L 3575 0
L 3228 0
Q 2934 0 2722 263
Q 2622 394 2619 669
Q 2416 334 2066 50
Q 1900 -81 1453 -78
Q 722 -72 456 397
Q 184 884 353 1747
Q 534 2675 1009 3097
Q 1544 3569 2166 3578
z
" transform="scale(0.015625)"/>
       <path id="DejaVuSans-2d" d="M 313 2009
L 1997 2009
L 1997 1497
L 313 1497
L 313 2009
z
" transform="scale(0.015625)"/>
       <path id="DejaVuSans-43" d="M 4122 4306
L 4122 3641
Q 3803 3938 3442 4084
Q 3081 4231 2675 4231
Q 1875 4231 1450 3742
Q 1025 3253 1025 2328
Q 1025 1406 1450 917
Q 1875 428 2675 428
Q 3081 428 3442 575
Q 3803 722 4122 1019
L 4122 359
Q 3791 134 3420 21
Q 3050 -91 2638 -91
Q 1578 -91 968 557
Q 359 1206 359 2328
Q 359 3453 968 4101
Q 1578 4750 2638 4750
Q 3056 4750 3426 4639
Q 3797 4528 4122 4306
z
" transform="scale(0.015625)"/>
       <path id="DejaVuSans-61" d="M 2194 1759
Q 1497 1759 1228 1600
Q 959 1441 959 1056
Q 959 750 1161 570
Q 1363 391 1709 391
Q 2188 391 2477 730
Q 2766 1069 2766 1631
L 2766 1759
L 2194 1759
z
M 3341 1997
L 3341 0
L 2766 0
L 2766 531
Q 2569 213 2275 61
Q 1981 -91 1556 -91
Q 1019 -91 701 211
Q 384 513 384 1019
Q 384 1609 779 1909
Q 1175 2209 1959 2209
L 2766 2209
L 2766 2266
Q 2766 2663 2505 2880
Q 2244 3097 1772 3097
Q 1472 3097 1187 3025
Q 903 2953 641 2809
L 641 3341
Q 956 3463 1253 3523
Q 1550 3584 1831 3584
Q 2591 3584 2966 3190
Q 3341 2797 3341 1997
z
" transform="scale(0.015625)"/>
       <path id="DejaVuSans-74" d="M 1172 4494
L 1172 3500
L 2356 3500
L 2356 3053
L 1172 3053
L 1172 1153
Q 1172 725 1289 603
Q 1406 481 1766 481
L 2356 481
L 2356 0
L 1766 0
Q 1100 0 847 248
Q 594 497 594 1153
L 594 3053
L 172 3053
L 172 3500
L 594 3500
L 594 4494
L 1172 4494
z
" transform="scale(0.015625)"/>
       <path id="DejaVuSans-6d" d="M 3328 2828
Q 3544 3216 3844 3400
Q 4144 3584 4550 3584
Q 5097 3584 5394 3201
Q 5691 2819 5691 2113
L 5691 0
L 5113 0
L 5113 2094
Q 5113 2597 4934 2840
Q 4756 3084 4391 3084
Q 3944 3084 3684 2787
Q 3425 2491 3425 1978
L 3425 0
L 2847 0
L 2847 2094
Q 2847 2600 2669 2842
Q 2491 3084 2119 3084
Q 1678 3084 1418 2786
Q 1159 2488 1159 1978
L 1159 0
L 581 0
L 581 3500
L 1159 3500
L 1159 2956
Q 1356 3278 1631 3431
Q 1906 3584 2284 3584
Q 2666 3584 2933 3390
Q 3200 3197 3328 2828
z
" transform="scale(0.015625)"/>
       <path id="DejaVuSans-73" d="M 2834 3397
L 2834 2853
Q 2591 2978 2328 3040
Q 2066 3103 1784 3103
Q 1356 3103 1142 2972
Q 928 2841 928 2578
Q 928 2378 1081 2264
Q 1234 2150 1697 2047
L 1894 2003
Q 2506 1872 2764 1633
Q 3022 1394 3022 966
Q 3022 478 2636 193
Q 2250 -91 1575 -91
Q 1294 -91 989 -36
Q 684 19 347 128
L 347 722
Q 666 556 975 473
Q 1284 391 1588 391
Q 1994 391 2212 530
Q 2431 669 2431 922
Q 2431 1156 2273 1281
Q 2116 1406 1581 1522
L 1381 1569
Q 847 1681 609 1914
Q 372 2147 372 2553
Q 372 3047 722 3315
Q 1072 3584 1716 3584
Q 2034 3584 2315 3537
Q 2597 3491 2834 3397
z
" transform="scale(0.015625)"/>
       <path id="DejaVuSans-64" d="M 2906 2969
L 2906 4863
L 3481 4863
L 3481 0
L 2906 0
L 2906 525
Q 2725 213 2448 61
Q 2172 -91 1784 -91
Q 1150 -91 751 415
Q 353 922 353 1747
Q 353 2572 751 3078
Q 1150 3584 1784 3584
Q 2172 3584 2448 3432
Q 2725 3281 2906 2969
z
M 947 1747
Q 947 1113 1208 752
Q 1469 391 1925 391
Q 2381 391 2643 752
Q 2906 1113 2906 1747
Q 2906 2381 2643 2742
Q 2381 3103 1925 3103
Q 1469 3103 1208 2742
Q 947 2381 947 1747
z
" transform="scale(0.015625)"/>
       <path id="DejaVuSans-69" d="M 603 3500
L 1178 3500
L 1178 0
L 603 0
L 603 3500
z
M 603 4863
L 1178 4863
L 1178 4134
L 603 4134
L 603 4863
z
" transform="scale(0.015625)"/>
      </defs>
      <use xlink:href="#DejaVuSans-46" transform="translate(0 0.015625)"/>
      <use xlink:href="#DejaVuSans-72" transform="translate(57.519531 0.015625)"/>
      <use xlink:href="#DejaVuSans-65" transform="translate(98.632812 0.015625)"/>
      <use xlink:href="#DejaVuSans-71" transform="translate(160.15625 0.015625)"/>
      <use xlink:href="#DejaVuSans-75" transform="translate(223.632812 0.015625)"/>
      <use xlink:href="#DejaVuSans-65" transform="translate(287.011719 0.015625)"/>
      <use xlink:href="#DejaVuSans-6e" transform="translate(348.535156 0.015625)"/>
      <use xlink:href="#DejaVuSans-63" transform="translate(411.914062 0.015625)"/>
      <use xlink:href="#DejaVuSans-79" transform="translate(466.894531 0.015625)"/>
      <use xlink:href="#DejaVuSans-20" transform="translate(526.074219 0.015625)"/>
      <use xlink:href="#DejaVuSans-6f" transform="translate(557.861328 0.015625)"/>
      <use xlink:href="#DejaVuSans-66" transform="translate(619.042969 0.015625)"/>
      <use xlink:href="#DejaVuSans-20" transform="translate(654.248047 0.015625)"/>
      <use xlink:href="#DejaVuSans-Oblique-3b1" transform="translate(686.035156 0.015625)"/>
      <use xlink:href="#DejaVuSans-2d" transform="translate(751.953125 0.015625)"/>
      <use xlink:href="#DejaVuSans-43" transform="translate(788.037109 0.015625)"/>
      <use xlink:href="#DejaVuSans-20" transform="translate(857.861328 0.015625)"/>
      <use xlink:href="#DejaVuSans-61" transform="translate(889.648438 0.015625)"/>
      <use xlink:href="#DejaVuSans-74" transform="translate(950.927734 0.015625)"/>
      <use xlink:href="#DejaVuSans-6f" transform="translate(990.136719 0.015625)"/>
      <use xlink:href="#DejaVuSans-6d" transform="translate(1051.318359 0.015625)"/>
      <use xlink:href="#DejaVuSans-73" transform="translate(1148.730469 0.015625)"/>
      <use xlink:href="#DejaVuSans-20" transform="translate(1200.830078 0.015625)"/>
      <use xlink:href="#DejaVuSans-64" transform="translate(1232.617188 0.015625)"/>
      <use xlink:href="#DejaVuSans-69" transform="translate(1296.09375 0.015625)"/>
      <use xlink:href="#DejaVuSans-73" transform="translate(1323.876953 0.015625)"/>
      <use xlink:href="#DejaVuSans-74" transform="translate(1375.976562 0.015625)"/>
      <use xlink:href="#DejaVuSans-61" transform="translate(1415.185547 0.015625)"/>
      <use xlink:href="#DejaVuSans-6e" transform="translate(1476.464844 0.015625)"/>
      <use xlink:href="#DejaVuSans-63" transform="translate(1539.84375 0.015625)"/>
      <use xlink:href="#DejaVuSans-65" transform="translate(1594.824219 0.015625)"/>
     </g>
    </g>
   </g>
   <g id="matplotlib.axis_2">
    <g id="text_7">
     <!-- Distance [$\mathring{A}$ngstrom] -->
     <g transform="translate(23.244 809.2)rotate(-90)scale(0.1 -0.1)">
      <defs>
       <path id="DejaVuSans-44" d="M 1259 4147
L 1259 519
L 2022 519
Q 2988 519 3436 956
Q 3884 1394 3884 2338
Q 3884 3275 3436 3711
Q 2988 4147 2022 4147
L 1259 4147
z
M 628 4666
L 1925 4666
Q 3281 4666 3915 4102
Q 4550 3538 4550 2338
Q 4550 1131 3912 565
Q 3275 0 1925 0
L 628 0
L 628 4666
z
" transform="scale(0.015625)"/>
       <path id="DejaVuSans-5b" d="M 550 4863
L 1875 4863
L 1875 4416
L 1125 4416
L 1125 -397
L 1875 -397
L 1875 -844
L 550 -844
L 550 4863
z
" transform="scale(0.015625)"/>
       <path id="DejaVuSans-2218" d="M 2003 2603
Q 1753 2603 1581 2429
Q 1409 2256 1409 2006
Q 1409 1759 1581 1589
Q 1753 1419 2003 1419
Q 2253 1419 2425 1589
Q 2597 1759 2597 2006
Q 2597 2253 2423 2428
Q 2250 2603 2003 2603
z
M 2003 3006
Q 2203 3006 2387 2929
Q 2572 2853 2706 2709
Q 2850 2569 2922 2390
Q 2994 2212 2994 2006
Q 2994 1594 2705 1308
Q 2416 1022 1997 1022
Q 1575 1022 1294 1303
Q 1013 1584 1013 2006
Q 1013 2425 1300 2715
Q 1588 3006 2003 3006
z
" transform="scale(0.015625)"/>
       <path id="DejaVuSans-Oblique-41" d="M 2356 4666
L 3072 4666
L 3938 0
L 3278 0
L 3084 1197
L 984 1197
L 325 0
L -341 0
L 2356 4666
z
M 2584 4044
L 1275 1722
L 2988 1722
L 2584 4044
z
" transform="scale(0.015625)"/>
       <path id="DejaVuSans-67" d="M 2906 1791
Q 2906 2416 2648 2759
Q 2391 3103 1925 3103
Q 1463 3103 1205 2759
Q 947 2416 947 1791
Q 947 1169 1205 825
Q 1463 481 1925 481
Q 2391 481 2648 825
Q 2906 1169 2906 1791
z
M 3481 434
Q 3481 -459 3084 -895
Q 2688 -1331 1869 -1331
Q 1566 -1331 1297 -1286
Q 1028 -1241 775 -1147
L 775 -588
Q 1028 -725 1275 -790
Q 1522 -856 1778 -856
Q 2344 -856 2625 -561
Q 2906 -266 2906 331
L 2906 616
Q 2728 306 2450 153
Q 2172 0 1784 0
Q 1141 0 747 490
Q 353 981 353 1791
Q 353 2603 747 3093
Q 1141 3584 1784 3584
Q 2172 3584 2450 3431
Q 2728 3278 2906 2969
L 2906 3500
L 3481 3500
L 3481 434
z
" transform="scale(0.015625)"/>
       <path id="DejaVuSans-5d" d="M 1947 4863
L 1947 -844
L 622 -844
L 622 -397
L 1369 -397
L 1369 4416
L 622 4416
L 622 4863
L 1947 4863
z
" transform="scale(0.015625)"/>
      </defs>
      <use xlink:href="#DejaVuSans-44" transform="translate(0 0.390625)"/>
      <use xlink:href="#DejaVuSans-69" transform="translate(77.001953 0.390625)"/>
      <use xlink:href="#DejaVuSans-73" transform="translate(104.785156 0.390625)"/>
      <use xlink:href="#DejaVuSans-74" transform="translate(156.884766 0.390625)"/>
      <use xlink:href="#DejaVuSans-61" transform="translate(196.09375 0.390625)"/>
      <use xlink:href="#DejaVuSans-6e" transform="translate(257.373047 0.390625)"/>
      <use xlink:href="#DejaVuSans-63" transform="translate(320.751953 0.390625)"/>
      <use xlink:href="#DejaVuSans-65" transform="translate(375.732422 0.390625)"/>
      <use xlink:href="#DejaVuSans-20" transform="translate(437.255859 0.390625)"/>
      <use xlink:href="#DejaVuSans-5b" transform="translate(469.042969 0.390625)"/>
      <use xlink:href="#DejaVuSans-2218" transform="translate(535.408691 77.96875)scale(0.49)"/>
      <use xlink:href="#DejaVuSans-Oblique-41" transform="translate(508.056641 0.390625)"/>
      <use xlink:href="#DejaVuSans-6e" transform="translate(576.464844 0.390625)"/>
      <use xlink:href="#DejaVuSans-67" transform="translate(639.84375 0.390625)"/>
      <use xlink:href="#DejaVuSans-73" transform="translate(703.320312 0.390625)"/>
      <use xlink:href="#DejaVuSans-74" transform="translate(755.419922 0.390625)"/>
      <use xlink:href="#DejaVuSans-72" transform="translate(794.628906 0.390625)"/>
      <use xlink:href="#DejaVuSans-6f" transform="translate(835.742188 0.390625)"/>
      <use xlink:href="#DejaVuSans-6d" transform="translate(896.923828 0.390625)"/>
      <use xlink:href="#DejaVuSans-5d" transform="translate(994.335938 0.390625)"/>
     </g>
    </g>
   </g>
   <g id="patch_27">
    <path d="M 99 1335
L 99 180
" style="fill: none; stroke: #000000; stroke-width: 0.8; stroke-linejoin: miter; stroke-linecap: square"/>
   </g>
   <g id="patch_28">
    <path d="M 712.8 1335
L 712.8 180
" style="fill: none; stroke: #000000; stroke-width: 0.8; stroke-linejoin: miter; stroke-linecap: square"/>
   </g>
   <g id="patch_29">
    <path d="M 99 1335
L 712.8 1335
" style="fill: none; stroke: #000000; stroke-width: 0.8; stroke-linejoin: miter; stroke-linecap: square"/>
   </g>
   <g id="patch_30">
    <path d="M 99 180
L 712.8 180
" style="fill: none; stroke: #000000; stroke-width: 0.8; stroke-linejoin: miter; stroke-linecap: square"/>
   </g>
   <g id="text_8">
    <!-- 0.0 - 0.25 -->
    <g transform="translate(29 1275.9)scale(0.1 -0.1)">
     <defs>
      <path id="DejaVuSans-2e" d="M 684 794
L 1344 794
L 1344 0
L 684 0
L 684 794
z
" transform="scale(0.015625)"/>
      <path id="DejaVuSans-35" d="M 691 4666
L 3169 4666
L 3169 4134
L 1269 4134
L 1269 2991
Q 1406 3038 1543 3061
Q 1681 3084 1819 3084
Q 2600 3084 3056 2656
Q 3513 2228 3513 1497
Q 3513 744 3044 326
Q 2575 -91 1722 -91
Q 1428 -91 1123 -41
Q 819 9 494 109
L 494 744
Q 775 591 1075 516
Q 1375 441 1709 441
Q 2250 441 2565 725
Q 2881 1009 2881 1497
Q 2881 1984 2565 2268
Q 2250 2553 1709 2553
Q 1456 2553 1204 2497
Q 953 2441 691 2322
L 691 4666
z
" transform="scale(0.015625)"/>
     </defs>
     <use xlink:href="#DejaVuSans-30"/>
     <use xlink:href="#DejaVuSans-2e" x="63.623047"/>
     <use xlink:href="#DejaVuSans-30" x="95.410156"/>
     <use xlink:href="#DejaVuSans-20" x="159.033203"/>
     <use xlink:href="#DejaVuSans-2d" x="190.820312"/>
     <use xlink:href="#DejaVuSans-20" x="226.904297"/>
     <use xlink:href="#DejaVuSans-30" x="258.691406"/>
     <use xlink:href="#DejaVuSans-2e" x="322.314453"/>
     <use xlink:href="#DejaVuSans-32" x="354.101562"/>
     <use xlink:href="#DejaVuSans-35" x="417.724609"/>
    </g>
   </g>
   <g id="text_9">
    <!-- 0.25 - 0.5 -->
    <g transform="translate(29 1231.9)scale(0.1 -0.1)">
     <use xlink:href="#DejaVuSans-30"/>
     <use xlink:href="#DejaVuSans-2e" x="63.623047"/>
     <use xlink:href="#DejaVuSans-32" x="95.410156"/>
     <use xlink:href="#DejaVuSans-35" x="159.033203"/>
     <use xlink:href="#DejaVuSans-20" x="222.65625"/>
     <use xlink:href="#DejaVuSans-2d" x="254.443359"/>
     <use xlink:href="#DejaVuSans-20" x="290.527344"/>
     <use xlink:href="#DejaVuSans-30" x="322.314453"/>
     <use xlink:href="#DejaVuSans-2e" x="385.9375"/>
     <use xlink:href="#DejaVuSans-35" x="417.724609"/>
    </g>
   </g>
   <g id="text_10">
    <!-- 0.5 - 0.75 -->
    <g transform="translate(29 1187.9)scale(0.1 -0.1)">
     <defs>
      <path id="DejaVuSans-37" d="M 525 4666
L 3525 4666
L 3525 4397
L 1831 0
L 1172 0
L 2766 4134
L 525 4134
L 525 4666
z
" transform="scale(0.015625)"/>
     </defs>
     <use xlink:href="#DejaVuSans-30"/>
     <use xlink:href="#DejaVuSans-2e" x="63.623047"/>
     <use xlink:href="#DejaVuSans-35" x="95.410156"/>
     <use xlink:href="#DejaVuSans-20" x="159.033203"/>
     <use xlink:href="#DejaVuSans-2d" x="190.820312"/>
     <use xlink:href="#DejaVuSans-20" x="226.904297"/>
     <use xlink:href="#DejaVuSans-30" x="258.691406"/>
     <use xlink:href="#DejaVuSans-2e" x="322.314453"/>
     <use xlink:href="#DejaVuSans-37" x="354.101562"/>
     <use xlink:href="#DejaVuSans-35" x="417.724609"/>
    </g>
   </g>
   <g id="text_11">
    <!-- 0.75 - 1.0 -->
    <g transform="translate(29 1143.9)scale(0.1 -0.1)">
     <defs>
      <path id="DejaVuSans-31" d="M 794 531
L 1825 531
L 1825 4091
L 703 3866
L 703 4441
L 1819 4666
L 2450 4666
L 2450 531
L 3481 531
L 3481 0
L 794 0
L 794 531
z
" transform="scale(0.015625)"/>
     </defs>
     <use xlink:href="#DejaVuSans-30"/>
     <use xlink:href="#DejaVuSans-2e" x="63.623047"/>
     <use xlink:href="#DejaVuSans-37" x="95.410156"/>
     <use xlink:href="#DejaVuSans-35" x="159.033203"/>
     <use xlink:href="#DejaVuSans-20" x="222.65625"/>
     <use xlink:href="#DejaVuSans-2d" x="254.443359"/>
     <use xlink:href="#DejaVuSans-20" x="290.527344"/>
     <use xlink:href="#DejaVuSans-31" x="322.314453"/>
     <use xlink:href="#DejaVuSans-2e" x="385.9375"/>
     <use xlink:href="#DejaVuSans-30" x="417.724609"/>
    </g>
   </g>
   <g id="text_12">
    <!-- 1.0 - 1.25 -->
    <g transform="translate(29 1099.9)scale(0.1 -0.1)">
     <use xlink:href="#DejaVuSans-31"/>
     <use xlink:href="#DejaVuSans-2e" x="63.623047"/>
     <use xlink:href="#DejaVuSans-30" x="95.410156"/>
     <use xlink:href="#DejaVuSans-20" x="159.033203"/>
     <use xlink:href="#DejaVuSans-2d" x="190.820312"/>
     <use xlink:href="#DejaVuSans-20" x="226.904297"/>
     <use xlink:href="#DejaVuSans-31" x="258.691406"/>
     <use xlink:href="#DejaVuSans-2e" x="322.314453"/>
     <use xlink:href="#DejaVuSans-32" x="354.101562"/>
     <use xlink:href="#DejaVuSans-35" x="417.724609"/>
    </g>
   </g>
   <g id="text_13">
    <!-- 1.25 - 1.5 -->
    <g transform="translate(29 1055.9)scale(0.1 -0.1)">
     <use xlink:href="#DejaVuSans-31"/>
     <use xlink:href="#DejaVuSans-2e" x="63.623047"/>
     <use xlink:href="#DejaVuSans-32" x="95.410156"/>
     <use xlink:href="#DejaVuSans-35" x="159.033203"/>
     <use xlink:href="#DejaVuSans-20" x="222.65625"/>
     <use xlink:href="#DejaVuSans-2d" x="254.443359"/>
     <use xlink:href="#DejaVuSans-20" x="290.527344"/>
     <use xlink:href="#DejaVuSans-31" x="322.314453"/>
     <use xlink:href="#DejaVuSans-2e" x="385.9375"/>
     <use xlink:href="#DejaVuSans-35" x="417.724609"/>
    </g>
   </g>
   <g id="text_14">
    <!-- 1.5 - 1.75 -->
    <g transform="translate(29 1011.9)scale(0.1 -0.1)">
     <use xlink:href="#DejaVuSans-31"/>
     <use xlink:href="#DejaVuSans-2e" x="63.623047"/>
     <use xlink:href="#DejaVuSans-35" x="95.410156"/>
     <use xlink:href="#DejaVuSans-20" x="159.033203"/>
     <use xlink:href="#DejaVuSans-2d" x="190.820312"/>
     <use xlink:href="#DejaVuSans-20" x="226.904297"/>
     <use xlink:href="#DejaVuSans-31" x="258.691406"/>
     <use xlink:href="#DejaVuSans-2e" x="322.314453"/>
     <use xlink:href="#DejaVuSans-37" x="354.101562"/>
     <use xlink:href="#DejaVuSans-35" x="417.724609"/>
    </g>
   </g>
   <g id="text_15">
    <!-- 1.75 - 2.0 -->
    <g transform="translate(29 967.9)scale(0.1 -0.1)">
     <use xlink:href="#DejaVuSans-31"/>
     <use xlink:href="#DejaVuSans-2e" x="63.623047"/>
     <use xlink:href="#DejaVuSans-37" x="95.410156"/>
     <use xlink:href="#DejaVuSans-35" x="159.033203"/>
     <use xlink:href="#DejaVuSans-20" x="222.65625"/>
     <use xlink:href="#DejaVuSans-2d" x="254.443359"/>
     <use xlink:href="#DejaVuSans-20" x="290.527344"/>
     <use xlink:href="#DejaVuSans-32" x="322.314453"/>
     <use xlink:href="#DejaVuSans-2e" x="385.9375"/>
     <use xlink:href="#DejaVuSans-30" x="417.724609"/>
    </g>
   </g>
   <g id="text_16">
    <!-- 2.0 - 2.25 -->
    <g transform="translate(29 923.9)scale(0.1 -0.1)">
     <use xlink:href="#DejaVuSans-32"/>
     <use xlink:href="#DejaVuSans-2e" x="63.623047"/>
     <use xlink:href="#DejaVuSans-30" x="95.410156"/>
     <use xlink:href="#DejaVuSans-20" x="159.033203"/>
     <use xlink:href="#DejaVuSans-2d" x="190.820312"/>
     <use xlink:href="#DejaVuSans-20" x="226.904297"/>
     <use xlink:href="#DejaVuSans-32" x="258.691406"/>
     <use xlink:href="#DejaVuSans-2e" x="322.314453"/>
     <use xlink:href="#DejaVuSans-32" x="354.101562"/>
     <use xlink:href="#DejaVuSans-35" x="417.724609"/>
    </g>
   </g>
   <g id="text_17">
    <!-- 2.25 - 2.5 -->
    <g transform="translate(29 879.9)scale(0.1 -0.1)">
     <use xlink:href="#DejaVuSans-32"/>
     <use xlink:href="#DejaVuSans-2e" x="63.623047"/>
     <use xlink:href="#DejaVuSans-32" x="95.410156"/>
     <use xlink:href="#DejaVuSans-35" x="159.033203"/>
     <use xlink:href="#DejaVuSans-20" x="222.65625"/>
     <use xlink:href="#DejaVuSans-2d" x="254.443359"/>
     <use xlink:href="#DejaVuSans-20" x="290.527344"/>
     <use xlink:href="#DejaVuSans-32" x="322.314453"/>
     <use xlink:href="#DejaVuSans-2e" x="385.9375"/>
     <use xlink:href="#DejaVuSans-35" x="417.724609"/>
    </g>
   </g>
   <g id="text_18">
    <!-- 2.5 - 2.75 -->
    <g transform="translate(29 835.9)scale(0.1 -0.1)">
     <use xlink:href="#DejaVuSans-32"/>
     <use xlink:href="#DejaVuSans-2e" x="63.623047"/>
     <use xlink:href="#DejaVuSans-35" x="95.410156"/>
     <use xlink:href="#DejaVuSans-20" x="159.033203"/>
     <use xlink:href="#DejaVuSans-2d" x="190.820312"/>
     <use xlink:href="#DejaVuSans-20" x="226.904297"/>
     <use xlink:href="#DejaVuSans-32" x="258.691406"/>
     <use xlink:href="#DejaVuSans-2e" x="322.314453"/>
     <use xlink:href="#DejaVuSans-37" x="354.101562"/>
     <use xlink:href="#DejaVuSans-35" x="417.724609"/>
    </g>
   </g>
   <g id="text_19">
    <!-- 2.75 - 3.0 -->
    <g transform="translate(29 791.9)scale(0.1 -0.1)">
     <defs>
      <path id="DejaVuSans-33" d="M 2597 2516
Q 3050 2419 3304 2112
Q 3559 1806 3559 1356
Q 3559 666 3084 287
Q 2609 -91 1734 -91
Q 1441 -91 1130 -33
Q 819 25 488 141
L 488 750
Q 750 597 1062 519
Q 1375 441 1716 441
Q 2309 441 2620 675
Q 2931 909 2931 1356
Q 2931 1769 2642 2001
Q 2353 2234 1838 2234
L 1294 2234
L 1294 2753
L 1863 2753
Q 2328 2753 2575 2939
Q 2822 3125 2822 3475
Q 2822 3834 2567 4026
Q 2313 4219 1838 4219
Q 1578 4219 1281 4162
Q 984 4106 628 3988
L 628 4550
Q 988 4650 1302 4700
Q 1616 4750 1894 4750
Q 2613 4750 3031 4423
Q 3450 4097 3450 3541
Q 3450 3153 3228 2886
Q 3006 2619 2597 2516
z
" transform="scale(0.015625)"/>
     </defs>
     <use xlink:href="#DejaVuSans-32"/>
     <use xlink:href="#DejaVuSans-2e" x="63.623047"/>
     <use xlink:href="#DejaVuSans-37" x="95.410156"/>
     <use xlink:href="#DejaVuSans-35" x="159.033203"/>
     <use xlink:href="#DejaVuSans-20" x="222.65625"/>
     <use xlink:href="#DejaVuSans-2d" x="254.443359"/>
     <use xlink:href="#DejaVuSans-20" x="290.527344"/>
     <use xlink:href="#DejaVuSans-33" x="322.314453"/>
     <use xlink:href="#DejaVuSans-2e" x="385.9375"/>
     <use xlink:href="#DejaVuSans-30" x="417.724609"/>
    </g>
   </g>
   <g id="text_20">
    <!-- 3.0 - 3.25 -->
    <g transform="translate(29 747.9)scale(0.1 -0.1)">
     <use xlink:href="#DejaVuSans-33"/>
     <use xlink:href="#DejaVuSans-2e" x="63.623047"/>
     <use xlink:href="#DejaVuSans-30" x="95.410156"/>
     <use xlink:href="#DejaVuSans-20" x="159.033203"/>
     <use xlink:href="#DejaVuSans-2d" x="190.820312"/>
     <use xlink:href="#DejaVuSans-20" x="226.904297"/>
     <use xlink:href="#DejaVuSans-33" x="258.691406"/>
     <use xlink:href="#DejaVuSans-2e" x="322.314453"/>
     <use xlink:href="#DejaVuSans-32" x="354.101562"/>
     <use xlink:href="#DejaVuSans-35" x="417.724609"/>
    </g>
   </g>
   <g id="text_21">
    <!-- 3.25 - 3.5 -->
    <g transform="translate(29 703.9)scale(0.1 -0.1)">
     <use xlink:href="#DejaVuSans-33"/>
     <use xlink:href="#DejaVuSans-2e" x="63.623047"/>
     <use xlink:href="#DejaVuSans-32" x="95.410156"/>
     <use xlink:href="#DejaVuSans-35" x="159.033203"/>
     <use xlink:href="#DejaVuSans-20" x="222.65625"/>
     <use xlink:href="#DejaVuSans-2d" x="254.443359"/>
     <use xlink:href="#DejaVuSans-20" x="290.527344"/>
     <use xlink:href="#DejaVuSans-33" x="322.314453"/>
     <use xlink:href="#DejaVuSans-2e" x="385.9375"/>
     <use xlink:href="#DejaVuSans-35" x="417.724609"/>
    </g>
   </g>
   <g id="text_22">
    <!-- 3.5 - 3.75 -->
    <g transform="translate(29 659.9)scale(0.1 -0.1)">
     <use xlink:href="#DejaVuSans-33"/>
     <use xlink:href="#DejaVuSans-2e" x="63.623047"/>
     <use xlink:href="#DejaVuSans-35" x="95.410156"/>
     <use xlink:href="#DejaVuSans-20" x="159.033203"/>
     <use xlink:href="#DejaVuSans-2d" x="190.820312"/>
     <use xlink:href="#DejaVuSans-20" x="226.904297"/>
     <use xlink:href="#DejaVuSans-33" x="258.691406"/>
     <use xlink:href="#DejaVuSans-2e" x="322.314453"/>
     <use xlink:href="#DejaVuSans-37" x="354.101562"/>
     <use xlink:href="#DejaVuSans-35" x="417.724609"/>
    </g>
   </g>
   <g id="text_23">
    <!-- 3.75 - 4.0 -->
    <g transform="translate(29 615.9)scale(0.1 -0.1)">
     <use xlink:href="#DejaVuSans-33"/>
     <use xlink:href="#DejaVuSans-2e" x="63.623047"/>
     <use xlink:href="#DejaVuSans-37" x="95.410156"/>
     <use xlink:href="#DejaVuSans-35" x="159.033203"/>
     <use xlink:href="#DejaVuSans-20" x="222.65625"/>
     <use xlink:href="#DejaVuSans-2d" x="254.443359"/>
     <use xlink:href="#DejaVuSans-20" x="290.527344"/>
     <use xlink:href="#DejaVuSans-34" x="322.314453"/>
     <use xlink:href="#DejaVuSans-2e" x="385.9375"/>
     <use xlink:href="#DejaVuSans-30" x="417.724609"/>
    </g>
   </g>
   <g id="text_24">
    <!-- 4.0 - 4.25 -->
    <g transform="translate(29 571.9)scale(0.1 -0.1)">
     <use xlink:href="#DejaVuSans-34"/>
     <use xlink:href="#DejaVuSans-2e" x="63.623047"/>
     <use xlink:href="#DejaVuSans-30" x="95.410156"/>
     <use xlink:href="#DejaVuSans-20" x="159.033203"/>
     <use xlink:href="#DejaVuSans-2d" x="190.820312"/>
     <use xlink:href="#DejaVuSans-20" x="226.904297"/>
     <use xlink:href="#DejaVuSans-34" x="258.691406"/>
     <use xlink:href="#DejaVuSans-2e" x="322.314453"/>
     <use xlink:href="#DejaVuSans-32" x="354.101562"/>
     <use xlink:href="#DejaVuSans-35" x="417.724609"/>
    </g>
   </g>
   <g id="text_25">
    <!-- 4.25 - 4.5 -->
    <g transform="translate(29 527.9)scale(0.1 -0.1)">
     <use xlink:href="#DejaVuSans-34"/>
     <use xlink:href="#DejaVuSans-2e" x="63.623047"/>
     <use xlink:href="#DejaVuSans-32" x="95.410156"/>
     <use xlink:href="#DejaVuSans-35" x="159.033203"/>
     <use xlink:href="#DejaVuSans-20" x="222.65625"/>
     <use xlink:href="#DejaVuSans-2d" x="254.443359"/>
     <use xlink:href="#DejaVuSans-20" x="290.527344"/>
     <use xlink:href="#DejaVuSans-34" x="322.314453"/>
     <use xlink:href="#DejaVuSans-2e" x="385.9375"/>
     <use xlink:href="#DejaVuSans-35" x="417.724609"/>
    </g>
   </g>
   <g id="text_26">
    <!-- 4.5 - 4.75 -->
    <g transform="translate(29 483.9)scale(0.1 -0.1)">
     <use xlink:href="#DejaVuSans-34"/>
     <use xlink:href="#DejaVuSans-2e" x="63.623047"/>
     <use xlink:href="#DejaVuSans-35" x="95.410156"/>
     <use xlink:href="#DejaVuSans-20" x="159.033203"/>
     <use xlink:href="#DejaVuSans-2d" x="190.820312"/>
     <use xlink:href="#DejaVuSans-20" x="226.904297"/>
     <use xlink:href="#DejaVuSans-34" x="258.691406"/>
     <use xlink:href="#DejaVuSans-2e" x="322.314453"/>
     <use xlink:href="#DejaVuSans-37" x="354.101562"/>
     <use xlink:href="#DejaVuSans-35" x="417.724609"/>
    </g>
   </g>
   <g id="text_27">
    <!-- 4.75 - 5.0 -->
    <g transform="translate(29 439.9)scale(0.1 -0.1)">
     <use xlink:href="#DejaVuSans-34"/>
     <use xlink:href="#DejaVuSans-2e" x="63.623047"/>
     <use xlink:href="#DejaVuSans-37" x="95.410156"/>
     <use xlink:href="#DejaVuSans-35" x="159.033203"/>
     <use xlink:href="#DejaVuSans-20" x="222.65625"/>
     <use xlink:href="#DejaVuSans-2d" x="254.443359"/>
     <use xlink:href="#DejaVuSans-20" x="290.527344"/>
     <use xlink:href="#DejaVuSans-35" x="322.314453"/>
     <use xlink:href="#DejaVuSans-2e" x="385.9375"/>
     <use xlink:href="#DejaVuSans-30" x="417.724609"/>
    </g>
   </g>
   <g id="text_28">
    <!-- 5.0 - 5.25 -->
    <g transform="translate(29 395.9)scale(0.1 -0.1)">
     <use xlink:href="#DejaVuSans-35"/>
     <use xlink:href="#DejaVuSans-2e" x="63.623047"/>
     <use xlink:href="#DejaVuSans-30" x="95.410156"/>
     <use xlink:href="#DejaVuSans-20" x="159.033203"/>
     <use xlink:href="#DejaVuSans-2d" x="190.820312"/>
     <use xlink:href="#DejaVuSans-20" x="226.904297"/>
     <use xlink:href="#DejaVuSans-35" x="258.691406"/>
     <use xlink:href="#DejaVuSans-2e" x="322.314453"/>
     <use xlink:href="#DejaVuSans-32" x="354.101562"/>
     <use xlink:href="#DejaVuSans-35" x="417.724609"/>
    </g>
   </g>
   <g id="text_29">
    <!-- 5.25 - 5.5 -->
    <g transform="translate(29 351.9)scale(0.1 -0.1)">
     <use xlink:href="#DejaVuSans-35"/>
     <use xlink:href="#DejaVuSans-2e" x="63.623047"/>
     <use xlink:href="#DejaVuSans-32" x="95.410156"/>
     <use xlink:href="#DejaVuSans-35" x="159.033203"/>
     <use xlink:href="#DejaVuSans-20" x="222.65625"/>
     <use xlink:href="#DejaVuSans-2d" x="254.443359"/>
     <use xlink:href="#DejaVuSans-20" x="290.527344"/>
     <use xlink:href="#DejaVuSans-35" x="322.314453"/>
     <use xlink:href="#DejaVuSans-2e" x="385.9375"/>
     <use xlink:href="#DejaVuSans-35" x="417.724609"/>
    </g>
   </g>
   <g id="text_30">
    <!-- 5.5 - 5.75 -->
    <g transform="translate(29 307.9)scale(0.1 -0.1)">
     <use xlink:href="#DejaVuSans-35"/>
     <use xlink:href="#DejaVuSans-2e" x="63.623047"/>
     <use xlink:href="#DejaVuSans-35" x="95.410156"/>
     <use xlink:href="#DejaVuSans-20" x="159.033203"/>
     <use xlink:href="#DejaVuSans-2d" x="190.820312"/>
     <use xlink:href="#DejaVuSans-20" x="226.904297"/>
     <use xlink:href="#DejaVuSans-35" x="258.691406"/>
     <use xlink:href="#DejaVuSans-2e" x="322.314453"/>
     <use xlink:href="#DejaVuSans-37" x="354.101562"/>
     <use xlink:href="#DejaVuSans-35" x="417.724609"/>
    </g>
   </g>
   <g id="text_31">
    <!-- 5.75 - 6.0 -->
    <g transform="translate(29 263.9)scale(0.1 -0.1)">
     <use xlink:href="#DejaVuSans-35"/>
     <use xlink:href="#DejaVuSans-2e" x="63.623047"/>
     <use xlink:href="#DejaVuSans-37" x="95.410156"/>
     <use xlink:href="#DejaVuSans-35" x="159.033203"/>
     <use xlink:href="#DejaVuSans-20" x="222.65625"/>
     <use xlink:href="#DejaVuSans-2d" x="254.443359"/>
     <use xlink:href="#DejaVuSans-20" x="290.527344"/>
     <use xlink:href="#DejaVuSans-36" x="322.314453"/>
     <use xlink:href="#DejaVuSans-2e" x="385.9375"/>
     <use xlink:href="#DejaVuSans-30" x="417.724609"/>
    </g>
   </g>
  </g>
 </g>
 <defs>
  <clipPath id="p2ebc430987">
   <rect x="99" y="180" width="613.8" height="1155"/>
  </clipPath>
 </defs>
</svg>
