<?xml version="1.0" encoding="UTF-8" standalone="no"?>
<svg
   height="24"
   viewBox="0 -960 960 960"
   width="24"
   version="1.1"
   id="svg1"
   sodipodi:docname="scan_delete_disabled_w200.svg"
   inkscape:version="1.3.2 (091e20e, 2023-11-25, custom)"
   xmlns:inkscape="http://www.inkscape.org/namespaces/inkscape"
   xmlns:sodipodi="http://sodipodi.sourceforge.net/DTD/sodipodi-0.dtd"
   xmlns="http://www.w3.org/2000/svg"
   xmlns:svg="http://www.w3.org/2000/svg">
  <defs
     id="defs1" />
  <sodipodi:namedview
     id="namedview1"
     pagecolor="#ffffff"
     bordercolor="#000000"
     borderopacity="0.25"
     inkscape:showpageshadow="2"
     inkscape:pageopacity="0.0"
     inkscape:pagecheckerboard="0"
     inkscape:deskcolor="#d1d1d1"
     showgrid="false"
     inkscape:zoom="33.499184"
     inkscape:cx="6.9106161"
     inkscape:cy="13.179426"
     inkscape:window-width="2560"
     inkscape:window-height="1351"
     inkscape:window-x="-9"
     inkscape:window-y="-9"
     inkscape:window-maximized="1"
     inkscape:current-layer="svg1" />
  <path
     d="M240-800v160-160 640-640Zm24.615 680Q237-120 218.5-138.5 200-157 200-184.615v-590.77Q200-803 218.5-821.5 237-840 264.615-840H580l180 180v192.462q-9.769-2.385-19.769-3.577-10-1.193-20.231-1.193V-640H560v-160H264.615q-9.23 0-16.923 7.692Q240-784.615 240-775.385v590.77q0 9.23 7.692 16.923Q255.385-160 264.615-160h233.231q3.385 11.462 8.462 21.077 5.077 9.616 11.846 18.923H264.615ZM636-125.384l-27.539-27.539 84-84-84-84L636-348.462l84 84 84-84 27.539 27.539-83 84 83 84L804-125.384l-84-83-84 83Z"
     id="path1"
     style="fill:#9e9c9a;fill-opacity:0.5" />
</svg>
