<svg xmlns="http://www.w3.org/2000/svg" height="24" viewBox="0 -960 960 960" width="24"><path d="M324.669-298.461q13.1 0 21.908-8.862 8.808-8.862 8.808-21.962t-8.862-21.907Q337.661-360 324.561-360t-21.907 8.862q-8.808 8.861-8.808 21.961 0 13.1 8.862 21.908 8.861 8.808 21.961 8.808Zm0-150.77q13.1 0 21.908-8.861 8.808-8.862 8.808-21.962t-8.862-21.908q-8.862-8.807-21.962-8.807t-21.907 8.861q-8.808 8.862-8.808 21.962t8.862 21.908q8.861 8.807 21.961 8.807Zm0-150.769q13.1 0 21.908-8.862 8.808-8.861 8.808-21.961 0-13.1-8.862-21.908-8.862-8.808-21.962-8.808t-21.907 8.862q-8.808 8.862-8.808 21.962t8.862 21.907Q311.569-600 324.669-600Zm123.023 290.769h215.385v-40H447.692v40Zm0-150.769h215.385v-40H447.692v40Zm0-150.769h215.385v-40H447.692v40ZM224.615-160Q197-160 178.5-178.5 160-197 160-224.615v-510.77Q160-763 178.5-781.5 197-800 224.615-800h510.77Q763-800 781.5-781.5 800-763 800-735.385v510.77Q800-197 781.5-178.5 763-160 735.385-160h-510.77Zm0-40h510.77q9.23 0 16.923-7.692Q760-215.385 760-224.615v-510.77q0-9.23-7.692-16.923Q744.615-760 735.385-760h-510.77q-9.23 0-16.923 7.692Q200-744.615 200-735.385v510.77q0 9.23 7.692 16.923Q215.385-200 224.615-200ZM200-760v560-560Z"/></svg>