<svg xmlns="http://www.w3.org/2000/svg" height="24" viewBox="0 -960 960 960" width="24"><path d="M200-209.231v-40h64.615v-316.923q0-78.384 49.616-137.884Q363.846-763.539 440-778.154V-800q0-16.667 11.64-28.334Q463.28-840 479.91-840q16.629 0 28.359 11.666Q520-816.667 520-800v21.846q76.154 14.615 125.769 74.116 49.616 59.5 49.616 137.884v316.923H760v40H200Zm280-286.154Zm-.136 390.77q-26.71 0-45.595-18.981-18.884-18.981-18.884-45.635h129.23q0 26.846-19.02 45.731-19.021 18.885-45.731 18.885ZM304.615-249.231h350.77v-316.923q0-72.923-51.231-124.154-51.231-51.23-124.154-51.23t-124.154 51.23q-51.231 51.231-51.231 124.154v316.923Z"/></svg>