<svg xmlns="http://www.w3.org/2000/svg" height="24" viewBox="0 -960 960 960" width="24"><path d="M224.615-160Q197-160 178.5-178.5 160-197 160-224.615v-510.77Q160-763 178.5-781.5 197-800 224.615-800h224.616v40H224.615q-9.23 0-16.923 7.692Q200-744.615 200-735.385v510.77q0 9.23 7.692 16.923Q215.385-200 224.615-200h510.77q9.23 0 16.923-7.692Q760-215.385 760-224.615v-224.616h40v224.616Q800-197 781.5-178.5 763-160 735.385-160h-510.77Zm164.923-201.231-28.307-28.307L731.692-760H560v-40h240v240h-40v-171.692L389.538-361.231Z"/></svg>