<svg xmlns="http://www.w3.org/2000/svg" height="24" viewBox="0 -960 960 960" width="24"><path d="M240-800v160-160 640-640Zm24.615 680Q237-120 218.5-138.5 200-157 200-184.615v-590.77Q200-803 218.5-821.5 237-840 264.615-840H580l180 180v192.462q-9.769-2.385-19.769-3.577-10-1.193-20.231-1.193V-640H560v-160H264.615q-9.23 0-16.923 7.692Q240-784.615 240-775.385v590.77q0 9.23 7.692 16.923Q255.385-160 264.615-160h233.231q3.385 11.462 8.462 21.077 5.077 9.616 11.846 18.923H264.615ZM636-125.384l-27.539-27.539 84-84-84-84L636-348.462l84 84 84-84 27.539 27.539-83 84 83 84L804-125.384l-84-83-84 83Z"/></svg>