<?xml version="1.0" encoding="UTF-8" standalone="no"?>
<svg
   height="24"
   viewBox="0 -960 960 960"
   width="24"
   version="1.1"
   id="svg1"
   sodipodi:docname="upload_file_disabled_w200.svg"
   inkscape:version="1.3.2 (091e20e, 2023-11-25, custom)"
   xmlns:inkscape="http://www.inkscape.org/namespaces/inkscape"
   xmlns:sodipodi="http://sodipodi.sourceforge.net/DTD/sodipodi-0.dtd"
   xmlns="http://www.w3.org/2000/svg"
   xmlns:svg="http://www.w3.org/2000/svg">
  <defs
     id="defs1" />
  <sodipodi:namedview
     id="namedview1"
     pagecolor="#ffffff"
     bordercolor="#000000"
     borderopacity="0.25"
     inkscape:showpageshadow="2"
     inkscape:pageopacity="0.0"
     inkscape:pagecheckerboard="0"
     inkscape:deskcolor="#d1d1d1"
     inkscape:zoom="47.375"
     inkscape:cx="12"
     inkscape:cy="12"
     inkscape:window-width="2560"
     inkscape:window-height="1351"
     inkscape:window-x="-9"
     inkscape:window-y="-9"
     inkscape:window-maximized="1"
     inkscape:current-layer="svg1" />
  <path
     d="M460-249.23h40V-437l84 84 28.308-28.538L480-513.846 347.692-381.538l28.539 28.308L460-437v187.77ZM264.615-120Q237-120 218.5-138.5 200-157 200-184.615v-590.77Q200-803 218.5-821.5 237-840 264.615-840H580l180 180v475.385Q760-157 741.5-138.5 723-120 695.385-120h-430.77ZM560-640v-160H264.615q-9.23 0-16.923 7.692Q240-784.615 240-775.385v590.77q0 9.23 7.692 16.923Q255.385-160 264.615-160h430.77q9.23 0 16.923-7.692Q720-175.385 720-184.615V-640H560ZM240-800v160-160 640-640Z"
     id="path1"
     style="fill:#9e9c9a;fill-opacity:0.5" />
</svg>
